<!-- by TradingView --><svg xmlns="http://www.w3.org/2000/svg" width="56" height="56" viewBox="0 0 56 56"><path fill="#333" d="M0 0h56v56H0z"/><path fill-rule="evenodd" d="M49 19h-4.5a4.5 4.5 0 1 0 0 9H49v-1.5h-4.5a3 3 0 1 1 0-6H49V19zm-32 9v-9h-2.23L7 28h1.99l1.32-1.5h5.19V28H17zm-1.5-7.48V25h-3.79l3.79-4.48zM19 19h6.43a2.57 2.57 0 0 1 1.7 4.5 2.56 2.56 0 0 1-1.7 4.5H19v-9zm1.5 1.5h4.85a1.15 1.15 0 0 1 0 2.3H20.5v-2.3zm0 3.7h4.85a1.15 1.15 0 0 1 0 2.3H20.5v-2.3zm8.06-5.2l4.8 9h2.3l4.83-9h-2.01l-3.9 7.36L30.6 19h-2.04z" fill="#fff"/><path fill="#07B" d="M7 30h11v2H7z"/><path fill="#39B54A" d="M28 30h10v2H28z"/><path fill="#0B9444" d="M18 30h10v2H18z"/><path fill="#16A7DE" d="M38 30h11v2H38z"/><path fill-rule="evenodd" d="M7 33.5h2.64a.98.98 0 0 1 .76 1.61.98.98 0 0 1-.38 1.89H7v-3.5zm.7.77h1.96a.27.27 0 0 1 0 .55H7.7v-.55zm0 1.36h2.16a.32.32 0 1 1 0 .64H7.7v-.64zm4.95-2.13h.7V37h-.7v-3.5zm10.02 0h-2.02V37h.7v-1.54h1.32a.98.98 0 1 0 0-1.96zm-1.32 1.36v-.7h1.25a.35.35 0 1 1 0 .7h-1.25zm15.68-1.36H35V37h.7v-1.54h.42L37.26 37h.84l-1.14-1.54h.07a.98.98 0 1 0 0-1.96zm-1.33.66v.7h1.2a.35.35 0 0 0 0-.7h-1.2zM26 33.5h-.7V37h.7v-1.48h1.65V37h.7v-3.5h-.7v1.3H26v-1.3zM17 37c1.1 0 2-.78 2-1.75s-.9-1.75-2-1.75-2 .78-2 1.75.9 1.75 2 1.75zm0-.7c.72 0 1.3-.47 1.3-1.05 0-.58-.58-1.05-1.3-1.05-.72 0-1.3.47-1.3 1.05 0 .58.58 1.05 1.3 1.05zm14.49-2.8L29.9 37h.82l.3-.72h1.5l.33.72h.8l-1.6-3.5h-.57zm.28 1.03l-.48 1.08h.99l-.5-1.08zM45.24 37l1.58-3.5h.57L49 37h-.8l-.34-.71h-1.5l-.3.71h-.82zm1.38-1.39l.48-1.08.51 1.08h-.99zM39.9 37v-3.5h.8l1.12 2.17 1.1-2.17h.78V37H43v-2.23l-.89 1.9h-.62l-.89-1.9V37h-.7z" fill="#fff"/></svg>