<!-- by TradingView --><svg width="56" height="56" viewBox="0 0 56 56" xmlns="http://www.w3.org/2000/svg"><path fill="#F0F3FA" d="M0 0h56v56H0z"/><path d="M6.05 25h.9L9 31h-.97l-.46-1.4H5.4L4.93 31H4l2.05-6Zm1.23 3.72-.8-2.4-.8 2.4h1.6ZM10 30.16l.58-.73c.44.4.92.7 1.54.7.56 0 .88-.31.88-.75 0-.37-.16-.62-1.08-.95-1.1-.43-1.69-.83-1.69-1.77v-.02c0-.96.77-1.64 1.85-1.64.69 0 1.34.24 1.84.69l-.55.86c-.4-.32-.85-.55-1.31-.55-.53 0-.85.17-.85.56 0 .4.22.62 1.2 1C13.5 28 14 28.45 14 29.3v.02c0 1.03-.8 1.69-1.9 1.69a3.08 3.08 0 0 1-2.1-.84ZM15 30.16l.58-.73c.44.4.92.7 1.53.7.56 0 .89-.31.89-.75 0-.37-.16-.62-1.08-.95-1.1-.43-1.69-.83-1.69-1.77v-.02c0-.96.77-1.64 1.85-1.64.68 0 1.34.24 1.83.69l-.55.86c-.4-.32-.84-.55-1.3-.55-.53 0-.86.17-.86.56 0 .4.23.62 1.22 1C18.5 28 19 28.45 19 29.3v.02c0 1.03-.8 1.69-1.89 1.69a3.07 3.07 0 0 1-2.11-.84ZM20 28.05v-.08c0-1.73 1.03-2.97 2.5-2.97 1.48 0 2.5 1.23 2.5 2.95v.08c0 1.73-1.03 2.97-2.5 2.97-1.48 0-2.5-1.23-2.5-2.95Zm4-.02v-.06c0-1.24-.6-1.97-1.5-1.97s-1.5.71-1.5 1.97v.05c0 1.25.62 1.98 1.5 1.98.9 0 1.5-.71 1.5-1.97ZM26 28.03v-.05c0-1.77.99-2.98 2.34-2.98.73 0 1.21.3 1.64.72l-.52.85c-.31-.32-.65-.57-1.12-.57-.82 0-1.34.73-1.34 1.98V28c0 1.26.52 1.99 1.34 1.99.5 0 .82-.26 1.15-.6l.51.77c-.45.53-.99.83-1.7.83-1.34 0-2.3-1.19-2.3-2.97ZM31 25h1v6h-1v-6ZM35.05 25h.9L38 31h-.97l-.46-1.4H34.4l-.47 1.4H33l2.05-6Zm1.23 3.72-.8-2.4-.8 2.4h1.6ZM39.5 26H38v-1h4v1h-1.5v5h-1v-5ZM43 25h3v1h-2v1.5h2v1h-2V30h2v1h-3v-6ZM48 25h1.57c1.46 0 2.43 1.2 2.43 2.96v.07c0 1.75-.97 2.97-2.43 2.97H48v-6Zm1 1v4h.56c.94 0 1.44-.68 1.44-1.97v-.05c0-1.3-.5-1.98-1.44-1.98H49Z" fill="#002B49"/></svg>