<!-- by TradingView --><svg width="56" height="56" viewBox="0 0 56 56" xmlns="http://www.w3.org/2000/svg"><path fill="#F0F3FA" d="M0 0h56v56H0z"/><path d="m23.65 13.02 3.87 1.65c2.5 1.05 4.96 2.1 7.43 3.18.13.12.3.2.47.15-.02-.13-.14-.23-.27-.25l-1.97-1.5c-1.5-1.14-2.98-2.28-4.44-3.46a2.99 2.99 0 0 0-2.67-.72l-.77.14c-.71.13-1.42.26-2.12.53.12.13.3.23.47.28Zm7.53 5.8c.5.1.98.2 1.48.28l1.47.27c.09.1.18.1.29.1a.9.9 0 0 1 .13 0l.02.02c.12.07.21.13.36-.02l-.28-.12a1.07 1.07 0 0 1-.07-.04c-.07-.04-.13-.08-.23-.06l-.15-.09-.15-.09c-3.06-1.42-6.1-2.85-9.16-4.3l-2.94-1.38a.62.62 0 0 0-.62.03c-.97.47-1.92 1.02-2.82 1.67-.42.3-.85.66-1.22 1a3.28 3.28 0 0 1 .32.1l13.57 2.63Zm-17.2 2.63 4.32-.09 4.33-.08 6.38-.1 3.2-.05a22.64 22.64 0 0 0 1.82-.08c0-.05 0-.1.02-.15a5.17 5.17 0 0 1-.18-.05 2.61 2.61 0 0 0-.44-.1l-3.64-.83-3.64-.82c-3.1-.7-6.2-1.43-9.28-2.15a.56.56 0 0 0-.65.22 17.1 17.1 0 0 0-2.57 3.78c-.28.5-.28.5.32.5Zm-1.45 6.4 6.3-1.48 6.3-1.5 4.5-1.05 4.52-1.07c.03-.02.05-.02.08-.02l-.08.05c.2.05.4 0 .53-.15-.07-.07-.14-.06-.24-.03h-.01c-1-.03-1.98-.04-2.97-.04-1.16 0-2.31 0-3.47-.06-1.2-.05-2.42-.05-3.64-.05-1.22 0-2.43 0-3.64-.05-1.15-.05-2.3-.04-3.44-.04-1.27 0-2.54 0-3.8-.06-.27-.05-.52.13-.6.4-.5 1.53-.8 3.16-.87 4.78-.02.45.15.48.53.38Zm22.12-3.47-.3.1-7.83 3.68-12.87 6c-.35.18-.43 0-.53-.25A17.63 17.63 0 0 1 12 28.93c-.02-.26.13-.3.3-.33l.08-.02c2-.37 3.99-.77 5.98-1.17l2.76-.54 2.76-.54 5.06-.97h.01l5.08-.98a.86.86 0 0 1 .5-.1c.12-.08.25-.1.37-.08-.02.13-.11.15-.2.17h-.05Zm.75 1.38-2.5 1.9c-4.98 3.8-9.95 7.58-14.91 11.33l-.04.03c-.44.33-.67.5-.87.47-.21-.02-.4-.23-.8-.66l-.04-.04a19 19 0 0 1-2.4-3.4c-.2-.38-.12-.5.23-.65a1187.9 1187.9 0 0 0 14.68-6.27l6.33-2.71c.1-.05.22-.05.32 0Zm.87 1.35c.03.22-.12.32-.27.42L34.9 28.8v.01c-1.37 1.58-2.74 3.17-4.07 4.79-2.67 3.05-5.34 6.1-7.99 9.18a.49.49 0 0 1-.67.15 17.8 17.8 0 0 1-3.92-2.23c-.29-.22-.43-.33-.43-.44 0-.11.15-.22.43-.43l4.64-3.28 4.64-3.28 4.1-2.91 4.08-2.92c.05-.02.1-.05.15-.05.1-.12.23-.22.4-.27Zm1.39 1c-.07.22-.12.38-.29.47-.47 1.06-1.04 2.06-1.6 3.05l-.54.96a4208.9 4208.9 0 0 1-3.03 5.5l-3.04 5.5a.66.66 0 0 1-.64.4c-1.55 0-3.1-.2-4.62-.57h-.01c-.3-.07-.4-.1-.14-.4 2.9-3.1 5.79-6.23 8.68-9.36l2.18-2.36 2.19-2.37.45-.45a.83.83 0 0 1 .42-.4l-.01.04Zm1.46.8c-.03.2-.1.37-.2.52-.3.93-.58 1.87-.86 2.8-.35 1.15-.7 2.3-1.06 3.43l-1 3.25-1 3.24-.02.05c-.04.13-.08.25-.25.32-1.38.65-2.85 1.1-4.37 1.3-.07 0-.17 0-.25-.02l8.7-14.6.18-.32v-.01c.03-.1.06-.21.15-.19.13.05.05.15-.02.23Zm3.19.72.3 2.78c.02.35.05.7.12 1.03.2 1.05-.31 1.82-.83 2.6l-.34.53c-.1.15-.1.06-.11-.03l-.01-.07c-.03-.53.05-1.03.17-1.53l.57-5.3h.13Zm-6.97-16.18 2.3 2.17a2.43 2.43 0 0 0-2.3-2.17ZM43.5 31.4v-2.02c.82.57.46 1.2.15 1.74l-.15.28Zm-3.09-1.67c-1.32 3.9-2.64 7.84-3.96 11.82l.13-.04.14-.04c1.1-.7 2.12-1.53 3.02-2.5.17-.23.27-.5.27-.78l.08-1.15a872.57 872.57 0 0 0 .45-6.88c.1-.19.1-.37.08-.58v-.22a.44.44 0 0 0-.2.37Zm-4.21-13.1-6.06-4.34-.35-.2c.22-.05.47-.02.67.08.84.04 1.65.3 2.44.55l.23.07c.12.05.2.13.27.23.93 1.1 1.85 2.2 2.75 3.3.05.05.1.13.12.2l-.07.1Z" fill="#C4A636"/></svg>