<!-- by TradingView --><svg width="56" height="56" viewBox="0 0 56 56" xmlns="http://www.w3.org/2000/svg"><path fill="#F0F3FA" d="M0 0h56v56H0z"/><path fill-rule="evenodd" d="M20 43.01a17 17 0 1 1 16 0V29.6c0-.76-.29-1.49-.8-2.02L28 20l-7.2 7.57c-.51.53-.8 1.26-.8 2.02V43ZM42 28c0 3.27-1.12 6.28-3 8.66v-8.34c0-.79-.3-1.54-.86-2.1L28 16 17.86 26.22a3 3 0 0 0-.86 2.1v8.34A14 14 0 1 1 42 28Z" fill="url(#aaxyejzha)"/><path d="M21 31.54V43.5c.65.29 1.31.54 2 .75V27c-1.1 0-2 2.93-2 4.54Z" fill="url(#baxyejzha)"/><path d="M24 27.46v17.08a17 17 0 0 0 3 .46V23c-1.66 0-3 2.88-3 4.46Z" fill="url(#caxyejzha)"/><path d="M29 23v22a17 17 0 0 0 3-.46V27.46c0-1.58-1.34-4.46-3-4.46Z" fill="url(#daxyejzha)"/><path d="M33 27v17.27a16.9 16.9 0 0 0 2-.76V31.54c0-1.61-.9-4.54-2-4.54Z" fill="url(#eaxyejzha)"/><defs><linearGradient id="aaxyejzha" x1="28" y1="11" x2="28" y2="43.05" gradientUnits="userSpaceOnUse"><stop offset=".55" stop-color="#DFB75D"/><stop offset=".56" stop-color="#CFA44A"/></linearGradient><linearGradient id="baxyejzha" x1="28" y1="11" x2="28" y2="43.05" gradientUnits="userSpaceOnUse"><stop offset=".55" stop-color="#DFB75D"/><stop offset=".56" stop-color="#CFA44A"/></linearGradient><linearGradient id="caxyejzha" x1="28" y1="11" x2="28" y2="43.05" gradientUnits="userSpaceOnUse"><stop offset=".55" stop-color="#DFB75D"/><stop offset=".56" stop-color="#CFA44A"/></linearGradient><linearGradient id="daxyejzha" x1="28" y1="11" x2="28" y2="43.05" gradientUnits="userSpaceOnUse"><stop offset=".55" stop-color="#DFB75D"/><stop offset=".56" stop-color="#CFA44A"/></linearGradient><linearGradient id="eaxyejzha" x1="28" y1="11" x2="28" y2="43.05" gradientUnits="userSpaceOnUse"><stop offset=".55" stop-color="#DFB75D"/><stop offset=".56" stop-color="#CFA44A"/></linearGradient></defs></svg>