<!-- by TradingView --><svg width="56" height="56" viewBox="0 0 56 56" xmlns="http://www.w3.org/2000/svg"><path fill="#F0F3FA" d="M0 0h56v56H0z"/><circle cx="14" cy="16" r="2" fill="#2E3A76"/><circle cx="32.5" cy="16.5" r="2.5" fill="#2E3A76"/><circle cx="23.5" cy="39.5" r="2.5" fill="#2E3A76"/><circle cx="41" cy="17" r="3" fill="#2E3A76"/><circle cx="15" cy="39" r="3" fill="#2E3A76"/><circle cx="42" cy="40" r="2" fill="#2E3A76"/><circle cx="41" cy="28" r="3" fill="#2E3A76"/><path d="M27.03 17.39a3.39 3.39 0 0 1-3 3.36c-.44.1-1.92.49-3.73 2.58a4.81 4.81 0 0 0-1.24 4.05l1.27.14A3.39 3.39 0 0 1 26.89 29c0 .44.07 1.97 1.75 4.18a5.15 5.15 0 0 0 2.3 1.78c.25-.56.43-1.32.47-2.55.07-1.94-1.05-3.73-1.71-4.53a3.39 3.39 0 1 1 4.87.17c-.29.35-1.24 1.55-1.4 4.3-.1 1.67.44 2.78.98 3.47a3.39 3.39 0 1 1-5.28 2.36l-.02-.33c-.05-.88-.1-1.75-1.5-3.5-1.22-1.5-3.24-2.12-4.26-2.3L22.8 32a3.39 3.39 0 0 1-2.62-2.64l-1.3-.19a3.39 3.39 0 1 1-3.44-4.58l.32-.1c.86-.22 1.7-.44 3.1-2.18 1.23-1.5 1.43-3.6 1.4-4.65-.02-.09-.02-.18-.02-.27a3.39 3.39 0 0 1 6.78 0Z" fill="#299AD6"/></svg>