<!-- by TradingView --><svg width="56" height="56" viewBox="0 0 56 56" xmlns="http://www.w3.org/2000/svg"><path fill="#F0F3FA" d="M0 0h56v56H0z"/><path d="M31.5 29a4 4 0 1 1-8 0 4 4 0 0 1 8 0ZM32.84 24.42 35.74 9l-7.38 10.71 4.48 4.7ZM43 35.73l-6.37-6.44-4.87 4.6L43 35.72ZM22.3 33l-2.38 14 7.15-9-4.76-5ZM22.93 23.6 12 21.66l6.31 6.28 4.62-4.36Z" fill="#114870"/><path d="m36.64 28.41 2.26-2.12-4.96-.71 2.7 2.83ZM27.27 19.5l-4.09-4.28.85 7.34 3.24-3.05ZM27.7 37.7l4.34 4.4-1.06-7.49-3.27 3.08ZM18.37 28.85l-2.16 2.4 4.8.38-2.64-2.78Z" fill="#D8AD1D"/><path d="m36.16 28.85-3.1-3.27-.97 7.1 4.07-3.83ZM24.23 23.25l7.4.84-3.91-4.12-3.49 3.28ZM21.9 31.63l1-7.13-4.1 3.87 3.1 3.26ZM30.39 34.29l-6.98-1.07 3.83 4.03 3.15-2.96Z" fill="#E9D635"/></svg>