<!-- by TradingView --><svg width="56" height="56" viewBox="0 0 56 56" xmlns="http://www.w3.org/2000/svg"><path fill="#F0F3FA" d="M0 0h56v56H0z"/><path d="M42.94 29.32 44.18 31h1.32l-3.68-5H40.5l1.83 2.48-1.8 2.52h1.29l1.12-1.68ZM43.64 26.8l.66.83L45.47 26h-1.3l-.53.8Z" fill="#494E76"/><path d="M42.94 29.32 41.82 31h-1.3l1.8-2.52L40.5 26h1.32l1.68 2.3-.56 1.02Z" fill="#14B0A5"/><path d="M31 26h-1v5h1v-3.5l3 3.5h1v-.5L31 26ZM35 26h-1v3h1v-3ZM40 26h-4v5h4v-1h-3v-1h3v-1h-3v-1h3v-1ZM50 26h-4v1h1.5v4h1v-4H50v-1Z" fill="#494E76"/><path d="M15 26h-4v5h1v-2h2.5v-1H12v-1h3v-1ZM15.5 27v-1h4v1H18v4h-1v-4h-1.5ZM24 26h-4v5h4v-1h-3v-1h3v-1h-3v-1h3v-1Z" fill="#0DBBA0"/><path fill-rule="evenodd" d="M25 26v5h1v-2h1.23l1.34 2h1.2l-1.46-2.18.19-.13c.34-.27.5-.68.5-1.19 0-.56-.25-.96-.58-1.2-.31-.23-.67-.3-.92-.3H25Zm1 1v1h1.5c.2 0 .31-.04.38-.09.04-.03.12-.12.12-.41 0-.24-.09-.34-.17-.4a.62.62 0 0 0-.33-.1H26ZM9.6 27.5H8.5L9 26H8l-2 5h1l.43-1h2.14l.43 1h1l-1.4-3.5Zm-1.1 0L7.86 29h1.28l-.64-1.5Z" fill="#0DBBA0"/><path fill="#14B0A5" d="M41 32h9v1h-9z"/></svg>