<!-- by TradingView --><svg xmlns="http://www.w3.org/2000/svg" width="56" height="56" viewBox="0 0 56 56"><path fill="#F0F3FA" d="M0 0h56v56H0z"/><path d="M9.87 23.97 4 33h2.61l4.7-7.15L13 28.5h-2.63l-1.44 2h5.37L16 33h2.53l-5.79-9.16c-.4-.53-.76-.83-1.42-.84-.66-.01-1.1.49-1.44.97ZM36.6 24H30v9H35.44l1.63-2H32v-1.5h4.5v-2H32V26h6.24l-1.63-2ZM22.5 26a2.5 2.5 0 0 0 0 5H27v-1h-4v-2h6v5h-6.5a4.5 4.5 0 1 1 0-9H28v2h-5.5Z" fill="#00457C"/><path d="M38.5 21H35v1h.15c.8 0 1.37.28 1.54.47l4.47 5.46-4.71 5.53c-.54.6-1.01.9-1.3.9h-.67V35h3.89l4.87-5.85L48.11 35H52v-.64h-.54c-.68-.08-1.38-.76-1.65-1.09l-4.47-5.34 4.11-5.13c.61-.76 1.4-.8 1.72-.8h.47v-1H48l-4.76 5.8L38.5 21Z" fill="#0068B3"/><path d="M47.26 21h-8.04l.83 1h6.41l.8-1ZM47.26 35h-8.04l.86-1h6.37l.81 1Z" fill="#00457C"/><path d="M45.44 23H41l.8 1h2.82l.8-1ZM45.44 33H41l.87-1h2.73l.83 1Z" fill="#0068B3"/><path d="M43.9 25h-1.35l.62.77h.13l.6-.77ZM43.9 31h-1.35l.62-.77h.13l.6.77Z" fill="#418DC5"/></svg>