<!-- by TradingView --><svg xmlns="http://www.w3.org/2000/svg" width="56" height="56" viewBox="0 0 56 56"><path fill="#F0F3FA" d="M0 0h56v56H0z"/><path d="M23.4 32.89c.8.4 1.76.51 2.64.51 1.15 0 2.35-.51 2.76-1.44.18-.39.27-.62.27-1.25v-.2c-.27.3-.62.6-1.12.86-.47.3-1.02.43-1.7.43a4.21 4.21 0 0 1-3.05-1.17c-.38-.4-.67-.85-.88-1.4a4.9 4.9 0 0 1 .03-3.55 4.23 4.23 0 0 1 2.38-2.35 4.6 4.6 0 0 1 1.84-.33c.65 0 1.2.09 1.76.3.53.18 1 .48 1.4.87.42.4.71.9.95 1.51.23.6.32 1.33.32 2.17v2.44A4.52 4.52 0 0 1 26.25 35c-1.04 0-2.47 0-3.34-.6l.5-1.51Zm3.11-2.72c1.49 0 2.49-1.29 2.49-2.71 0-1.43-1.02-2.74-2.49-2.74-1.48 0-2.51 1.27-2.51 2.74 0 1.5.97 2.71 2.51 2.71ZM32.03 20.86c0-.29.1-.52.28-.66.18-.14.46-.2.77-.2a3.17 3.17 0 0 1 .92.2V32h-2V20.86h.03ZM42.68 31.13c-.09.06-.23.15-.4.24-.18.09-.41.21-.7.3s-.6.18-.96.24c-.37.06-.78.09-1.21.09a4.57 4.57 0 0 1-3.1-1.17c-.41-.39-.73-.84-.96-1.38a4.76 4.76 0 0 1-.35-1.89 4.82 4.82 0 0 1 1.28-3.3c.4-.39.86-.72 1.42-.93a4.89 4.89 0 0 1 3.27-.09c.44.15.81.36 1.1.6.3.24.52.54.7.9.14.33.23.69.23 1.08 0 .39-.06.75-.2 1.08-.15.33-.4.6-.76.84-.34.24-.84.42-1.45.54-.6.12-1.39.21-2.31.21-.4 0-.82.03-1.22-.03.2 1.38 1.47 1.95 2.75 1.95.82 0 1.49-.23 2.2-.6l.67 1.32ZM37 27.14c.94 0 1.86.12 2.78-.12.68-.16 1.22-.54 1.22-1.2 0-.93-.8-1.29-1.6-1.29-1.41 0-2.4 1.19-2.4 2.61ZM52 31.7l-.53.09a26.74 26.74 0 0 1-1.96.18c-.41.03-.83.03-1.24.03-.86 0-1.6-.09-2.14-.24a3.8 3.8 0 0 1-1.3-.6 1.83 1.83 0 0 1-.65-.87 3.25 3.25 0 0 1 .03-2.25c.15-.36.35-.66.68-.87a4 4 0 0 1 1.24-.54c.5-.12 1.16-.18 1.87-.18.41 0 .83 0 1.21.03.39.03.58.06.79.09 0-.65-.08-1.22-.67-1.59-.23-.15-.5-.24-.8-.3a5.57 5.57 0 0 0-1.03-.09 4.34 4.34 0 0 0-2.31.57 1.94 1.94 0 0 1-.27-.33.93.93 0 0 1-.18-.57c0-.15.03-.3.12-.48.09-.15.24-.3.44-.42.21-.12.5-.21.86-.27a8.37 8.37 0 0 1 3.17.12c.54.12 1.01.33 1.4.63.38.27.7.66.91 1.11.21.45.36 1.02.36 1.68v5.07Zm-2-3.78c-.62-.16-1.27-.15-1.91-.15-1 0-2.09.25-2.09 1.47 0 1.24 1.37 1.35 2.3 1.35.54 0 1.18.03 1.7-.15v-2.52Z" fill="#6F7C7D"/><path d="M19.67 29.95c-.6.26-1.2.45-1.87.45-1.28 0-2.43-.57-2.7-1.9h1c1.51-.05 4.85.25 4.85-2.64v-.21c-.83 1.41-3.45 1.47-4.61 1.5-.49 0-.82 0-1.33-.03 0-1.4 1.05-2.62 2.47-2.62.49 0 .88.13 1.22.34.34.2.49.54.49.96 0 .18-.09.57-.09.57s1.36-.45 1.36-1.62c0-.52-.85-1.75-2.92-1.75a4.47 4.47 0 0 0-4.47 3.93c-2.21-.2-4.39-.47-5.78-.47-.7 0-1.3.06-1.79.18-.48.12-1.47.48-1.47 1.39 0 1.02 1.2 1.56 1.2 1.56s-.18-.9.56-1.41c.34-.24.85-.36 1.59-.36 1.62 0 3.22.42 5.7.57.3 2.12 2.33 3.61 4.43 3.61.9 0 2.05-.1 2.81-.63l.4-.24-.68-1.36-.37.18Z" fill="#97D800"/><path d="M5.2 25.17a4.34 4.34 0 0 1 2.31-.57c.4 0 .75.03 1.05.09.33.06.6.15.8.3.48.3.58.7.64 1.23l2 .18a3.69 3.69 0 0 0-.33-1.44 2.8 2.8 0 0 0-.92-1.12 4.6 4.6 0 0 0-1.39-.63 8.3 8.3 0 0 0-3.17-.12c-.36.06-.66.15-.86.27-.21.12-.36.27-.45.42a.96.96 0 0 0-.12.48c0 .24.06.43.18.58.12.15.2.27.27.33ZM10 28.57v1.9l-.55.09c-.3.06-.7.06-1.23.06-3.75 0-4.22-1.36-4.22-1.36 0 .36.06.7.18 1.02.11.34.32.64.64.88s.73.45 1.29.6c.56.15 1.26.24 2.11.24.44 0 .85 0 1.23-.03a53.9 53.9 0 0 0 1.94-.18c.23-.03.5-.06.61-.1v-3l-2-.12Z" fill="#6F7C7D"/></svg>