<!-- by TradingView --><svg xmlns="http://www.w3.org/2000/svg" width="56" height="56" viewBox="0 0 56 56"><path fill="url(#a5fksmdiv)" d="M0 0h56v56H0z"/><path d="M23 21h2v7.05L29.26 24h2.99l-3.73 3.56L33 33h-2.79l-3.23-3.95L25 30.89V33h-2V21ZM12.73 31.3c.48 0 1.75-.23 2.27-1.15V29H13.57c-1.2 0-2.57.12-2.57 1.26 0 .83.82 1.05 1.73 1.04ZM9.3 25.06A7.83 7.83 0 0 1 12.94 24c2.08 0 4.06.92 4.06 3.1V33h-2v-.84c-.72.65-1.74.84-2.74.84C10.72 33 9 32 9 30.26c0-2.61 2.36-2.86 4.5-2.86H15c0-1.33-1.3-1.7-2.08-1.7-1.06 0-1.68.3-2.44.65l-.48.22-.7-1.51Zm31.43 6.24c.48 0 1.75-.23 2.27-1.15V29H41.57c-1.2 0-2.57.12-2.57 1.26 0 .83.82 1.05 1.73 1.04Zm-3.43-6.24A7.83 7.83 0 0 1 40.94 24c2.08 0 4.06.92 4.06 3.1V33h-2v-.84c-.72.65-1.74.84-2.74.84-1.54 0-3.26-1-3.26-2.74 0-2.61 2.36-2.86 4.5-2.86H43c0-1.33-1.3-1.7-2.08-1.7-1.06 0-1.68.3-2.44.65l-.48.22-.7-1.51ZM19.5 33a1.5 1.5 0 1 0 0-3 1.5 1.5 0 0 0 0 3ZM36 31.5a1.5 1.5 0 1 1-3 0 1.5 1.5 0 0 1 3 0ZM47.5 33a1.5 1.5 0 1 0 0-3 1.5 1.5 0 0 0 0 3Z" fill="#fff"/><defs><linearGradient id="a5fksmdiv" x1="10.42" y1="9.71" x2="68.15" y2="76.02" gradientUnits="userSpaceOnUse"><stop stop-color="#1A1E21"/><stop offset="1" stop-color="#06060A"/></linearGradient></defs></svg>