<!-- by TradingView --><svg xmlns="http://www.w3.org/2000/svg" width="56" height="56" viewBox="0 0 56 56"><path fill="#0F8740" d="M0 0h56v56H0z"/><path d="M40.7 29.58l-5.46-11.91A7.86 7.86 0 0 0 28 13a7.86 7.86 0 0 0-7.24 4.67L11 39h2.73c.52 0 1-.3 1.2-.78l8.79-19.18a4.62 4.62 0 0 1 4.56-2.76c1.75.1 3.3 1.21 4.03 2.82l2.76 6.03a7.86 7.86 0 0 0-8.82 4.5l-4.29 9.37h2.74c.51 0 .98-.3 1.2-.78l3.26-7.12a4.8 4.8 0 0 1 4.3-2.85c1.88 0 3.47 1 4.27 2.7l3.33 7.27a1.33 1.33 0 0 0 1.2.78H45l-4.28-9.36-.03-.06z" fill="#fff"/></svg>