<!-- by TradingView --><svg width="56" height="56" viewBox="0 0 56 56" xmlns="http://www.w3.org/2000/svg"><path fill="#870B33" d="M0 0h56v56H0z"/><path fill-rule="evenodd" d="M11.12 22 5 34h2.45l.95-2h5.23l.87 2H17l-5.88-12Zm1.63 8h-3.4l1.77-3.72L12.75 30ZM18 22v12h2v-5.46L24.15 34H27l-3.32-4.78c.72-.34 2.32-1.47 2.32-3.31 0-3.07-2.73-3.89-4.02-3.91H18Zm2 2v4h1.88c1.17 0 2.12-.9 2.12-2s-.95-2-2.12-2H20Zm9 10h4.56A3.4 3.4 0 0 0 37 30.37c-.04-.9-.56-2.77-2.32-3.1.3-.18.88-.92.88-2.44 0-1.9-2.04-2.83-3.91-2.83H29v12Zm2-10h.96c.85 0 1.54.67 1.54 1.5s-.69 1.5-1.54 1.5H31v-3Zm0 5h2.44c.86 0 1.56.67 1.56 1.5s-.7 1.5-1.56 1.5H31v-3Zm19-1a6 6 0 1 1-1.9-4.39l-1.17 1.66A3.99 3.99 0 0 0 40 28a4 4 0 0 0 7.87 1H44v-2h5.92c.05.33.08.66.08 1Z" fill="#fff"/></svg>