<!-- by TradingView --><svg xmlns="http://www.w3.org/2000/svg" width="56" height="56" viewBox="0 0 56 56"><path fill="#F0F3FA" d="M0 0h56v56H0z"/><path d="m7.5 30 .47 1h.66l-1.96-4h-.7L4 31h.65l.47-1H7.5Zm-.21-.49H5.33l.98-2.03.98 2.03ZM17.76 31v-4h.58v4h-.58Zm1.65-4v.59h.6V27h-.6Zm0 1v3H20v-3h-.58Zm6.7 0c-.87 0-1.66.57-1.66 1.49 0 .43.15.8.47 1.1.32.28.7.42 1.15.41.33 0 .6-.07.85-.2.24-.15.4-.32.5-.52l.05.72H28v-4h-.58v1.72a1.1 1.1 0 0 0-.5-.5 1.57 1.57 0 0 0-.8-.22Zm.98.74c.22.2.33.44.33.76a1 1 0 0 1-.33.76c-.21.2-.5.3-.85.3s-.64-.1-.86-.29a1 1 0 0 1-.32-.78c0-.67.56-1.05 1.2-1.05.32 0 .6.1.83.3Zm3.7.43V27h.63v2.15c0 .42.11.75.35.98.24.23.58.34 1.02.34.44 0 .77-.11 1.01-.35.24-.23.37-.55.37-.97V27h.59v2.17c0 .59-.17 1.04-.52 1.36-.34.31-.83.47-1.46.47-.64 0-1.13-.16-1.48-.47a1.76 1.76 0 0 1-.51-1.36Zm6.3 1.83-1.89-4h.7l1.56 3.41L39.02 27h.67l-1.89 4h-.71Zm2.73.53-.05-.19c.13-.04.22-.08.27-.14a.33.33 0 0 0 .06-.24h-.01c-.39 0-.31-.53.07-.53.13 0 .24.07.3.18.12.22.05.57-.13.73a.85.85 0 0 1-.5.19ZM43.4 27v4H44v-4h-.6ZM45 28v3h.58v-1.29c0-.38.11-.68.34-.9.22-.21.5-.32.82-.32.3 0 .54.1.7.3.16.2.24.47.24.84V31h.57v-1.4c0-.53-.1-.93-.31-1.2-.21-.27-.55-.4-1-.4-.31 0-.59.08-.84.23a1.3 1.3 0 0 0-.53.6V28H45Zm3.8 1.5c0-.42.14-.78.44-1.07.3-.3.68-.43 1.13-.43.74 0 1.22.32 1.43.96l-.48.07c-.14-.4-.45-.6-.94-.6-.31 0-.57.1-.76.3-.19.18-.28.44-.28.77 0 .32.1.57.29.77.2.2.46.3.78.3.23 0 .43-.06.58-.16.16-.1.27-.24.33-.43l.48.07c-.1.3-.26.52-.5.7-.25.17-.54.25-.9.25-.47 0-.85-.14-1.15-.41a1.4 1.4 0 0 1-.45-1.08Zm-28.08.03c0-.47.15-.84.46-1.12.3-.27.72-.41 1.24-.41.47 0 .85.15 1.15.44.3.29.45.65.45 1.09v.12h-2.75c.02.28.14.5.36.68.22.17.5.25.85.25.23 0 .44-.04.62-.12.18-.09.32-.2.4-.34l.42.16c-.27.49-.75.72-1.44.72-.52 0-.94-.12-1.27-.39a1.33 1.33 0 0 1-.49-1.08Zm.56-.28h2.18a.89.89 0 0 0-.32-.6 1.12 1.12 0 0 0-.74-.23c-.32 0-.57.08-.76.22a.92.92 0 0 0-.36.61ZM9.25 32v-4h.58v.75c.23-.5.81-.75 1.34-.75.87-.01 1.65.66 1.63 1.55 0 .9-.83 1.45-1.66 1.45-.5 0-1.1-.23-1.3-.72V32h-.6Zm2.94-2.45c0-.69-.53-1.1-1.19-1.1-.53 0-1.06.32-1.15.88-.1.6.43 1.23 1.15 1.23.59 0 1.19-.37 1.19-1.01ZM13.42 28v4H14v-1.72c.2.49.84.72 1.34.72.83 0 1.66-.56 1.66-1.45.01-.9-.76-1.56-1.63-1.55-.53 0-1.14.25-1.38.75V28h-.57Zm1.78.45c.66 0 1.19.41 1.19 1.1 0 .64-.6 1.01-1.19 1.01-.72 0-1.25-.62-1.15-1.23.08-.56.62-.88 1.15-.88Z"/></svg>