<!-- by TradingView --><svg width="56" height="56" viewBox="0 0 56 56" xmlns="http://www.w3.org/2000/svg"><path fill="#F0F3FA" d="M0 0h56v56H0z"/><path d="m9.85 27 .15-.53c.15 0 .51-.08.73-.5l2.22-6.9c.04-.2 0-.59-.52-.56l.1-.51h1.66l2.6 7.62c.1.28.4.85.85.85l-.18.53h-2.49l.18-.53c.28-.03.8-.23.57-.85l-.65-1.93h-2.94l-.6 1.93c-.1.28-.13.85.46.85l-.16.53H9.85Zm2.5-4h2.49l-1.29-3.82-1.2 3.82ZM22.68 25.33l-.26-.48c-.55.85-1.05 1.34-1.78 1.36-.73.02-1.6-.57-1.63-2.6-.04-2.04.58-3.01 1.47-3.1.89-.07 1.2.83.89.99a.42.42 0 0 0-.23.46c.66.46 1.28.05 1.28-.46 0-.52-.45-1.54-1.78-1.5-1.33.04-2.66 1.19-2.6 3.6.08 2.42.98 3.44 2.44 3.4 1.17-.03 1.96-1.13 2.2-1.67ZM23.43 18.48l-.14.46c.6 0 .7.34.71.51v6.34c.04.59-.34.7-.57.7l-.23.51h2.43l.2-.51c-.68 0-.84-.35-.83-.52v-3.56c.3-.4 1.39-1.18 2.11-1.2.73-.01.9.52.89.8V27h1.62l.21-.51c-.66.08-.81-.43-.83-.7V21.9c.04-.49-.2-1.46-1.28-1.43-1.08.03-2.37.8-2.72 1.18V18h-.43l-1.14.48ZM18.37 30.52l-.14.49c.6 0 .76.37.77.55v4.14c.04.63-.4.76-.63.75l-.23.55h2.43l.2-.55c-.69 0-.78-.37-.77-.55v-3.83c.3-.42 1.4-1.26 2.13-1.28.73-.01.89.56.87.85V37h1.64l.21-.55c-.67.1-.83-.46-.85-.75v-4.16c.04-.52-.18-1.57-1.26-1.54A4.73 4.73 0 0 0 20 31.27V30h-.5l-1.13.52ZM34.64 36.49l.14-.5c-.6 0-.77-.36-.78-.55V31.3c-.04-.63.41-.76.64-.74l.23-.56h-2.44l-.2.56c.69 0 .78.36.77.55v3.82c-.3.42-1.4 1.27-2.13 1.28-.72.02-.88-.56-.87-.85V30h-1.63l-.22.56c.67-.1.84.46.85.74v4.16c-.04.53.19 1.57 1.27 1.54A4.73 4.73 0 0 0 33 35.74V37h.5l1.14-.51Z" fill="#B64B1E"/><path fill-rule="evenodd" d="m35.75 25.8.28.34c-.58.72-1.8 1.65-2.09-.34-.27.4-1.06 1.2-1.99 1.17-1.17-.03-1.84-.84-1.91-1.9-.08-1.04 1.13-1.86 2.33-2.3 1.2-.43 1.72-.8 1.69-1.31-.03-.51-.25-.92-1.18-.87-.93.04-1.54.48-1.47.76.02.07.09.15.15.23.2.25.43.51-.55.66-.4 0-1.06-.19-.52-1.05A4.21 4.21 0 0 1 33.43 20c.53 0 1.6.24 1.57 1.19v4.26c-.02.36.1.93.75.35ZM34 22.6v1.36c0 .66-.36 2.03-1.63 2.23-.42 0-1.37-.27-1.37-1.27 0-1.25 2.1-2.08 3-2.32Z" fill="#B64B1E"/><path d="m36.26 20.66-.1.43c.64-.09.81.4.84.65v4.1c0 .48-.48.68-.74.72l-.1.44h2.94l.21-.52h-.7c-.44.01-.6-.42-.61-.64v-3.35c.26-.96 1.03-1.56 1.42-1.57.4-.02-.37.75.38.73.6-.01.85-.38.9-.56.08-.38.04-1.13-.79-1.09-.83.04-1.62.88-1.91 1.3v-1.2h-.44l-1.3.56ZM35.26 30.66l-.1.43c.64-.09.81.4.84.65v4.1c0 .48-.48.68-.74.72l-.1.44h2.94l.21-.52h-.7c-.44.01-.6-.42-.61-.64v-3.35c.26-.96 1.03-1.56 1.42-1.57.4-.02-.37.75.38.73.6-.01.85-.38.9-.56.08-.38.04-1.13-.79-1.09-.83.04-1.62.88-1.91 1.3v-1.2h-.44l-1.3.56ZM41.3 20.99l-.13.4c.58 0 .8.36.83.53v4.09c0 .4-.48.53-.7.54l-.13.45h2.4l.18-.45h-.33c-.4-.03-.42-.45-.42-.66v-5.45h-.53l-1.17.55ZM43 18v1.25l-1 .41v-1.24l1-.42ZM7.63 28H5.14l-.14.55c.43 0 .76.49.87.74L8.5 37h.71l2.65-7.95c.1-.47.53-.53.73-.5l.14-.55H10.8l-.18.55c.51 0 .56.49.51.74l-2.06 6.19-2.11-6.04c-.22-.7.27-.89.55-.9l.12-.54Z" fill="#B64B1E"/><path fill-rule="evenodd" d="m16.98 34.85.41.47c-.25.54-1.08 1.63-2.33 1.68-1.56.06-2.68-1.06-2.65-3.6.04-2.53 1.51-3.43 2.65-3.4 1.14.04 2.15 1.36 1.92 3.17h-3.6c-.08.99.15 2.99 1.68 3.1.4-.03 1.33-.33 1.92-1.42Zm-3.57-2.2c.02-.69.35-2.08 1.46-2.12 1.1-.05 1.29 1.17 1.24 1.8-.07.1-.33.32-.82.32h-1.88ZM44.57 34.85l.4.47c-.25.54-1.07 1.63-2.32 1.68-1.56.06-2.68-1.07-2.65-3.6.04-2.53 1.51-3.44 2.65-3.4 1.14.04 2.15 1.35 1.92 3.17h-3.6c-.09.99.14 2.99 1.68 3.1.4-.03 1.32-.34 1.92-1.42ZM41 32.65c.02-.69.34-2.08 1.45-2.13 1.11-.04 1.3 1.18 1.25 1.8-.07.11-.34.33-.82.33H41Z" fill="#B64B1E"/><path d="m25.4 29.97-.25.6H26v5.08c.05 1.54 1.27 1.45 1.91 1.22l.2-.73c-.92.57-1.1-.09-1.11-.49v-5.07h.91l.2-.58H27v-1.61h-.52a5 5 0 0 1-1.07 1.58ZM49.63 32.18v-2.01c-.76.25-.67-.2-1.92-.17-1.24.03-2.11.91-2.11 1.8 0 .87.2 1.25 1.04 1.7.84.47 2.43.3 2.44 1.6.02 1.05-.9 1.4-1.37 1.44-1.31-.04-1.7-1.25-1.74-1.85l-.46-.24v2.44c.72-.46.97.14 2.2.1 1.23-.02 2.26-.8 2.29-2.1.03-1.3-.83-1.67-1.96-1.92s-1.54-.79-1.56-1.18c-.01-.39.1-1.34 1.35-1.3 1 .04 1.3.98 1.34 1.45l.46.24Z" fill="#B64B1E"/></svg>