<!-- by TradingView --><svg width="56" height="56" viewBox="0 0 56 56" xmlns="http://www.w3.org/2000/svg"><path fill="#F0F3FA" d="M0 0h56v56H0z"/><path d="M15 21.48V13l12 6.29L19.36 24 15 21.48Z" fill="#1E75AA"/><path d="M41 21.38V13l-12 6.29L36.64 24 41 21.38Z" fill="#E77F26"/><path d="M26.92 35.5 15 43V28l11.92 7.5Z" fill="#1C76AB"/><path d="M29.08 35.5 41 43V28l-11.92 7.5Z" fill="#2596CE"/><path d="M16 27.5 27 34V21l-11 6.5Z" fill="url(#aqvmtfy2d)"/><path d="M40 27.5 29 34V21l11 6.5Z" fill="url(#bqvmtfy2d)"/><defs><linearGradient id="aqvmtfy2d" x1="21.5" y1="21" x2="21.5" y2="34" gradientUnits="userSpaceOnUse"><stop offset=".39" stop-color="#2674AA"/><stop offset="1" stop-color="#C3D6E1"/></linearGradient><linearGradient id="bqvmtfy2d" x1="34.5" y1="21" x2="34.5" y2="34" gradientUnits="userSpaceOnUse"><stop offset=".39" stop-color="#2674AA"/><stop offset="1" stop-color="#C3D6E1"/></linearGradient></defs></svg>