<!-- by TradingView --><svg xmlns="http://www.w3.org/2000/svg" width="56" height="56" viewBox="0 0 56 56"><path fill="#F0F3FA" d="M0 0h56v56H0z"/><path d="M6 32v-8h2.76c1.9 0 2.92.84 2.92 2.24a1.7 1.7 0 0 1-1.13 1.65c.8.2 1.3.9 1.3 1.71 0 1.5-1 2.39-2.79 2.4H6zm1.62-3.5v2.21h1.4c.77 0 1.21-.5 1.21-1.12 0-.71-.37-1.08-1.12-1.09H7.62zm0-1.13h1.2c.82-.02 1.23-.34 1.23-.97 0-.7-.4-1.1-1.3-1.1H7.63v2.07zM14.64 32H13v-8h1.64v8zM22.65 28.18c0 .76-.14 1.43-.41 2.01A3.07 3.07 0 0 1 19.37 32a3.1 3.1 0 0 1-2.94-1.8 4.54 4.54 0 0 1-.43-1.98v-.39c0-.76.14-1.44.42-2.02A3.1 3.1 0 0 1 19.36 24c.65 0 1.17.16 1.68.47.51.31.91.76 1.19 1.34.28.58.42 1.26.42 2.02v.35zM21 27.82c0-.81-.14-1.43-.44-1.86-.3-.42-.66-.63-1.2-.63-.55 0-.97.2-1.27.63a3.2 3.2 0 0 0-.44 1.84v.38c0 .8.14 1.4.44 1.85.3.44.72.65 1.28.65.54 0 .9-.2 1.2-.63.28-.42.43-1.04.43-1.85v-.38zM25.62 29v3H24v-8h3.07c.6 0 1.11.1 1.56.32.45.21.8.52 1.04.92.24.39.33.83.33 1.34 0 .76-.23 1.32-.76 1.76-.53.44-1.26.66-2.2.66h-1.42zm0-1.3h1.45c.43 0 .76-.1.98-.3a1 1 0 0 0 .34-.81c0-.38-.11-.7-.34-.93a1.28 1.28 0 0 0-.94-.36h-1.49v2.4zM32.62 30.71H36V32h-5v-8h1.62v6.71zM43 24v5.24c0 .85-.23 1.52-.77 2.02s-1.27.74-2.2.74c-.93 0-1.66-.24-2.2-.72a2.57 2.57 0 0 1-.83-1.99V24h1.63v5.25c0 .5.12.88.36 1.11.25.24.6.35 1.03.35.91 0 1.38-.47 1.4-1.42V24H43zM48.37 29.85c0-.3-.1-.53-.32-.7-.22-.16-.6-.33-1.17-.5-.56-.19-1.01-.37-1.34-.54-.9-.48-1.34-1.12-1.34-1.93 0-.42.12-.8.36-1.13.24-.33.58-.59 1.03-.77.45-.19.96-.28 1.52-.28s1.06.1 1.5.3c.44.2.78.49 1.02.86.25.36.37.78.37 1.25h-1.62c0-.36-.12-.64-.34-.83a1.4 1.4 0 0 0-.96-.3c-.4 0-.7.08-.93.25a.77.77 0 0 0-.33.65c0 .25.13.47.39.64.26.17.64.33 1.14.48.92.27 1.6.61 2.02 1.02.42.4.63.91.63 1.52 0 .67-.26 1.2-.77 1.59-.52.38-1.21.57-2.09.57-.6 0-1.15-.1-1.65-.33-.5-.22-.88-.52-1.14-.9a2.3 2.3 0 0 1-.4-1.33h1.63c0 .86.52 1.3 1.56 1.3.39 0 .69-.08.9-.24a.76.76 0 0 0 .33-.65z"/></svg>