<!-- by TradingView --><svg xmlns="http://www.w3.org/2000/svg" width="56" height="56" viewBox="0 0 56 56"><path fill="#F0F3FA" d="M0 0h56v56H0z"/><path d="M9 23a2 2 0 1 1-4 0 2 2 0 0 1 4 0zm0 5a2 2 0 1 1-4 0 2 2 0 0 1 4 0zm-2 7a2 2 0 1 0 0-4 2 2 0 0 0 0 4zm7-7a2 2 0 1 1-4 0 2 2 0 0 1 4 0zm-2 7a2 2 0 1 0 0-4 2 2 0 0 0 0 4z" fill="url(#ak2d4ia5i)"/><path d="M16 22v9.34a4.7 4.7 0 0 0 2.45.66c1.47-.02 3.14-1.06 3.14-2.9 0-2.8-2.02-3.25-2.78-3.29a2.4 2.4 0 0 0-1.81.73V22h-1zm1 5.31c.12-.17.8-.51 1.39-.51.74 0 2.27.43 2.27 2.1 0 1.5-1.41 2.1-2.27 2.1-.26 0-.95-.02-1.39-.48v-3.2zM23 22h1v10h-1zM25 30.16V26h1v3.9c0 .4.35 1.46 1.43 1.36A2.07 2.07 0 0 0 29 30.25V26h1v4.43c.06.8.69.88 1 .83l-.3.73c-1.14.11-1.53-.57-1.59-.92-.69.76-1.64.94-2.04.93-1.74-.06-2.07-1.21-2.07-1.84zM36.41 31.08a3 3 0 0 1-2.28.92C32.4 32 31 31.08 31 28.96c0-2.1 1.7-3 3.04-2.96 1.27.04 2.37.85 2.37 2.26l-.48.74h-3.96c.04.73.52 2.08 2.16 2.13.48.02 1.28-.14 1.8-.6l.48.55zm-.86-2.81c-.06-.51-.47-1.58-1.62-1.58-1.56 0-1.9 1.45-1.9 1.58h3.52z" fill="#58585A"/><circle cx="38.51" cy="23.71" r=".71" fill="#1099AA"/><path d="M39 32.65V26h-1v6.65c0 1.24-1.27 1.5-1.84 1.43L36 35c2.54.08 3-1.44 3-2.35z" fill="#58585A"/><path fill-rule="evenodd" d="M40.96 26.59c.33-.2 1.23-.59 2.17-.59 1.17 0 1.82.61 1.87 1.63v2.98c.01.27.2.78.95.7l-.2.67c-.4.06-1.27 0-1.63-.76-.21.25-.83.76-1.64.76-1.02 0-1.78-.54-1.85-1.6-.07-1.07.81-2 3.37-2.1.03-.49-.04-1.46-1.06-1.5a2.7 2.7 0 0 0-1.98.72v-.91zm3.04 2.3v1.87c-.75.42-2.28.77-2.4-.42-.11-1.27 1.9-1.45 2.4-1.45z" fill="#58585A"/><path d="M47.37 26l-.97.36 2.28 5.62-.86 1.63c-.34.61-1.2.58-1.62.49l-.2.74c1.58.55 2.5-.43 2.75-1L52 26.36l-.92-.36-1.85 4.68L47.37 26z" fill="#58585A"/><defs><linearGradient id="ak2d4ia5i" x1="5.35" y1="21" x2="13.96" y2="34.75" gradientUnits="userSpaceOnUse"><stop stop-color="#00809B"/><stop offset="1" stop-color="#BDE3C7"/></linearGradient></defs></svg>