<!-- by TradingView --><svg width="56" height="56" viewBox="0 0 56 56" xmlns="http://www.w3.org/2000/svg"><path fill="#F0F3FA" d="M0 0h56v56H0z"/><path d="M11 19.89a2 2 0 0 0-1.01.64c-.81.89-1.11 2.1-1.84 3.06A3.5 3.5 0 0 1 5.42 25C4.8 25 4 24.75 4 24c0-.3.18-.65.51-.65.3 0 .48.2.48.5 0 .24-.15.44-.34.44.06.4.35.62.8.62 1.21 0 1.88-1.5 2.31-2.42.33-.69.71-1.35 1.33-1.83.22-.16.47-.31.74-.44.29-.13.62-.24 1-.34l-.01-.02c-.67-.04-1.17-.06-1.64-.06-.9 0-1.66.05-2.25.14-.9.14-2.85.56-2.85 1.71 0 .62.63.93 1.18.93.8 0 1.85-.55 1.85-1.45 0-.18-.04-.36-.13-.57l.05-.02c.1.18.15.4.15.64 0 1-.91 1.81-1.9 1.81C4.52 23 4 22.44 4 21.67c0-1.44 2.17-2.15 3.34-2.42.75-.17 1.63-.25 2.63-.25.52 0 1.05.04 1.58.04h.32c.3 0 .53.04.66.1.13.07.2.17.2.31 0 .16-.08.28-.25.35a2 2 0 0 1-.78.11c-.15 0-.37 0-.7-.02Z" fill="#956F2A"/><path d="M13.41 19c-.88 1.56-1.73 3.12-2.66 4.65l.06.03a7.9 7.9 0 0 1 1.16-1.43c.34-.31.65-.47.93-.47.37 0 .66.3.66.66 0 .22-.14.56-.43 1-.17.26-.33.52-.46.8a.84.84 0 0 0-.1.3c0 .1.06.2.15.2.19 0 .43-.17.74-.5.3-.34.7-.88 1.2-1.62l.05.03c-.56.86-1.01 1.46-1.36 1.8-.34.35-.65.52-.93.52-.38 0-.63-.28-.63-.74 0-.16.03-.31.09-.47.06-.16.18-.37.35-.63.16-.25.49-.55.49-.86 0-.13-.11-.22-.25-.22-.23 0-.55.27-.98.79a11 11 0 0 0-1.32 2.1L9.11 25l3.1-5.79 1.2-.21Z" fill="#956F2A"/><path d="m15.03 23.6-.03.37c0 .48.23.76.62.76.31 0 .67-.17 1.07-.52s.83-.86 1.27-1.51l.04.03c-.5.75-.98 1.32-1.48 1.7a2.4 2.4 0 0 1-1.46.56c-.6 0-1.06-.42-1.06-1.03 0-.25.09-.5.22-.75.4-.81 1.21-1.21 2.12-1.21.4 0 .66.2.66.53 0 .86-1.38.93-1.97 1.08Zm.01-.06c.63-.15 1.22-.55 1.22-1.24 0-.12-.07-.22-.17-.22-.17 0-.38.16-.62.48-.24.32-.3.53-.43.98ZM30 22.56l.32-.56h1.03c-.48.76-.86 1.42-1.08 1.81-.21.4-.27.66-.27.78 0 .11.08.2.17.2.2 0 .4-.15.72-.46.33-.31.74-.81 1.26-1.5l.04.03c-.54.76-1 1.3-1.37 1.64-.37.32-.7.5-1 .5-.42 0-.7-.3-.7-.71v-.16c-.18.27-.4.47-.64.63-.25.15-.48.24-.7.24-.48 0-.78-.4-.78-.86 0-1.13 1.22-2.11 2.31-2.11.4 0 .64.17.7.53Zm-.51-.46c-.85 0-1.48 1.45-1.48 2.12 0 .26.13.42.34.42.24 0 .47-.17.75-.56.22-.3.38-.58.5-.86.12-.27.18-.5.18-.69 0-.27-.1-.43-.3-.43Z" fill="#956F2A"/><path d="m36.57 22.76.06.03c-.58.81-1.05 1.38-1.4 1.7-.36.34-.68.5-.97.5-.4 0-.66-.27-.66-.7 0-.4.24-.74.46-1.05.16-.23.5-.51.5-.81 0-.12-.1-.18-.25-.18-.24 0-.57.22-1.01.71-.44.5-.8 1.23-1.2 1.98L31 25l1.59-3h1.09l-1.13 1.67.07.04c.44-.59.83-1.03 1.18-1.31.35-.29.67-.4.96-.4.35 0 .68.22.68.59 0 .21-.15.53-.45.95a6.9 6.9 0 0 0-.47.75.74.74 0 0 0-.11.29c0 .1.07.2.16.2.2 0 .44-.17.76-.49.32-.31.74-.83 1.24-1.53Z" fill="#956F2A"/><path d="m39.57 19.43-1.45 2.42a125.63 125.63 0 0 1-1.2 1.9l.06.04c.46-.62.87-1.08 1.23-1.36.35-.28.81-.43 1.13-.43.4 0 .66.22.66.53 0 .46-.69.76-1.73.87v.05c.27.08.73.2.73.56 0 .22-.21.4-.21.62 0 .08.07.15.14.15.43 0 1.66-1.3 2.02-1.78l.05.04a7.89 7.89 0 0 1-1.43 1.48c-.38.32-.76.48-1.12.48-.4 0-.68-.25-.68-.58a1 1 0 0 1 .17-.49c.11-.19.17-.31.17-.38v-.1l-.07.03c-.17.06-.3.1-.37.1-.06 0-.12-.05-.12-.1 0-.08.11-.17.22-.17s.2.07.31.07c.17 0 .33-.08.5-.26a.82.82 0 0 0 .24-.58.2.2 0 0 0-.2-.2c-.23 0-.55.24-.98.72A10.2 10.2 0 0 0 36.29 25h-1.05l3.2-5.48 1.13-.1ZM47.15 22.88l.05.02c-.28.35-.75.5-1.05.5-.3 0-.5-.14-.7-.5a3.71 3.71 0 0 1 .03.28c0 1.23-1.32 1.82-2.38 1.82-.68 0-1.1-.42-1.1-1.09 0-1.15 1.17-1.91 2.26-1.91.58 0 .92.2 1.16.67.16.32.34.68.74.68.27 0 .73-.14.99-.47Zm-2.42-.35c0-.29-.12-.45-.34-.45-.68 0-1.17 1.07-1.37 1.56-.13.3-.48 1.28.14 1.28.95 0 1.57-1.66 1.57-2.39Z" fill="#956F2A"/><path d="M49.75 21.4c.22-.25.25-.53.25-.85 0-.26-.16-.47-.35-.47-.24 0-.45.21-.8.64-.34.43-.75 1.1-1.23 2H50l-.09.08h-2.35l-.85 1.77C45.88 26.3 44.59 28 42.5 28c-.66 0-1.5-.27-1.5-1.06 0-.74.72-.94 1.36-.94.2 0 .34.01.49.04l-.01.07-.13-.01c-.5 0-.71.37-.71.83 0 .52.25.98.8.98.8 0 1.58-.8 2.48-2.54l1.34-2.57H46l.1-.09h.58c.4-.85.9-1.52 1.48-2 .6-.47 1.2-.71 1.82-.71.62 0 1.02.29 1.02.72 0 .46-.42.78-.85.78a.88.88 0 0 1-.4-.1ZM26.75 29.86l.05.03c-.27.33-.5.48-.79.48-.28 0-.48-.14-.67-.48l.02.27c0 .79-.66 1.48-1.38 1.7-.27.1-.58.14-.92.14-.33 0-.59-.1-.78-.28a1.02 1.02 0 0 1-.28-.76c0-1.11 1.14-1.96 2.18-1.96.57 0 .9.22 1.13.67.16.3.33.65.71.65.26 0 .48-.14.73-.46Zm-2.11-.33c0-.27-.12-.42-.33-.42-.89 0-2.21 2.82-1.2 2.82.93 0 1.53-1.69 1.53-2.4Z" fill="#956F2A"/><path d="m28.31 29-1.11 1.75c-.2.32-.34.66-.34.8 0 .11.07.2.17.2.2 0 .44-.15.73-.44.3-.3.59-.72.89-1.24l.62-1.07h1.06l-1.16 1.9c-.22.36-.3.55-.3.71 0 .11.08.2.18.2.17 0 .44-.17.78-.52.36-.34.74-.8 1.15-1.4l.05.03c-.54.76-1 1.3-1.35 1.61-.35.31-.68.47-.99.47-.35 0-.6-.27-.6-.64 0-.11.02-.22.06-.34l-.03-.04c-.27.33-.52.58-.77.76-.25.17-.52.26-.73.26-.37 0-.6-.25-.6-.64 0-.38.27-.75.46-1.08L27.3 29h1.01Z" fill="#956F2A"/><path d="m33.01 28-.68 1.23h1.04l-.06.09h-1.03l-.8 1.43a2 2 0 0 0-.27.8c0 .17.09.28.25.28.26 0 .59-.2 1-.55.4-.35.81-.82 1.23-1.41l.05.02a7.02 7.02 0 0 1-1.37 1.55c-.46.35-.87.56-1.26.56-.47 0-.74-.25-.74-.7 0-.18.11-.48.3-.85l.6-1.13h-.63l.07-.09h.63l.62-1.17 1.05-.06Z" fill="#956F2A"/><path d="m36.85 26-1.98 3.48a26.3 26.3 0 0 1-.82 1.28l.06.04c.43-.6.81-1.04 1.15-1.32.34-.3.8-.48 1.09-.48.34 0 .65.3.65.65 0 .2-.3.51-.58.93-.16.23-.41.47-.54.73a.73.73 0 0 0-.1.27c0 .1.06.19.15.19.18 0 .51-.16.82-.46.3-.31.7-.81 1.2-1.5l.05.03a11.7 11.7 0 0 1-1.36 1.66c-.34.32-.65.48-.92.48-.39 0-.72-.26-.72-.68 0-.5.44-.93.73-1.3.19-.23.28-.4.28-.5 0-.11-.1-.18-.25-.18-.14 0-.55.22-.97.7-.42.48-.98 1.24-1.36 1.98h-1l3.34-5.9 1.08-.1ZM21.6 27.67c.26-.2.4-.48.4-.8 0-.35-.07-.72-.47-.72-.93 0-.93 1.92-.93 2.58a5.94 5.94 0 0 1-.2 1.51A2.56 2.56 0 0 1 17.89 32c-.88 0-1.89-.49-1.89-1.48 0-.41.2-.92.69-.92.26 0 .46.21.46.5 0 .31-.15.5-.41.51a.87.87 0 0 0-.07.32c0 .62.58.98 1.15.98 1.56 0 1.71-1.83 1.78-3 .02-.5.04-1.02.2-1.5.3-.89 1.1-1.41 2.01-1.41.54 0 1.19.25 1.19.88 0 .5-.57.82-1.04.82a1.97 1.97 0 0 1-.35-.03ZM27 19.01v.08h-.17c-.35 0-.7.1-1.02.32.6.25 1.19.69 1.19 1.21 0 .76-.9 1.18-2.06 1.3l-.04.09h.18c.68 0 1.32.43 1.32 1.18 0 .21-.05.42-.16.63a2.3 2.3 0 0 1-1.3 1.02c-.3.1-.62.16-.94.16-.43 0-.99-.23-.99-.74 0-.32.26-.6.58-.6a.6.6 0 0 1 .51.24c-.12.1-.22.21-.28.32a.63.63 0 0 0-.1.33c0 .23.13.35.37.35.13 0 .26-.04.4-.13.36-.22.6-.62.73-1.01.09-.24.13-.47.13-.7 0-.6-.3-1-.85-1l-.3.01.03-.07c.82-.12 1.77-.66 1.77-1.54 0-.32-.3-.6-.52-.78-.2.17-.6.79-1.17 1.84l-.6 1.08c-.44.8-.95 1.4-1.53 1.8-.57.4-1.2.6-1.9.6-.37 0-.68-.09-.92-.26a.79.79 0 0 1-.36-.66c0-.38.24-.66.56-.66.27 0 .48.21.48.49 0 .2-.11.36-.3.43 0 .35.23.57.63.57.38 0 .74-.18 1.08-.52.34-.35.77-1.01 1.28-2 .48-.89.9-1.55 1.26-1.98.36-.43.76-.74 1.2-.94a2.54 2.54 0 0 0-1.28-.38c-1.6 0-3.4 1.29-3.4 3.02 0 .48.28.96.8.96.31 0 .58-.15.82-.47.23-.3.35-.67.35-1.09 0-.25-.02-.46-.07-.64a1.47 1.47 0 0 0-.22-.5l.05-.03a2.08 2.08 0 0 1 .31 1.09c0 .32-.05.6-.15.84a1.94 1.94 0 0 1-.99 1c-.17.07-.36.1-.55.1-.7 0-1.23-.53-1.23-1.23 0-2.17 2.73-3.13 4.52-3.13.42 0 .86.17 1.32.3A3.01 3.01 0 0 1 27 19ZM20 36.53l.34-.53h1.04c-.4.64-1.38 1.68-1.38 2.5 0 .11.03.28.12.28.2 0 .46-.15.78-.46.32-.32.74-.82 1.25-1.52l.04.03c-.54.77-1 1.32-1.37 1.65-.36.33-.7.5-1 .5a.7.7 0 0 1-.5-.2c-.17-.16-.2-.36-.2-.58v-.08c-.3.43-.79.86-1.34.86-.49 0-.78-.4-.78-.86 0-.55.32-1.15.88-1.58.44-.35.98-.54 1.44-.54.4 0 .63.16.68.53Zm-.51-.47c-.26 0-.5.18-.84.61-.31.42-.64 1-.64 1.54 0 .26.13.42.34.42.12 0 .24-.05.36-.14.12-.09.25-.23.4-.43.3-.43.67-1 .67-1.56 0-.28-.1-.44-.3-.44Z" fill="#956F2A"/><path d="M25.22 36c-.4.4-.46.64-.46.94 0 .39.31.56.74.27.15-.1.3-.24.45-.42l.04.04c-.17.24-.38.42-.62.55-.24.13-.49.2-.75.2-.51 0-.85-.29-.85-.7 0-.12.03-.24.09-.38-.35.24-.7.56-1 .98-.33.4-.6 1.01-.82 1.52H21l1.5-3h1.1l-.48.81-.58.86-.13.2.05.03c.24-.36.5-.68.74-.94.25-.26.5-.46.73-.6.32-.46.57-.36 1.29-.36Z" fill="#956F2A"/><path d="m30.35 36.78.05.03c-.28.35-.52.5-.82.5-.3 0-.41-.15-.6-.5l.02.28c0 .53-.41 1.04-.8 1.38-.4.35-.99.53-1.68.53-.7 0-1.11-.41-1.11-1.08 0-.26.06-.5.17-.74.11-.24.28-.45.5-.64.45-.4 1.04-.54 1.6-.54.59 0 1.02.12 1.26.58.17.32.25.67.66.67.26 0 .5-.14.75-.47Zm-2.2-.34c0-.19-.14-.36-.33-.36-.88 0-1.58 1.6-1.58 2.4 0 .3.1.44.33.44.95 0 1.58-1.75 1.58-2.48Z" fill="#956F2A"/><path d="m33.34 33-2.62 4.9c-.13.21-.22.48-.22.64 0 .13.09.21.23.21.18 0 .45-.18.81-.53.37-.37.75-.84 1.15-1.43l.04.03a8.4 8.4 0 0 1-1.31 1.6c-.42.37-.78.58-1.1.58-.37 0-.6-.29-.6-.72 0-.26.11-.63.33-1.01l2.15-4.21 1.14-.06Z" fill="#956F2A"/><path d="M34.16 36c-.38.63-1.3 1.76-1.3 2.54 0 .13.08.21.22.21.18 0 .45-.18.82-.53.36-.36.74-.84 1.14-1.43l.04.03a8.4 8.4 0 0 1-1.31 1.6c-.42.37-.78.58-1.1.58-.37 0-.66-.29-.66-.72 0-.27.18-.64.39-1.01l.7-1.27h1.06Z" fill="#956F2A"/><path d="m39.48 36.73.06.03c-.59.82-1.06 1.4-1.42 1.73-.35.33-.67.51-.96.51-.4 0-.66-.3-.66-.73 0-.15.03-.3.1-.45.19-.46.86-.87.86-1.36 0-.11-.1-.2-.25-.2-.24 0-.57.18-1.01.68-.44.5-1 1.3-1.39 2.06h-1.04l1.76-3h1.08l-1.16 1.65.07.04c.44-.6.83-1.03 1.18-1.32.35-.3.67-.37.96-.37.35 0 .68.25.68.63 0 .59-.65 1.13-.92 1.65a.76.76 0 0 0-.11.29c0 .1.07.2.16.2.2 0 .44-.17.76-.5.32-.31.74-.83 1.25-1.54Z" fill="#956F2A"/><path d="m41.81 36.53.34-.53 1.05-.01c-.49.76-.9 1.4-1.12 1.8-.21.4-.32.67-.32.8 0 .1.08.2.17.2.2 0 .45-.16.77-.47.33-.32.75-.82 1.26-1.52l.04.03c-.54.77-1 1.32-1.37 1.65-.37.33-.7.52-1 .52-.42 0-.63-.3-.63-.73V38.12a2.5 2.5 0 0 1-.71.63c-.25.15-.48.25-.7.25-.49 0-.78-.42-.78-.88 0-.27.08-.55.23-.83.4-.73 1.25-1.3 2.08-1.3.4 0 .64.17.7.54Zm-.51-.47c-.62 0-1.1.93-1.3 1.43-.12.28-.18.52-.18.72 0 .26.12.42.34.42.12 0 .24-.05.36-.14.12-.09.32-.23.46-.43.22-.3.31-.58.43-.86s.18-.51.18-.7c0-.28-.1-.44-.3-.44ZM15.84 33.53l.04.03c-.2.2-.3.42-.3.66 0 .37.26.62.63.62.69 0 1.21-.57 1.21-1.2 0-.36-.2-.56-.58-.56-.3 0-.61.08-.96.24-1.52.69-2.88 2.48-2.88 4.15 0 .66.43 1.38 1.17 1.38.93 0 1.51-.99 1.51-1.82 0-.57-.24-.75-.66-.75-.7 0-.95.77-.95 1.33a1.7 1.7 0 0 0 0 .19h-.05a1.29 1.29 0 0 1-.02-.19c0-.8.48-1.61 1.39-1.61.59 0 1.06.28 1.06.88 0 .94-.94 1.63-1.74 1.93a2.9 2.9 0 0 1-1 .19c-1.02 0-1.71-.68-1.71-1.7 0-1.2.82-2.28 1.7-3.01A5.21 5.21 0 0 1 16.9 33c.68 0 1.1.34 1.1.9 0 .8-.83 1.1-1.56 1.1-.46 0-.93-.26-.93-.77a.9.9 0 0 1 .33-.7Z" fill="#956F2A"/><circle cx="34.5" cy="34.5" r=".5" fill="#956F2A"/></svg>