<!-- by TradingView --><svg width="56" height="56" viewBox="0 0 56 56" xmlns="http://www.w3.org/2000/svg"><path fill="#F0F3FA" d="M0 0h56v56H0z"/><path d="M4.76 27v-5h1.61c.52 0 .93.15 1.21.37.3.22.44.53.44.94 0 .26-.06.49-.18.67a1.1 1.1 0 0 1-.48.41c-.2.1-.43.14-.67.14l.12-.16c.3 0 .55.05.77.14.22.1.39.24.5.43.13.19.19.42.19.7 0 .42-.15.74-.44.97-.3.23-.74.39-1.33.39H4.76Zm.5-.47H6.5c.4 0 .72-.07.94-.22.22-.15.33-.38.33-.7 0-.33-.1-.56-.33-.7a1.67 1.67 0 0 0-.94-.23H5.2v-.43h1.14c.37 0 .66-.07.87-.22.2-.15.31-.37.31-.67 0-.3-.1-.52-.31-.67-.2-.14-.5-.22-.87-.22H5.26v4.06ZM9.45 24.24h2.27v.44H9.45v-.44Zm.06 2.27H12V27H9v-5h3v.5H9.5v4ZM13 27v-5h.5v4.5h2.44v.5H13ZM18.13 27a2.42 2.42 0 0 1-2.29-1.5c-.12-.3-.18-.64-.18-1s.06-.7.18-1c.12-.3.3-.56.52-.78.22-.23.48-.4.78-.53.3-.13.63-.19.99-.19a2.5 2.5 0 0 1 1.75.7 2.6 2.6 0 0 1 .7 1.8 2.6 2.6 0 0 1-.7 1.79 2.35 2.35 0 0 1-1.75.71Zm0-.46a1.86 1.86 0 0 0 1.4-.58 2.02 2.02 0 0 0 .56-1.46c0-.3-.05-.56-.15-.8a1.93 1.93 0 0 0-1.81-1.24 1.98 1.98 0 0 0-1.42.59 2.07 2.07 0 0 0-.56 1.45c0 .29.05.56.14.8a1.94 1.94 0 0 0 1.83 1.23ZM21 27v-5h.4l3.32 4.31h-.21V22H25v5h-.41l-3.31-4.31h.21V27H21ZM28 27a2.42 2.42 0 0 1-2.3-1.5c-.1-.3-.17-.64-.17-1s.06-.7.18-1a2.41 2.41 0 0 1 2.3-1.5c.36 0 .69.06.98.18.3.11.56.29.77.53l-.31.33c-.2-.2-.42-.35-.65-.44a2.16 2.16 0 0 0-1.57.02c-.24.1-.46.24-.64.43a2.01 2.01 0 0 0-.57 1.45 2.1 2.1 0 0 0 .57 1.46c.18.18.4.33.64.43a2.24 2.24 0 0 0 1.56.02c.23-.08.46-.23.66-.43l.28.4c-.22.2-.49.36-.79.47-.3.1-.6.15-.93.15Zm1.25-.69V25h-.91v-.5h1.39v1.87l-.48-.06ZM28.47 35a2.37 2.37 0 0 1-2.29-1.5c-.12-.3-.18-.64-.18-1s.06-.7.18-1a2.35 2.35 0 0 1 1.3-1.31c.31-.13.64-.19 1-.19.34 0 .66.06.96.18.3.12.56.3.77.54l-.32.33c-.2-.21-.4-.36-.64-.45-.24-.09-.49-.14-.76-.14a2 2 0 0 0-1.42.59 2.01 2.01 0 0 0-.58 1.45c0 .3.05.57.15.81a1.95 1.95 0 0 0 1.85 1.22c.27 0 .52-.04.76-.13.23-.1.44-.25.64-.45l.32.33c-.21.24-.47.42-.77.54-.3.12-.62.18-.97.18ZM30 35l2.15-5h.5l2.15 5h-.52l-1.99-4.66h.2L30.52 35H30Zm.84-1.36.15-.42h2.75l.15.42h-3.05ZM35.18 35v-5h1.77c.4 0 .74.11 1.03.25.29.13.51.32.66.57.16.25.24.55.24.9s-.08.65-.24.9c-.15.25-.37.45-.66.58-.29.14-.63.2-1.03.2h-1.5l.23-.24V35h-.5Zm.5-1.8-.22-.25h1.48c.47 0 .83-.1 1.07-.32.25-.21.37-.51.37-.9 0-.4-.12-.7-.37-.92-.24-.21-.6-.32-1.07-.32h-1.48l.22-.24v2.95ZM39.5 35v-5h.5v5h-.5ZM42 35v-4.5h-1.66V30h3.82v.5H42.5V35H42ZM43.66 35l2.16-5h.5l2.16 5h-.53l-1.98-4.66h.2L44.18 35h-.52Zm.86-1.36.14-.42h2.75l.15.42h-3.04ZM49 35v-5h.5v4.5H52v.5h-3Z"/><rect x="4" y="28" width="48" height="1" rx=".5" fill="url(#aobtqhnge)"/><defs><linearGradient id="aobtqhnge" x1="4" y1="28.5" x2="52" y2="28.5" gradientUnits="userSpaceOnUse"><stop stop-color="#08786A"/><stop offset=".46" stop-color="#39BFC7"/><stop offset="1" stop-color="#4AC04E"/></linearGradient></defs></svg>