<!-- by TradingView --><svg xmlns="http://www.w3.org/2000/svg" width="56" height="56" viewBox="0 0 56 56"><path fill="#292929" d="M0 0h56v56H0z"/><path fill-rule="evenodd" d="M45 28a17 17 0 1 1-34 0 17 17 0 0 1 34 0Zm-3 0a14.5 14.5 0 1 1-29 0 14.5 14.5 0 0 1 29 0Zm-.8 0c0 7.05-5.34 12.85-12.2 13.56v-2.32c1.71-.21 3.3-.82 4.68-1.72H28V40h-1v-2.48h-5.49c1.33.87 2.85 1.46 4.49 1.7v2.33c-4.31-.5-8.01-3-10.14-6.55H27v-2h-3.55l-.17 1h-2.69l2.69-13.38h-.58l.58-2.62h8.53l.44 2.62h-.44l3.14 15.94A11.15 11.15 0 1 0 18.08 34h-2.76a13.64 13.64 0 1 1 25.9-6Zm-9.3 7-.42-2H28v2h3.9ZM27 20.6v1.65h-1.3l.37-1.64H27Zm1 0v1.65h1.3l-.37-1.64H28ZM26.63 23H27v.36h-.37V23ZM28 23h.38v.36H28V23Zm-2.74 1.9.44-1.62 1.25.7-1.69.91Zm4.04-1.62.44 1.61-1.69-.91 1.25-.7Zm-4.69 4.96.44-1.9 1.68.93-2.12.97Zm5.34-1.9.44 1.9-2.12-.97 1.68-.93ZM27 25.4v-.75l-.98.75H27Zm1-.75v.75h.99l-.99-.75ZM27 26v.75L25.99 26H27Zm1 .75V26h1.01l-1.01.75Zm-1 2.08v-.9l-1.35.9H27Zm1-.9v.9h1.35l-1.35-.9Zm-1 1.46v.9l-1.36-.9H27Zm1 .9v-.9h1.36l-1.36.9Zm-4.1 1.73.6-2.21 2.3 1.03-2.9 1.18Zm6.6-2.21.6 2.2-2.9-1.17 2.3-1.03ZM27 32.4v-1l-1.72 1H27Zm1-1v1h1.72l-1.72-1Z" fill="#FDC716"/></svg>