<!-- by TradingView --><svg width="56" height="56" viewBox="0 0 56 56" xmlns="http://www.w3.org/2000/svg"><path fill="#F0F3FA" d="M0 0h56v56H0z"/><path d="M5.91 32H4v-5h1.58c.71.01 1.29.61 1.29 1.35 0 .33-.13.65-.35.9l-.18.2.23.14c.37.24.6.65.6 1.1 0 .72-.57 1.3-1.26 1.31Zm.96-1.3c0-.57-.4-1.01-.97-1.01H4.28v2.03h1.64c.55 0 .95-.45.95-1.03Zm-2.59-1.3h1.29c.56 0 1.02-.47 1.02-1.05 0-.6-.45-1.06-1.02-1.06H4.28v2.1ZM8 27v4.71h2V32H7.69v-5H8ZM11.22 30.82 10.75 32h-.34l2.06-5 2.06 5h-.35l-.49-1.18h-2.47Zm.11-.28h2.26l-1.12-2.74-1.14 2.74ZM18.22 27.36l-.14.28c-.33-.22-.7-.32-1.1-.32a2.19 2.19 0 0 0-.01 4.37c.4 0 .78-.11 1.12-.33l.14.29c-.39.23-.82.35-1.26.35a2.47 2.47 0 0 1-2.44-2.5c0-1.38 1.1-2.5 2.44-2.5.45 0 .88.13 1.25.36ZM19.57 29.65l-.57.67V32h-.31v-5H19v2.86L21.44 27h.38l-2.04 2.38 2 2.62h-.36l-1.85-2.35ZM34.37 31.29l.16-.22c.42.67 1.37.67 1.37.67.67 0 1.12-.5 1.13-1.16 0-1.07-1.24-1.06-1.48-1.12-.44-.07-1.2-.3-1.2-1.17 0-.7.57-1.29 1.34-1.29.42 0 .85.17 1.11.42l-.14.24a1.45 1.45 0 0 0-.96-.4c-.63 0-1.08.47-1.08 1.03 0 .5.44.85.97.9.75.09 1.71.38 1.7 1.43 0 .76-.6 1.36-1.39 1.38 0 0-1.06 0-1.53-.71ZM39.36 30.44h-1.09V32H38v-5h1.36c.9.02 1.63.79 1.63 1.72 0 .58-.28 1.11-.75 1.43 0 0-.28.2-.66.26l-.22.03Zm-.04-.3a1.4 1.4 0 0 0 1.38-1.42c0-.78-.62-1.41-1.37-1.41h-1.05v2.82h1.04ZM41.4 30.82 40.92 32h-.35l2.06-5 2.07 5h-.36l-.48-1.18h-2.48Zm.1-.28h2.26l-1.12-2.74-1.13 2.74ZM46.2 32H45v-5h1.2a2.48 2.48 0 0 1 2.4 2.5 2.48 2.48 0 0 1-2.4 2.5Zm-.03-.28c1.16 0 2.12-1.03 2.12-2.22 0-1.19-.96-2.2-2.12-2.2h-.88v4.42h.88ZM49.3 27.27v2.15h2.06v.28H49.3v2.01H52V32h-3v-5h3v.28h-2.7ZM31.37 24.9a10.27 10.27 0 0 1-3.4-3.9c-.51 1-1.26 2.3-3.42 3.9-2.39 1.8-1.76 4.05-.2 4.82-1.12-.84-1.41-2.65.54-4.11a9.25 9.25 0 0 0 3.07-3.52c.46.9 1.13 2.06 3.07 3.52 1.96 1.46 1.67 3.27.54 4.11 1.56-.77 2.19-3.02-.2-4.81ZM28.06 31.87a.54.54 0 0 0-.02-.09l-.02-.07-.04-.1v-.03l-.02.04-.03.1-.02.06-.03.09a2.34 2.34 0 0 0-.02.84l.03.14.08.3.08-.3.03-.15.02-.14a2.15 2.15 0 0 0-.04-.7Z"/><path d="M24.54 28.46a.58.58 0 0 1-.12-.02h-.01l-.05-.02a.63.63 0 0 1-.25-.17.71.71 0 0 1-.16-.37 1.28 1.28 0 0 1 .21-.81c.09-.11.2-.22.33-.3.1-.08.23-.15.39-.22l.3-.13c.16-.07.32-.13.47-.21a6.46 6.46 0 0 0 .96-.61c.1-.1.17-.17.21-.25l.03-.05.01-.02v-.02l.02-.05a.44.44 0 0 0 .02-.13v-.04l-.02-.05-.01-.04a.7.7 0 0 0-.03-.06l-.03-.04-.03-.04-.02-.02-.02-.01-.01-.01h-.01a.26.26 0 0 0-.1-.04H26.5a.3.3 0 0 0-.09.05c-.12.08-.16.2-.15.28 0 .04.01.08.03.11l.01.01.02.03.02.02.03.02h.01l.04.03c.02.01.03.04.02.06l-.04.02h-.02l-.04-.03-.02-.01-.02-.01-.02-.02-.02-.01a.15.15 0 0 1-.03-.04v-.01a.32.32 0 0 1-.07-.16c-.02-.13.06-.28.19-.38a.37.37 0 0 1 .12-.06.32.32 0 0 1 .07-.02h.08c.05 0 .1.02.15.05l.02.01h.01l.04.04.02.02.04.04.04.05.04.08.02.06.02.06v.04a.5.5 0 0 1-.03.25l-.01.02-.01.03-.03.06c-.06.1-.13.18-.24.28a6.45 6.45 0 0 1-.99.65c-.15.1-.33.16-.5.23l-.27.12a2.6 2.6 0 0 0-.37.2.98.98 0 0 0-.44.6.99.99 0 0 0-.03.36.49.49 0 0 0 .37.45h.08c.06 0 .13-.01.2-.04a.63.63 0 0 0 .22-.15c.06-.07.09-.14.1-.21a.28.28 0 0 0-.07-.19.34.34 0 0 0-.14-.11.21.21 0 0 0-.14-.01.27.27 0 0 0-.1.06l-.04.02v.02h-.02l-.01.03-.02.02-.03.04c0 .02-.02.02-.03.02h-.02a.04.04 0 0 1-.02-.06l.02-.04.02-.04a.3.3 0 0 1 .03-.02v-.02l.02-.01.03-.03a.4.4 0 0 1 .14-.09.32.32 0 0 1 .2 0c.07.03.14.08.2.15.03.04.1.14.1.26-.01.1-.05.2-.13.29a.75.75 0 0 1-.53.26ZM31.38 28.46a.72.72 0 0 1-.53-.26.48.48 0 0 1-.12-.29c0-.12.06-.21.1-.26a.43.43 0 0 1 .19-.14.31.31 0 0 1 .2 0 .37.37 0 0 1 .17.11l.01.02.02.01.02.03.02.03.02.05c.02.02 0 .04-.01.05a.04.04 0 0 1-.06-.01l-.02-.04-.02-.03-.02-.02-.01-.02-.03-.03a.27.27 0 0 0-.11-.06h-.06l-.08.01a.32.32 0 0 0-.14.12.28.28 0 0 0-.07.18c0 .07.04.15.1.21a.61.61 0 0 0 .42.2h.08c.1-.03.19-.09.25-.16s.1-.18.12-.3a1.01 1.01 0 0 0-.47-.96 2.3 2.3 0 0 0-.37-.2l-.28-.1c-.17-.08-.34-.15-.5-.24a6.33 6.33 0 0 1-.99-.65c-.1-.1-.18-.2-.23-.28l-.03-.06-.01-.02-.01-.03a.47.47 0 0 1-.04-.24l.01-.05V25l.02-.03v-.02l.02-.04.04-.08.03-.05.04-.04.03-.02a.26.26 0 0 1 .04-.04l.04-.02a.35.35 0 0 1 .14-.04h.08c.03 0 .05 0 .07.02l.12.06c.13.09.2.24.19.38 0 .05-.03.1-.06.15l-.01.01-.04.04-.01.01a.29.29 0 0 1-.02.02l-.02.01-.02.02-.05.02h-.02c-.01 0-.02 0-.03-.02a.04.04 0 0 1 .01-.05l.04-.03h.02l.01-.02.04.02-.03-.03.02-.01.03-.03v-.01a.23.23 0 0 0 .04-.11c0-.08-.04-.2-.16-.28a.32.32 0 0 0-.09-.04l-.04-.01h-.06a.25.25 0 0 0-.11.04h-.01l-.02.02-.03.02-.03.04-.02.04-.03.05-.01.03H29l.04.02-.01.05v.03l.01.13.02.05v.03l.02.01.02.05c.05.08.12.16.21.25l.28.22a6.4 6.4 0 0 0 1.16.6l.3.13c.15.07.28.14.38.21a1.3 1.3 0 0 1 .44.5 1.26 1.26 0 0 1 .1.62.63.63 0 0 1-.4.54l-.05.01-.02.01h-.03a.39.39 0 0 1-.1.02ZM30.02 29.27s-.48.56-.2 1.26c.27.72 1.31 1.11 1.66.33.23-.54-.4-.92-.7-.63-.27.27-.1.42-.1.42-.06-.06.08-.3.21-.35.5-.2.65.8-.07.68-.45-.07-1.32-.97-.8-1.7ZM25.8 29.27s.49.56.2 1.26c-.27.72-1.3 1.11-1.65.33-.24-.54.4-.92.7-.63.26.27.1.42.1.42.05-.06-.1-.3-.22-.35-.5-.2-.65.8.07.68.45-.07 1.32-.97.8-1.7ZM27.96 22.88c-.04.5-.34.67-.54.73l-.16.03.17.02c.19.06.49.19.52.68l.01.1.02-.1c.03-.48.32-.62.51-.67l.17-.03-.16-.03c-.2-.06-.5-.23-.54-.73v-.08.08Z"/><path d="m28.81 30.41.08-.13.14-.23.14-.22a6.92 6.92 0 0 0-.4.36l-.02.04a4.84 4.84 0 0 1-.12-.4c.1-.05.19-.1.28-.13h.02a1.7 1.7 0 0 1-.71-1.22c1.38.96 2.95-.78 1.28-2.03a4.66 4.66 0 0 1-1.54-1.77 4.67 4.67 0 0 1-1.55 1.77c-1.66 1.25-.1 2.99 1.29 2.03-.1.6-.4 1.03-.71 1.21.1.04.2.08.3.14-.04.14-.07.27-.12.4l-.03-.04a2.6 2.6 0 0 0-.39-.37 4.92 4.92 0 0 1 .28.46l.07.13c-.3.79-.8 1.36-1.28 1.66.42.13.88.39 1.28.76.4.36.69.77.86 1.17 0 0 .49-.82.87-1.17.4-.36.83-.61 1.24-.75l.03-.01c-.5-.3-.98-.87-1.29-1.66Zm1.04 1.66c-.37.12-.75.35-1.1.67a5.95 5.95 0 0 0-.79 1.05 3.15 3.15 0 0 0-.77-1.05 3.2 3.2 0 0 0-1.11-.67l-.05-.01c.45-.27.88-.79 1.16-1.5l.09.15a5.16 5.16 0 0 1 .18.4.63.63 0 0 1 .02.4l-.01.02-.02.03-.02.03a.32.32 0 0 1-.11.08.4.4 0 0 1-.23.04.24.24 0 0 1-.09-.03l-.03-.03a.3.3 0 0 1-.02-.02l-.02-.04-.01-.01v.01l.01.05.02.03.02.04c.02.03.05.05.1.07.03.02.08.03.13.04.05 0 .1 0 .16-.02a.49.49 0 0 0 .18-.08l.04-.04.04-.05.03-.05.03-.05a.64.64 0 0 0 .04-.24.9.9 0 0 0-.04-.24c-.04-.16-.13-.3-.22-.45a3.78 3.78 0 0 0-.19-.25c.05-.14.1-.3.12-.45l.18.14c.18.17.31.35.4.53 0 0 .21-.37.39-.53.05-.05.11-.1.17-.13.03.15.07.3.12.44l-.19.25c-.09.14-.17.3-.22.45a.85.85 0 0 0-.04.24c0 .09.01.17.04.24l.03.05.03.06.04.04.04.04a.47.47 0 0 0 .48.06.25.25 0 0 0 .09-.07l.02-.04.02-.03v-.05l.01-.01v.01l-.03.04-.02.03-.03.02a.24.24 0 0 1-.09.03h-.1a.4.4 0 0 1-.24-.12l-.02-.03-.01-.02-.02-.04v-.03a.64.64 0 0 1 .02-.35c.02-.07.04-.13.08-.2l.1-.2.09-.15c.28.7.71 1.22 1.16 1.49h-.04Z"/></svg>