<!-- by TradingView --><svg width="56" height="56" viewBox="0 0 56 56" xmlns="http://www.w3.org/2000/svg"><path fill="#F0F3FA" d="M0 0h56v56H0z"/><path d="M29.06 26.05a4.33 4.33 0 0 1-2.7-2.04.24.24 0 0 1 .1-.32.25.25 0 0 1 .12-.03h1.18a6.97 6.97 0 0 1-2.8-5.56 6.67 6.67 0 0 1 3.35-5.58c.33-.2.68-.37 1.03-.52a10.47 10.47 0 0 0-6.37 2.66 10.1 10.1 0 0 0-3.24 6h-.71c-2.25 0-4.44.74-6.2 2.1a9.65 9.65 0 0 0-2.9 11.83c.94 2.01 2.55 3.65 4.55 4.65a6.4 6.4 0 0 1 2.12-4.34 6.64 6.64 0 0 1 4.6-1.7l3.95.1a4 4 0 0 0 2.64-1 3.85 3.85 0 0 0 1.28-2.48c.13-1.3.26-2.61.35-3.29 0-.1-.02-.21-.09-.3a.48.48 0 0 0-.26-.18Zm11.29-4.71c-.14-1.67-.7-3.28-1.62-4.69a10.3 10.3 0 0 0-3.68-3.38 6.32 6.32 0 0 0-7.96 2.26 5.37 5.37 0 0 0-.78 2.57c-.01.93.22 1.85.67 2.67v-.19c0-1.16.47-2.28 1.32-3.1a4.54 4.54 0 0 1 3.17-1.3h.54l-.54 1.32a3.2 3.2 0 0 0-2.24.86 3.08 3.08 0 0 0-.96 2.16c-.02.82.3 1.61.87 2.2.58.59 1.37.93 2.2.95h3.99a.62.62 0 0 1 .54.37.59.59 0 0 1-.13.64l-1.44 1.25a2.12 2.12 0 0 0-.67 2.04c.3 1.34.74 3.46.9 4.43a9.01 9.01 0 0 1-1.35 6.74 9.93 9.93 0 0 0 10.99-1.97A9.56 9.56 0 0 0 47 30.14a9.43 9.43 0 0 0-3.25-6.86 9.82 9.82 0 0 0-3.4-1.94Z" fill="url(#amsbmqn2x)"/><defs><linearGradient id="amsbmqn2x" x1="9" y1="28.25" x2="47" y2="28.83" gradientUnits="userSpaceOnUse"><stop stop-color="#3CD2AC"/><stop offset="1" stop-color="#50EA85"/></linearGradient></defs></svg>