<!-- by TradingView --><svg width="56" height="56" fill="none" xmlns="http://www.w3.org/2000/svg"><path fill="#F0F3FA" d="M0 0h56v56H0z"/><path d="m38 26 8.66 15H29.34L38 26Z" fill="url(#a)"/><path d="m38 26 8.66 15H29.34L38 26Z" fill="url(#b)"/><path d="m28 8 8.66 15H19.34L28 8Z" fill="url(#c)"/><path d="m28 8 8.66 15H19.34L28 8Z" fill="url(#d)"/><path d="m28 39 8.66-15H19.34L28 39Z" fill="url(#e)"/><path d="m18 26 8.66 15H9.34L18 26Z" fill="url(#f)"/><path d="m18 26 8.66 15H9.34L18 26Z" fill="url(#g)"/><defs><linearGradient id="a" x1="33.569" y1="33.75" x2="46.683" y2="41.144" gradientUnits="userSpaceOnUse"><stop stop-color="#FFA730"/><stop offset=".173" stop-color="#BA4437"/></linearGradient><linearGradient id="b" x1="34.183" y1="35.227" x2="41.295" y2="39.002" gradientUnits="userSpaceOnUse"><stop stop-color="#8E0234" stop-opacity="0"/><stop offset=".386" stop-color="#8E0234"/><stop offset="1" stop-color="#8E0234" stop-opacity="0"/></linearGradient><linearGradient id="c" x1="23.57" y1="15.75" x2="36.683" y2="23.144" gradientUnits="userSpaceOnUse"><stop stop-color="#FFA730"/><stop offset=".173" stop-color="#BA4437"/></linearGradient><linearGradient id="d" x1="24.183" y1="17.227" x2="31.295" y2="21.002" gradientUnits="userSpaceOnUse"><stop stop-color="#8E0234" stop-opacity="0"/><stop offset=".386" stop-color="#8E0234"/><stop offset="1" stop-color="#8E0234" stop-opacity="0"/></linearGradient><linearGradient id="e" x1="35.661" y1="23.262" x2="22.555" y2="30.108" gradientUnits="userSpaceOnUse"><stop offset=".859" stop-color="#F5821F"/><stop offset="1" stop-color="#FFC34A"/></linearGradient><linearGradient id="f" x1="13.569" y1="33.75" x2="26.683" y2="41.144" gradientUnits="userSpaceOnUse"><stop stop-color="#FFA730"/><stop offset=".173" stop-color="#BA4437"/></linearGradient><linearGradient id="g" x1="14.183" y1="35.227" x2="21.295" y2="39.002" gradientUnits="userSpaceOnUse"><stop stop-color="#8E0234" stop-opacity="0"/><stop offset=".386" stop-color="#8E0234"/><stop offset="1" stop-color="#8E0234" stop-opacity="0"/></linearGradient></defs></svg>