<!-- by TradingView --><svg width="56" height="56" viewBox="0 0 56 56" xmlns="http://www.w3.org/2000/svg"><path fill="#F0F3FA" d="M0 0h56v56H0z"/><path d="m28 10-16 9v18l15.77 8.87.23.13 15.93-8.96L44 37V19l-16-9Zm.6 18 14.12-7.94-7.06 11.91L28.6 28Zm6.76 4.48L28.3 44.39V28.51l7.06 3.97Zm-7.06-4.99v-7.94h14.12L28.3 27.5Zm0-8.52V11.2l13.8 7.77H28.3Zm14.48 17.68-13.8 7.77 6.9-11.65 6.9 3.88ZM43 20.62v15.53l-6.82-3.89L43 20.62ZM27.7 28.5v15.88l-7.06-11.91 7.06-3.97Zm-7.36 3.46-7.06-11.91L27.4 28l-7.06 3.97Zm-.22.8 6.9 11.65-13.8-7.77 6.9-3.88Zm-.3-.5L13 36.14V20.62l6.82 11.64Zm7.88-12.72v7.94l-14.12-7.94H27.7Zm0-8.35v7.77H13.9l13.8-7.77Z" fill="#6FA5D9"/></svg>