<!-- by TradingView --><svg xmlns="http://www.w3.org/2000/svg" width="56" height="56" viewBox="0 0 56 56"><path fill="#F0F3FA" d="M0 0h56v56H0z"/><path d="M25.67 41c-8.04 0-12.66-5-12.66-11.57 0-3.77 2.94-8.74 7.04-11.43C15.37 19.96 11 25.26 11 30.7 11 37.58 16.56 43 25.67 43c5.36 0 10.58-2.12 13.33-5-3.88 2-9.2 3-13.33 3Z"/><path d="M42.76 31.14C41.09 30 37.16 29 35.89 29c-.42 0-.7.27-1.18.57-2.03 1.47-5.27 2.43-8.38 2.43-5.2 0-10.95-3.21-9.64-8.51C17.8 19.93 22.9 18 28.13 18a14 14 0 0 1 8.46 2.57c.32.28.67.43 1.28.43 3.17 0 4.54-.78 5.79-1.67.2-.14.33-.4.34-.56.01-.35-.13-.57-.34-.8A16.24 16.24 0 0 0 33.5 14C25.37 14 15 19.77 15 29.57c0 2.4.91 4.65 2.8 6.43 2.39 2.25 5.88 3 9.64 3 5.69 0 11.56-2.27 15.32-6.67a.98.98 0 0 0 .24-.65c0-.11 0-.37-.24-.54Z" fill="#EC891D"/></svg>