<!-- by TradingView --><svg width="56" height="56" viewBox="0 0 56 56" xmlns="http://www.w3.org/2000/svg"><path fill="#F0F3FA" d="M0 0h56v56H0z"/><path d="M28 45a3 3 0 1 0 0-6 3 3 0 0 0 0 6Z" fill="url(#a04pwrc4d)"/><path d="M14 31a3 3 0 1 0 0-6 3 3 0 0 0 0 6Z" fill="url(#b04pwrc4d)"/><path d="M35 24a3 3 0 1 0 0-6 3 3 0 0 0 0 6Z" fill="url(#c04pwrc4d)"/><path d="M29 16.83a3 3 0 1 0-2 0v8.34A3 3 0 1 0 30.83 29h8.34a3 3 0 1 0 0-2h-8.34A3 3 0 0 0 29 25.17v-8.34Z" fill="url(#d04pwrc4d)"/><path d="M22 23.83a3 3 0 1 0-2 0v8.34A3 3 0 1 0 23.83 36h8.34a3 3 0 1 0 0-2h-8.34A3 3 0 0 0 22 32.17v-8.34Z" fill="url(#e04pwrc4d)"/><defs><linearGradient id="a04pwrc4d" x1="16.28" y1="53.71" x2="37.82" y2="32.17" gradientUnits="userSpaceOnUse"><stop stop-color="#0F62F7"/><stop offset="1" stop-color="#08B6B3"/></linearGradient><linearGradient id="b04pwrc4d" x1="11.01" y1="30.99" x2="32.55" y2="9.45" gradientUnits="userSpaceOnUse"><stop stop-color="#0F62F7"/><stop offset="1" stop-color="#08B6B3"/></linearGradient><linearGradient id="c04pwrc4d" x1="18.89" y1="37.11" x2="40.43" y2="15.57" gradientUnits="userSpaceOnUse"><stop stop-color="#0F62F7"/><stop offset="1" stop-color="#08B6B3"/></linearGradient><linearGradient id="d04pwrc4d" x1="35.5" y1="17.5" x2="25" y2="29.81" gradientUnits="userSpaceOnUse"><stop stop-color="#08B6B3"/><stop offset="1" stop-color="#0C89D8"/></linearGradient><linearGradient id="e04pwrc4d" x1="28.5" y1="24.5" x2="18" y2="36.81" gradientUnits="userSpaceOnUse"><stop stop-color="#08B6B3"/><stop offset="1" stop-color="#0C89D8"/></linearGradient></defs></svg>