<!-- by TradingView --><svg width="56" height="56" viewBox="0 0 56 56" xmlns="http://www.w3.org/2000/svg"><path fill="#F0F3FA" d="M0 0h56v56H0z"/><path fill-rule="evenodd" d="M19 19h2.23c.44 0 .77-.34.77-.78V14.8c0-.44-.33-.8-.77-.8h-4.64A2.59 2.59 0 0 0 14 16.59V39.4A2.59 2.59 0 0 0 16.59 42h22.8A2.6 2.6 0 0 0 42 39.41v-4.5c0-.45-.37-.91-.81-.91H37.8c-.44 0-.81.46-.81.9V37h-7V26H19v-7Zm6 18v-6h-6v6h6Z" fill="#2C2A25"/><path d="M26 14.72v3.62c0 .38.37.66.75.66H37v10.32c0 .39.22.68.6.68h3.7c.39 0 .7-.3.7-.68v-14.9c0-.22-.18-.42-.4-.42H26.75c-.38 0-.75.33-.75.72Z" fill="#00B337"/></svg>