<!-- by TradingView --><svg width="56" height="56" viewBox="0 0 56 56" xmlns="http://www.w3.org/2000/svg"><path fill="#F0F3FA" d="M0 0h56v56H0z"/><path d="M51 20h-4.06L44 23h4v4l3-2.92V20Z" fill="#01C4B3"/><path d="M10 28.5a4.4 4.4 0 0 0 4.33 4.5c1.6 0 2.6-.6 3.7-1.64L20 33.4A7.11 7.11 0 0 1 14.23 36C10.08 36 7 32.7 7 28.54v-.04c0-4.12 3.02-7.5 7.35-7.5 2.59 0 4.16.87 5.45 2.14l-2.12 2.2A4.87 4.87 0 0 0 14.33 24 4.39 4.39 0 0 0 10 28.46v.04ZM24 24h-4v-3h11v3h-4v12h-3V24Zm15.2 3-2.6 3H41v2.23c-.76.58-1.64.77-2.73.77-2.43 0-4.27-1.84-4.27-4.5v-.04c0-2.47 1.87-4.46 4.05-4.46 1.42 0 2.32.38 3.26 1.15l2.1-2.24A7.2 7.2 0 0 0 38.15 21C34.02 21 31 24.38 31 28.5v.04c0 4.29 2.92 7.46 7.17 7.46 2.14 0 4.21-.81 5.83-2.3V27h-4.8Z" fill="#2F3F4B"/></svg>