<!-- by TradingView --><svg width="56" height="56" viewBox="0 0 56 56" xmlns="http://www.w3.org/2000/svg"><path fill="#F0F3FA" d="M0 0h56v56H0z"/><path d="M41.43 14.77a5.85 5.85 0 0 1 .27 7.66 5.58 5.58 0 0 1-3.3 1.98c-11.45 2.1-13.8 11.2-14.2 13.32a5.86 5.86 0 0 1-1.13 3 5.47 5.47 0 0 1-8.42.58 5.81 5.81 0 0 1-1.32-6.03c.37-1.03 1-1.94 1.85-2.6a5.53 5.53 0 0 1 2.93-1.19C29.85 29.52 31.6 19.75 31.8 18.25c.13-1.48.8-2.84 1.89-3.82a5.52 5.52 0 0 1 7.74.34ZM18.5 24a5.5 5.5 0 1 0 0-11 5.5 5.5 0 0 0 0 11Zm19 19a5.5 5.5 0 1 0 0-11 5.5 5.5 0 0 0 0 11Z" fill="#ADDDD3"/></svg>