<!-- by TradingView --><svg width="56" height="56" viewBox="0 0 56 56" xmlns="http://www.w3.org/2000/svg"><path fill="#F0F3FA" d="M0 0h56v56H0z"/><path d="M11.16 26.35c.48-.9 1.57-.57 2.06-.3-.87.31-.75 2.57-.58 3.65.34 1.76 1.46 5.9 3.25 8.37 1.8 2.47 3.77 2.86 4.54 2.74.51.2 1.23.19 1.52.16a5.27 5.27 0 0 1-2.24.3c-3.1-.41-5.5-4.11-6.56-6.27-1.33-2.69-2.6-7.53-2-8.65Z" fill="url(#aqwpmaseh)"/><path d="M31.59 38.8c.33 3.1.86 4.53 1.08 4.86h.92a4.37 4.37 0 0 1-.73-1.42c-.3-.83-.73-4.84-.9-6.75l-.7-8.95-.56-5.47c-.11-1.52-.42-4.43-.63-5.92-.22-1.5-.69-4.3-1.4-4.88-.58-.47-.88.1-.96.46.16-.25.6-.46 1.09.73.5 1.18.96 4.72 1.13 6.34l.29 3.06.4 6.14.5 7.3c.02.22.13 1.42.47 4.5Z" fill="url(#bqwpmaseh)"/><path d="M34.27 42.2c-.63 1.23-1.37 1.44-1.66 1.4.98 1.32 2.26-.91 2.77-2.2A685.7 685.7 0 0 1 39.84 31c1.04-2.32 1.95-3.22 2.28-3.37-.03-.54-.34-1.36-1.39-.36-1.3 1.24-3.5 7.83-4.59 10.87a17.96 17.96 0 0 1-1.87 4.07Z" fill="url(#cqwpmaseh)"/><path d="M32.81 21.6c-1-1.55-2.34-.85-2.9-.3 3.33-.76 4.62 8.19 4.69 13.28.05 4.07-.6 4.58-.93 4.33l.6 1.09c.77-.12 2.11-1.87 1.4-7.9-.9-7.53-1.6-8.58-2.86-10.5Z" fill="url(#dqwpmaseh)"/><path d="M40.16 37.92a10.41 10.41 0 0 1-7.65 3.44v.46c1.9.16 3.8-.36 4.5-.63a10.95 10.95 0 0 0 6.82-7.61c.22-1.26.4-4.2-.62-5.95-1.03-1.75-2.19-.84-2.64-.17.2-.15.8-.2 1.47.78.84 1.21 1.38 6.03-1.88 9.68Z" fill="url(#eqwpmaseh)"/><path d="M24.83 36.77c-1.13 3.37-3.42 4.12-4.41 4.08.14.2.88.21 1.23.2.75-.14 1.47-.63 2.5-1.83a9.5 9.5 0 0 0 1.56-3.38l.88-3.65c.48-2 1.69-6.47 2.65-8.36.96-1.88 1.95-2.2 2.33-2.12-.04-.16-.78-.5-1.14-.66-.72.2-1.27.86-2.12 2.6-.67 1.4-1.67 5.2-2.08 6.93l-1.4 6.19Z" fill="url(#fqwpmaseh)"/><path d="M13.47 24.37c-1.8 0-2.4 1.7-2.47 2.55.28-.78 1.3-.91 1.78-.88 1.86.02 4.73 2.77 5.93 4.15l6.42 6.85c3.44 3.67 5.98 4.7 6.94 4.78l-.1-.62c-.35-.05-.43-.13-.6-.18-2-.49-5-3.42-6.24-4.82l-6.42-8.15c-1-1.23-3.44-3.68-5.24-3.68Z" fill="url(#gqwpmaseh)"/><path d="M33.37 38.23c.75 1.27 1.4 1.39 1.63 1.29-1.18 1.28-1.98.54-2.81-1.29a61.53 61.53 0 0 1-1.85-4.88c-.4-1.4-1.38-5.35-2.17-9.96-1-5.75-1.37-9.95-1.07-12.05.23-1.68 1.11-1.43 1.52-1.1-.56-.13-1.44.55-.99 4.97.46 4.42 1.56 9.71 2.28 12.77.72 3.05 2.52 8.67 3.46 10.25Z" fill="url(#hqwpmaseh)"/><defs><linearGradient id="aqwpmaseh" x1="12.5" y1="26.2" x2="19.46" y2="41.65" gradientUnits="userSpaceOnUse"><stop stop-color="#496832"/><stop offset=".16" stop-color="#8AC54A"/><stop offset=".66" stop-color="#7FC36E"/><stop offset="1" stop-color="#6BBEA6"/></linearGradient><linearGradient id="bqwpmaseh" x1="30.65" y1="10.09" x2="30.65" y2="43.66" gradientUnits="userSpaceOnUse"><stop stop-color="#346278"/><stop offset=".04" stop-color="#4E98CE"/><stop offset=".43" stop-color="#567EBA"/><stop offset=".95" stop-color="#5870AF"/><stop offset="1" stop-color="#3B3D62"/></linearGradient><linearGradient id="cqwpmaseh" x1="41.43" y1="27.63" x2="33.71" y2="43.89" gradientUnits="userSpaceOnUse"><stop offset=".01" stop-color="#761859"/><stop offset=".1" stop-color="#AA2285"/><stop offset="1" stop-color="#5C539B"/></linearGradient><linearGradient id="dqwpmaseh" x1="32.89" y1="20.65" x2="32.89" y2="40" gradientUnits="userSpaceOnUse"><stop stop-color="#5779B6"/><stop offset=".7" stop-color="#5C378B"/><stop offset="1" stop-color="#2B1C41"/></linearGradient><linearGradient id="eqwpmaseh" x1="41.96" y1="27.21" x2="32.26" y2="42.13" gradientUnits="userSpaceOnUse"><stop stop-color="#D21584"/><stop offset=".52" stop-color="#C51A84"/><stop offset=".76" stop-color="#752B86"/><stop offset="1" stop-color="#41446D"/></linearGradient><linearGradient id="fqwpmaseh" x1="30.24" y1="21.58" x2="21.15" y2="40.92" gradientUnits="userSpaceOnUse"><stop stop-color="#273549"/><stop offset=".07" stop-color="#4D99D0"/><stop offset=".14" stop-color="#418FB2"/><stop offset=".25" stop-color="#41BAE9"/><stop offset=".66" stop-color="#53BCD5"/><stop offset=".74" stop-color="#4894A2"/><stop offset=".81" stop-color="#56BCCD"/><stop offset="1" stop-color="#3E685E"/></linearGradient><linearGradient id="gqwpmaseh" x1="11.62" y1="25.62" x2="32.6" y2="41.06" gradientUnits="userSpaceOnUse"><stop stop-color="#8AC547"/><stop offset=".33" stop-color="#71C097"/><stop offset=".69" stop-color="#50BBD9"/><stop offset="1" stop-color="#4C5C8B"/></linearGradient><linearGradient id="hqwpmaseh" x1="31" y1="10" x2="33.38" y2="39.82" gradientUnits="userSpaceOnUse"><stop stop-color="#3FBAEB"/><stop offset=".33" stop-color="#42B5E7"/><stop offset=".7" stop-color="#5288C2"/><stop offset="1" stop-color="#5C559B"/></linearGradient></defs></svg>