<!-- by TradingView --><svg width="56" height="56" viewBox="0 0 56 56" xmlns="http://www.w3.org/2000/svg"><path fill="#181B1E" d="M0 0h56v56H0z"/><path d="M21.6 21h-2.2a.4.4 0 0 0-.4.4v13.2c0 .22.18.4.4.4h2.2a.4.4 0 0 0 .4-.4V21.4a.4.4 0 0 0-.4-.4ZM11.03 21H6.4c-.2 0-.39.19-.39.4v1.24c0 .71.58 1.36 1.33 1.36h3.46a4.08 4.08 0 0 1 4.2 4c.03 2.26-1.8 4-4.14 4H7.33c-.35 0-.68.15-.93.4-.5.52-.39 1.54-.39 2.2 0 .21.19.4.4.4h4.71A7.03 7.03 0 0 0 18 28a7.1 7.1 0 0 0-6.97-7ZM44.97 21h4.63c.2 0 .39.19.39.4v1.24c0 .71-.58 1.36-1.33 1.36H45.2a4.08 4.08 0 0 0-4.2 4c-.03 2.26 1.8 4 4.14 4h3.53c.35 0 .68.15.93.4.5.52.39 1.54.39 2.2 0 .21-.19.4-.4.4h-4.71A7.03 7.03 0 0 1 38 28a7.1 7.1 0 0 1 6.97-7Z" fill="#fff"/><path d="M7.5 25c-.4 0-.78.15-1.06.42a1.4 1.4 0 0 0-.44 1v3.15c0 .38.16.74.44 1.01S7.1 31 7.5 31s.78-.15 1.06-.42.44-.63.44-1v-3.15c0-.38-.16-.74-.44-1.01A1.54 1.54 0 0 0 7.5 25Z" fill="#FF2400"/><path d="M36.62 30.25h-1.47a2.08 2.08 0 0 0-1.52.65c-.89.98-2.13 1.1-3.58 1.1A3.84 3.84 0 0 1 26 28c0-2.3 1.86-4 4.34-4 1.27 0 2.43.17 3.26 1.07.39.43.96.68 1.54.68h1.48c.2 0 .36-.15.38-.33 0-.06 0-.12-.03-.18a7.32 7.32 0 0 0-6.92-4.23A7.2 7.2 0 0 0 23 28c0 3.63 3.15 6.88 7.05 6.99a7.3 7.3 0 0 0 6.92-4.24c.1-.23-.08-.51-.35-.5Z" fill="#fff"/><path d="M50 28.5c0-.4-.15-.78-.42-1.06a1.4 1.4 0 0 0-1-.44h-3.15c-.38 0-.74.16-1.01.44S44 28.1 44 28.5s.15.78.42 1.06.63.44 1 .44h3.16c.37 0 .74-.16 1-.44.27-.28.42-.66.42-1.06Z" fill="#007DED"/><path d="M35.5 30a1.5 1.5 0 1 0 0-3 1.5 1.5 0 0 0 0 3Z" fill="#FFD400"/></svg>