<!-- by TradingView --><svg width="56" height="56" viewBox="0 0 56 56" xmlns="http://www.w3.org/2000/svg"><path fill="#31629D" d="M0 0h56v56H0z"/><path fill-rule="evenodd" d="M21.6 21H23v1h-1.4v-1Zm0 1.5H23V26h-1.4v-3.5ZM17 21v5h2.25c.6 0 1.75-.3 1.75-2.4S19.92 21 19.42 21H17Zm1.3 1v3h.79c.2 0 .61-.17.61-1.43 0-1.27-.38-1.57-.55-1.57h-.85ZM29 21h-1.4v1H29v-1Zm0 1.5h-1.4V26H29v-3.5Zm-2-.5h-1.4v.73c-.23-.44-.61-.73-1.04-.73-.7 0-1.28.79-1.28 1.76s.57 1.76 1.28 1.76c.43 0 .8-.28 1.04-.72v.8c0 .3-.37.55-.71.55-.28 0-.46-.27-.52-.41h-1.02c-.05.42.2 1.26 1.54 1.26s2.08-.84 2.11-1.26V22Zm-2.05 2.61c.32 0 .58-.38.58-.85s-.26-.85-.58-.85c-.31 0-.57.38-.57.85s.26.85.57.85ZM30 23v2.09c.03.3.27.91 1 .91.5 0 .99-.13 1.08-.2l-.08-.87a.69.69 0 0 1-.39.16c-.19 0-.21-.2-.21-.44V23h.6v-1h-.6v-1l-1.4.7v.3h-.32v1H30Zm3.72.32h-1.17c0-.44.36-1.32 1.75-1.32 1.26 0 1.66.81 1.7 1.22v2.16c0 .25.13.52.2.62h-1.6v-.62a2.6 2.6 0 0 0-.07.1c-.16.21-.37.52-.88.52a1.2 1.2 0 0 1-1.2-1c0-1.13 1.16-1.32 1.85-1.43.08 0 .15-.02.21-.03.64-.12.2-.6-.21-.6a.65.65 0 0 0-.58.38Zm.98.83c-.03.3-.21.9-.72.9-.63 0-.85-.64.72-.9ZM36.6 21H38v5h-1.4v-5ZM6.5 29H4v1h1.5v4h1v-4H8v4h1v-2.5c.17-.23.37-.38.5-.38.26 0 .43.14.5.21l.43-1.06S10.2 30 9.66 30c-.28 0-.5.16-.66.36V30H8v-1H6.5ZM29 30h-1v4h1v-2.24c.16-.38.43-.64.6-.64.22 0 .38.14.43.21l.4-1.06s-.2-.27-.7-.27c-.34 0-.59.3-.73.59V30Zm-18.25 1.22 1.14.23c.05-.17.23-.5.56-.5.41 0 .55.18.55.27 0 .1-.01.2-.66.38a9.9 9.9 0 0 1-.24.06c-.63.15-1.43.35-1.43 1.3C10.67 34 11.7 34 11.88 34c.16 0 .8-.09 1.12-.67V34h1.26c-.1-.08-.26-.33-.26-.73v-2.05c.02-.4-.3-1.22-1.63-1.22-1.15 0-1.56.81-1.62 1.22Zm2.25 1v.31c-.09.17-.39.52-.89.52-.63 0-1-.72.89-.83Zm24.78-.77-1.2-.23c.07-.4.5-1.22 1.7-1.22 1.4 0 1.74.81 1.72 1.22v2.05c0 .4.16.65.26.73H39v-.67c-.33.58-1.06.67-1.22.67-.18 0-1.28 0-1.28-1.05 0-.94.84-1.14 1.5-1.3l.25-.05c.68-.18.75-.29.75-.38 0-.09-.2-.28-.63-.28-.34 0-.54.34-.6.51ZM39 32.53v-.31c-1.51.11-1.35.83-.85.83.4 0 .78-.35.85-.52Zm-23-1.8c.21-.32.6-.73 1.15-.73.85 0 .85.9.85 1.5V34h-1v-2.33c.02-.22 0-.67-.35-.67-.3 0-.54.43-.65.74V34h-1v-4h1v.72ZM31 34v-4h1v.8c.21-.36.58-.8 1.12-.8.52 0 .74.35.82.77.22-.35.58-.77 1.1-.77.87 0 .96.96.96 1.57V34h-1v-2.19c.02-.22-.1-.67-.45-.67-.23 0-.42.26-.55.53V34h-1v-2.19c.02-.22-.03-.67-.38-.67-.28 0-.5.39-.62.7V34h-1Zm18 0h-1v-4h1v.75c.21-.34.57-.75 1.07-.75.84 0 .93.96.93 1.57V34h-1v-2.3c.01-.22-.07-.7-.42-.7-.26 0-.46.36-.58.66V34Zm-30.7-1.15 1.05-.14c.04.19.2.57.55.57.34 0 .44-.25.45-.37.01-.08-.06-.26-.45-.37a4.02 4.02 0 0 0-.23-.05c-.5-.1-1.2-.24-1.2-1.27 0-1.19 1.17-1.22 1.43-1.22h.02c.28 0 1.07 0 1.34 1.1l-1.05.12c-.03-.14-.16-.42-.45-.42-.37 0-.47.5-.12.57l.18.04c.5.07 1.52.23 1.52 1.3 0 1.23-1.2 1.29-1.54 1.29-.33 0-1.25-.06-1.5-1.15ZM22 30.5v-.55c.02-.32.26-.95 1.02-.95s.93.1.93.14l-.2.9c-.04-.05-.15-.16-.3-.16-.18 0-.45.16-.45.38v.24h.5v1H23V34h-1v-2.5h-.5v-1h.5Zm5.5 1.5c0 1.1-.78 2-1.75 2S24 33.1 24 32s.78-2 1.75-2 1.75.9 1.75 2Zm-1 0c0 .55-.34 1-.75 1s-.75-.45-.75-1 .34-1 .75-1 .75.45.75 1ZM46 34c.97 0 1.75-.9 1.75-2s-.78-2-1.75-2-1.75.9-1.75 2 .78 2 1.75 2Zm0-1c.41 0 .75-.45.75-1s-.34-1-.75-1-.75.45-.75 1 .34 1 .75 1Zm-5.24-.05V31.5h-.5v-1h.5v-.78l1-.67v1.45h.5v1h-.5v1.26c0 .11.17.36.4.36.18 0 .36-.1.42-.17v.9c-.15.05-.53.15-.85.15-.75 0-.96-.7-.97-1.05ZM44 29h-1v1h1v-1Zm0 1.3h-1V34h1v-3.7Z" fill="#fff"/></svg>