<!-- by TradingView --><svg width="56" height="56" viewBox="0 0 56 56" xmlns="http://www.w3.org/2000/svg"><path fill="#F0F3FA" d="M0 0h56v56H0z"/><path d="M7 27v-4c-1.6 0-2 1.33-2 2v6c0 1.6 1.33 2 2 2v-4h9v-2H7Z" fill="#009CFF"/><path d="M9 25v-2h9v2H9ZM9 33v-2h9v2H9Z" fill="#009CFF"/><path fill-rule="evenodd" d="M19 25v8h7.5c1 0 2.5-.5 2.5-2.5 0-1.6-1-2.5-1-2.5s1-.5 1-2.5-1.5-2.5-3-2.5h-7v2Zm2 0v2h5c.33 0 1-.2 1-1s-.67-1-1-1h-5Zm0 4v2h5c.33 0 1-.2 1-1s-.67-1-1-1h-5Z"/><path d="M40 23H30v10h10v-2h-8v-2h6v-2h-6v-2h8v-2ZM51 23H41v2h4v8h2v-8h4v-2Z"/></svg>