<!-- by TradingView --><svg xmlns="http://www.w3.org/2000/svg" width="56" height="56" viewBox="0 0 56 56"><path fill="#203467" d="M0 0h56v56H0z"/><path fill-rule="evenodd" d="M33 21.5a1.5 1.5 0 1 1-3 0 1.5 1.5 0 0 1 3 0Zm-.68 0a.82.82 0 1 1-1.64 0 .82.82 0 0 1 1.64 0ZM9.23 23a5.1 5.1 0 0 0-3.98 1.68l.67.66A4.92 4.92 0 0 1 9.15 24c1.36-.02 1.86.97 1.85 1.44v.7c-4.9.71-6.01 2.57-6 3.74.01 1.17.86 2.15 2.63 2.12 1.41-.02 2.9-.8 3.37-1.2V32h1v-6.56c-.03-.42-.16-2.36-2.77-2.44ZM6 29.7c.03-1.65 3.35-2.5 5-2.72v2.73c-1.62 1.33-5.04 2.07-5 0ZM32 24h-1v8h1v-8Zm-11 8v-6.75c.01-.73-.47-2.2-2.47-2.25A4.29 4.29 0 0 0 15 24.7V23h-1v9h1v-6.36C15.63 25 16.96 24 18.28 24c1.44 0 1.72 1.25 1.72 2.15V32h1Zm30-6.75V32h-1v-5.85c0-.9-.28-2.15-1.72-2.15-1.32 0-2.65 1-3.28 1.64V32h-1v-9h1v1.7c.5-.69 1.72-1.75 3.53-1.7 2 .05 2.48 1.52 2.47 2.25ZM26 29a3 3 0 1 0 0-6 3 3 0 0 0 0 6Zm0-1a2 2 0 1 0 0-4 2 2 0 0 0 0 4Zm0 10a4 4 0 1 0 0-8 4 4 0 0 0 0 8Zm0-1a3 3 0 1 0 0-6 3 3 0 0 0 0 6Zm17-9.5a4.5 4.5 0 1 1-9 0 4.5 4.5 0 0 1 9 0Zm-1 0a3.5 3.5 0 1 1-7 0 3.5 3.5 0 0 1 7 0Z" fill="#fff"/></svg>