<!-- by TradingView --><svg xmlns="http://www.w3.org/2000/svg" width="56" height="56" viewBox="0 0 56 56"><path fill="#F0F3FA" d="M0 0h56v56H0z"/><path d="M23.15 38.26 26.95 20s3.56 1.7 4.33 3.91c.5 1.41 0 3.73 0 3.73L26.96 48c-2.06-1.44-4.46-3.54-4.46-5.84 0-1.61.65-3.9.65-3.9Z" fill="#016AD5"/><path d="M15.61 29.89 19.71 11s3.35 1.76 4.08 4.06c.47 1.46 0 3.88 0 3.88L19.21 40C17.27 38.5 15 36.32 15 33.94c0-1.67.61-4.05.61-4.05ZM37.52 14 31.4 42s2.6-.6 4.73-2c1.5-1 2.24-3.19 2.24-3.19l3.3-14.16s.33-1.34.33-2.28c0-.93-.28-1.9-.94-2.93C39.9 15.58 37.52 14 37.52 14Z" fill="#379DFF"/></svg>