<!-- by TradingView --><svg xmlns="http://www.w3.org/2000/svg" width="56" height="56" viewBox="0 0 56 56"><path fill="url(#afvzkmrrs)" d="M0 0h56v56H0z"/><path d="M5 25H4v6h2v-3s.5 1.5.85 1.5H9.5V28H6v-1.5h4V25H5Zm23 0h-2v6h2v-3.75s.52 1.5.9 1.5H31V31h2v-6h-2v2.25h-3V25Zm22 2.25L48.08 31h-1.27L45 27.21V31h-1.94v-6h2.56l1.85 3.8 1.62-3.29c.08-.17.32-.51.66-.51h1.4l-1.02 2H52v4h-2v-3.75ZM19 25h6v1.5h-6V25Zm4 1.5V31h-2v-3.18c0-.6 2-1.32 2-1.32ZM13.13 25h2.06l-.72 1.5h1.43a1 1 0 0 1 .9.56L18.75 31h-2.07l-2.22-4.49L12.31 31h-2.06l2.88-6Zm20.93 1.5A2 2 0 0 1 36 25h4a2 2 0 0 1 2 2v2a2 2 0 0 1-2 2h-4a2 2 0 0 1-2-2v-1.3c.1-.12.27-.27.52-.41l1.48-.77v1.98a1 1 0 0 0 1 1h2a1 1 0 0 0 1-1v-1a1 1 0 0 0-1-1H34.06Z" fill="#D6FD00"/><defs><linearGradient id="afvzkmrrs" x1="10.42" y1="9.71" x2="68.15" y2="76.02" gradientUnits="userSpaceOnUse"><stop stop-color="#1A1E21"/><stop offset="1" stop-color="#06060A"/></linearGradient></defs></svg>