<!-- by TradingView --><svg width="56" height="56" viewBox="0 0 56 56" xmlns="http://www.w3.org/2000/svg"><path fill="#F0F3FA" d="M0 0h56v56H0z"/><path fill-rule="evenodd" d="M18.55 26H18v4.9h1.3v-1.58h.8a1.66 1.66 0 0 0 0-3.32h-1.55Zm.75 1v1.32h.5a.66.66 0 1 0 0-1.32h-.5Z"/><path d="M22 26h2.02a1.7 1.7 0 0 1 .78 3.2l1.06 1.8h-1.5l-.95-1.61h-.11v1.6H22V26Zm1.3 2.35h.47a.68.68 0 0 0 0-1.35h-.47v1.35ZM5 26h3v1H6.3v1H8v1H6.3v2H5v-5ZM13.7 26h-1.05v1h1.05v4H15v-4h1v-1h-2.3ZM34.11 26H34v5h3v-1h-1.7v-1H37v-1h-1.7v-1H37v-1H34.1ZM43.7 26h-1.02v1.02h1.02V31H45v-3.98h1V26h-2.3ZM7.93 31l1.65-5h1.57l1.68 5h-1.37l-.31-1H9.58l-.31 1H7.93Zm1.96-2h.94l-.48-1.51L9.9 29Z"/><path fill-rule="evenodd" d="M28.5 31a2.5 2.5 0 1 0 0-5 2.5 2.5 0 0 0 0 5Zm0-1.27a1.24 1.24 0 1 0 0-2.47 1.24 1.24 0 0 0 0 2.47Z"/><path d="M33.3 26v3.34c.01.52-.29 1.59-1.72 1.66H31v-1h.42c.23-.03.59-.32.58-.95V27h-1v-1h2.3ZM42.1 30.3c-.48.43-1.12.7-1.83.7a2.57 2.57 0 0 1-2.64-2.5c0-1.38 1.18-2.5 2.64-2.5.73 0 1.4.28 1.87.74l-.91.9a1.37 1.37 0 0 0-1.04-.46c-.75 0-1.36.59-1.36 1.32 0 .73.6 1.32 1.36 1.32.4 0 .76-.17 1.01-.44l.9.92Z"/><circle cx="51.27" cy="30.27" fill="#8DDFD8" r=".73"/><path d="M48.24 26c1.39.02 1.8 1.02 1.82 1.52h-1.32c0-.21-.2-.55-.6-.5-.33.03-.48.2-.51.29-.08.14.03.5 1.11.76s1.33 1.1 1.32 1.48c0 .48-.39 1.45-1.93 1.45s-1.88-1.04-1.86-1.56h1.22c.12.4.47.5.64.5.17 0 .57-.08.55-.4-.02-.3-.36-.38-1.2-.65-.83-.26-1.17-.87-1.16-1.37.01-.5.18-1.54 1.92-1.52Z"/></svg>