<!-- by TradingView --><svg width="56" height="56" viewBox="0 0 56 56" xmlns="http://www.w3.org/2000/svg"><path fill="url(#aqv3g214g)" d="M0 0h56v56H0z"/><path d="m20.3 30-3.32-4H26v-2.78H14.7L11.8 20h31.96l-3.38 3H30v8h11.12l-4.14 4.03h-4.42L26 41.1V30h-5.7Z" fill="#fff"/><path d="m45.6 19-4.85 5H31v6h12.34l-5.98 6H32.9L25 42.63V31h-5.16l-4.98-6.05H25V24H14.24l-4.18-5H45.6Zm2.4-1H8l1.06 1.26 3.79 4.49.37.43 1.06 1.26 3.4 4.03 1.8 2.53H24v13l1.07-1.1 8.11-6.9h4.49l6.4-6.62 1.3-1.38H32v-4.03h9.07l.22-.22 5.41-5.44L48 18Z" fill="#ED0335"/><defs><linearGradient id="aqv3g214g" x1="10.42" y1="9.71" x2="68.15" y2="76.02" gradientUnits="userSpaceOnUse"><stop stop-color="#1A1E21"/><stop offset="1" stop-color="#06060A"/></linearGradient></defs></svg>