<!-- by TradingView --><svg width="56" height="56" viewBox="0 0 56 56" xmlns="http://www.w3.org/2000/svg"><path fill="#0046AD" d="M0 0h56v56H0z"/><path d="M11.63 28h.3c1.8 0 2.84-.64 3.26-2.07.41-1.42-.29-2.14-2.09-2.14h-.3L11.64 28Zm2.95 7-2.08-5H11l-1.48 5H6l4.1-14h5.08c3.08 0 4.41 1.7 3.58 4.56a5.82 5.82 0 0 1-3 3.47l-.24.13L17.84 35h-3.26Z" fill="#DC1A25"/><path d="M20.4 24H23l-.37 1.32H21.3l-.15.52h1l-.37 1.32h-1l-.14.52h1.34L21.6 29H19l1.4-5ZM25.29 26.42h.28c.5 0 .76-.3.86-.62.1-.32.03-.62-.47-.62h-.28l-.4 1.24Zm-.7-2.42h1.93c1.3 0 1.72.7 1.35 1.85-.43 1.36-1.59 1.85-2.99 1.83L24.46 29H23l1.6-5ZM29.78 24h1.34l-1.14 3.1c-.1.33-.1.59.25.59.34 0 .52-.26.62-.59L32 24h1.4l-1.2 3.3c-.37 1.14-1.2 1.7-2.38 1.7s-1.66-.56-1.3-1.7l1.26-3.3ZM34.8 27.9h.36c.44 0 .63-.3.68-.47.12-.37-.21-.43-.45-.43h-.32l-.28.9Zm.6-1.9h.35c.16 0 .56 0 .69-.42.13-.42-.27-.42-.43-.42h-.34l-.27.84Zm-.82-2h2.19c1.1 0 1.39.65 1.15 1.39-.24.76-.82.98-1.05 1.08.1.06.64.32.39 1.13-.16.5-.82 1.4-2.18 1.4H33l1.58-5ZM39.85 24h1.69l-1.36 3.68H42L41.51 29H38l1.85-5ZM45.1 24H47l-2.1 5H43l2.1-5ZM49.4 27.57c-.62 0-.99-.48-.8-1.07.17-.6 1.13-1.34 1.95-.95l.45-1.5a2.49 2.49 0 0 0-.52-.05c-1.45 0-3 .92-3.4 2.5-.35 1.4.43 2.5 1.9 2.5.17 0 .36-.02.54-.05l.45-1.48c-.2.07-.37.1-.57.1ZM29.03 34.36h-2.19l.33-1.07h2.27c.42 0 .56.18.45.56-.1.34-.38.5-.86.5Zm-1.35-2.72h2.24c.17 0 .28.05.35.14.06.09.07.2.02.36a.7.7 0 0 1-.26.36.71.71 0 0 1-.44.15h-2.22l.3-1Zm2.57 1.3c.35-.2.58-.48.69-.83.1-.34.08-.6-.07-.8-.16-.2-.42-.31-.78-.31h-2.86L26 35h2.82c.46 0 .83-.09 1.11-.26.29-.18.49-.45.6-.8.15-.5.06-.84-.28-1ZM32.7 33.37l1.2-1.74.28 1.74h-1.49ZM33.73 31 31 35h.57l.68-1h2.05l.13 1H35l-.6-4h-.66ZM39 35l-1.36-3.17-.98 3.17H36l1.21-4H38l1.36 3.18.98-3.18H41l-1.21 4H39ZM45 35h-.83l-1.15-2-1 .79-.38 1.21H41l1.22-4h.64l-.61 2L45 31h.94l-2.25 1.52L45 35Z" fill="#fff"/></svg>