<!-- by TradingView --><svg xmlns="http://www.w3.org/2000/svg" width="56" height="56" viewBox="0 0 56 56"><path fill="#F0F3FA" d="M0 0h56v56H0z"/><path fill-rule="evenodd" d="M12 22h8v3h-2v-1h-3v3h3v2h-3v2h1v2h-4v-2h1v-7h-1v-2zm10 0h5.64c2.02 0 3.36 1.45 3.36 3.5 0 1.6-.8 2.82-2.12 3.3l1.54 2.2H32v2h-3.09l-2.82-4H25v2h1v2h-4v-2h1v-7h-1v-2zm5.22 5H25v-3h2.22c.88 0 1.78.61 1.78 1.5s-.9 1.5-1.78 1.5zM41 32.5h-.2a5.5 5.5 0 1 1 .2-9.9V22h2v3h-2v-.01a3.55 3.55 0 0 0-6 2.51 3.55 3.55 0 0 0 5.4 2.97V30H39v-2h4v5h-2v-.5z" fill="#1E1D55"/><path d="M8 19h33.65v1H9v15h37V23.83h1V36H8V19z" fill="#1E1D55"/><path d="M44 18h-3v3h3v-3zm1.33 6h2.32l-1.14-2-1.18 2z" fill="#1E1D55"/></svg>