<!-- by TradingView --><svg xmlns="http://www.w3.org/2000/svg" width="56" height="56" viewBox="0 0 56 56"><path fill="#F0F3FA" d="M0 0h56v56H0z"/><path d="M28 27h-4l4-3.08V27zm17 2.5c-.07-1.64-1.02-2.5-2.7-2.5H36v-3h9v-3H33v6h-2v-6h-3.77l-8.6 6H14v-3h6.09l4.56-3H11v13h3v-4h14.02v5H31v-5h10.7l.3 1h-9v4h9.3c1.73 0 2.7-1.5 2.7-3.18V29.5zM48 18H8v19h10v-3.95h6.97V38H42.3c3.3 0 5.7-2.6 5.7-6.18V18zm-2 2v6h-1.44c1.03.73 1.37 1.84 1.44 3.43v2.39c0 2.62-1.33 4.18-3.7 4.18H27v-5H16v4h-6V20h36z" fill="#1C165B"/></svg>