<!-- by TradingView --><svg width="56" height="56" viewBox="0 0 56 56" xmlns="http://www.w3.org/2000/svg"><path fill="#F0F3FA" d="M0 0h56v56H0z"/><path d="M6 23v-1h8v1H6Zm0 1.5V34h1.5v-5.5H13V27H7.5v-2.5H6Zm13.33 0L16 34h1.66l1.2-3.5h5.5l1.16 3.5h1.76l-3.5-9.5h-1.42l1.5 4.5h-4.48l1.54-4.5h-1.6Zm10.13 0c-.04.18-.06.38-.06.59 0 2.47 2.39 3.09 5.03 3.39 2.64.3 3.06 1.48 3.06 2.02 0 .53-.37 2.08-3.43 2.08A3.44 3.44 0 0 1 30.55 30h-1.59c.62 3.12 3.34 4 4.96 4s4.93-.28 4.93-3.38c0-2.88-2.12-3.2-4.49-3.55l-.55-.08c-2.59-.4-2.8-1.19-2.8-2.18 0-.1.02-.21.07-.31h-1.62Zm7.47-1.5h-6.47c1.01-.77 2.52-1 3.46-1 .97 0 2.2.35 3.01 1Zm7.57 1.5V34H46v-9.5h-1.5ZM50 23h-9.43v-1H50v1Zm-26.77 0h-3.38l.35-1h2.66l.37 1Z" fill="#010101"/></svg>