<!-- by TradingView --><svg width="56" height="56" viewBox="0 0 56 56" xmlns="http://www.w3.org/2000/svg"><path fill="#F0F3FA" d="M0 0h56v56H0z"/><path d="M22.56 26c-.08-.71-1.06-1-1.66-1-.94 0-1.7.56-1.7 1.23 0 .74.95.96 1.55 1.11 1.27.34 2.96.76 2.96 2.39 0 1.53-1.45 2.27-2.84 2.27-1.73 0-2.8-.88-2.87-2.27h1.05c.07.84.92 1.27 1.81 1.27.76 0 1.89-.38 1.89-1.27 0-.69-.86-1.13-1.69-1.35-1.23-.34-2.85-.57-2.85-2.15 0-1.47 1.4-2.23 2.71-2.23 1.16 0 2.65.66 2.68 2h-1.04ZM26 32v-8h2.36c1.47 0 2.64 1 2.64 2.48 0 1.59-1.12 2.52-2.64 2.52h-1.64v-1h1.78c.93 0 1.5-.4 1.5-1.52 0-.9-.6-1.48-1.52-1.48h-1.45v7H26ZM32.6 32h-1.1l2.76-8h1.33l2.76 8H37.3l-2.38-6.75L32.59 32Zm.33-3h3.99v1h-3.99v-1ZM45.56 26.63H44.4A1.94 1.94 0 0 0 42.48 25C41.16 25 40 26.1 40 27.99c0 1.42.9 3.01 2.48 3.01.98 0 1.73-.66 1.92-1.63h1.16a3.06 3.06 0 0 1-3.09 2.6C40.3 31.98 39 30.06 39 28c0-2.02 1.24-3.99 3.47-3.99 1.63 0 2.83.95 3.1 2.63ZM50.93 27.68a.78.78 0 0 0-.32-.58c-.2-.14-.44-.2-.74-.2-.22 0-.4.03-.55.1a.82.82 0 0 0-.36.26.67.67 0 0 0-.04.71c.06.09.13.17.22.23a3.3 3.3 0 0 0 .66.26l.53.13c.22.06.42.12.62.21s.38.2.54.33c.15.14.28.3.37.48.1.2.14.41.14.66 0 .35-.08.65-.25.9a1.7 1.7 0 0 1-.74.61c-.32.15-.7.22-1.16.22-.44 0-.82-.07-1.15-.21a1.72 1.72 0 0 1-.76-.62c-.18-.27-.28-.6-.3-.98h1.02a.9.9 0 0 0 .6.8c.17.07.37.1.58.1.22 0 .42-.03.59-.1.17-.07.3-.16.4-.29.1-.12.17-.27.17-.43a.59.59 0 0 0-.16-.38.95.95 0 0 0-.35-.25 3.38 3.38 0 0 0-.54-.18l-.64-.17a2.57 2.57 0 0 1-1.1-.56c-.28-.26-.41-.6-.41-1.01 0-.34.09-.64.27-.9.18-.26.43-.46.74-.6.32-.15.67-.22 1.07-.22s.75.07 1.06.22c.3.14.54.34.71.6.18.24.27.53.27.86h-.99ZM12.61 25.89C12.2 24.62 11.02 24 9.71 24 7.44 24 6 25.89 6 27.99 6 30.15 7.46 32 9.75 32c1.7 0 3.16-1.08 3.27-3H10v-2h5v2.13C15 32.07 12.62 34 9.74 34 6.34 34 4 31.4 4 28.01 4 24.74 6.22 22 9.67 22c2.38 0 4.82 1.38 5.23 3.89H12.6ZM16 21h1v14h-1z" fill="#012042"/></svg>