<!-- by TradingView --><svg width="56" height="56" viewBox="0 0 56 56" xmlns="http://www.w3.org/2000/svg"><path fill="#F0F3FA" d="M0 0h56v56H0z"/><path d="M17.4 10c.92.79 1.98 1.39 3 2.06 3.65 2.44 7.35 4.84 11 7.3a12.8 12.8 0 0 1 5.55 8.19c.13.6.34 1.19.35 1.93l-1.97-1.27a28772.61 28772.61 0 0 1-17.57-11.63c-1.71-1.17-2.07-2.42-1.52-4.53.2-.75.6-1.4 1.05-2.05h.11Zm20.34 21.39c.39 2.24.68 4.46.88 6.8l-1.36-.86-17.85-11.8-.64-.44c-1.4-.99-1.73-2.34-1.4-3.9.19-.9.6-1.76 1.19-2.5l19.18 12.7ZM20.3 27.45l18.44 12.28c.16 2.1.28 4.18.26 6.27-.35.01-.53-.2-.73-.34-5.7-3.78-11.4-7.56-17.08-11.35-.5-.3-.95-.66-1.36-1.07-.96-1.04-.99-2.26-.67-3.51.2-.84.59-1.61 1.14-2.28Z" fill="#D8A284"/></svg>