<!-- by TradingView --><svg width="56" height="56" viewBox="0 0 56 56" xmlns="http://www.w3.org/2000/svg"><path fill="#F0F3FA" d="M0 0h56v56H0z"/><path d="M40.2 36.57c-.87-.14-1.75-.34-2.62-.53-2.5-.55-4.96-1.29-7.44-1.94-.32-.15-.62-.33-1.05-.17-.4.3-.69.71-.81 1.19.22.74.82.8 1.42.84.36.25.92.25 1.08.83a1.25 1.25 0 0 1-.45 1c-3.18 0-15.65-4.61-17.86-6.47-.1.76.2 1.34.5 1.86.23.37.57.74 1.12.69 2.43 1.86 6.23 3.18 8.93 3.71.46.15.85.37.93.9l-.09.38c-1.65.98-7.32-3.01-9.69-3.13-.07-.21-.2-.13-.01.01.21.72.46 1.42 1.3 1.68 4.44 2.78 10.21 3.91 15.24 5.34 1.04.3 1.82.03 2.64-.67a135.3 135.3 0 0 1-7.29-1.96c-.35-.71-.34-.75.2-1.3.67-.05 1.27.3 1.92.34a53.2 53.2 0 0 0 6.37 1.74c.46-.37.9-.71 1.2-1.25-.92-.6-2.04-.47-2.93-.96-.33-.62-.13-1.08.33-1.48.36-.06.74-.03 1.1.07 1.2.3 2.4.64 3.64.87.8.14 1.59.43 2.48.26.28-.33.6-.65.76-1.08-.1-.51-.44-.69-.91-.77Z" fill="url(#af2f31510)"/><path d="M37.74 28.91c.1.32.25.54.5.6 1.25.3 2.48.67 3.8.77.5-.52.88-.97.97-1.52-.12-.32-.3-.53-.55-.57-1.3-.2-2.54-.72-3.87-.69-.39.47-.74.9-.85 1.41Z" fill="#E0271E"/><path d="M15.25 30.87a89.8 89.8 0 0 0 11.42 4.22c.66-.23.88-.73 1.08-1.17-.02-.52-.32-.69-.68-.8-1.3-.4-2.68-1.07-4.04-1.25-.31-.25-.75-.3-1.03-.6.01-.75.18-1.42 1.02-1.72 5.65 1.66 11.06 3.65 16.87 4.88.72-.47.77-.54 1.18-1.47-.08-.4-.34-.58-.73-.66-.63-.13-1.26-.28-1.88-.44l-5.7-1.48c-.5-.18-1.03-.33-1.1-.96.31-.43.33-1.04.85-1.34 1.3.03 2.44.7 3.74.87.53-.5 1.13-.94.94-1.89-2.58-1.1-6.36-2.4-9.2-2.76l-.65-.37c-.13-.7.01-1.3.64-1.73.5-.06.95.3 1.56.2.15-.52.7-.91.56-1.6-5.18-2.12-8.73-2.45-11.93-5.21l-1.43 1.19c0 .14.01.29.04.43.1.3.4.39.64.53 2.37 1.35 5.12 3 7.88 3.3.53 1.05.32 1.6-.78 2.05-.3-.26-.69-.33-1.07-.4-2.78-1.5-5.73-1.85-8.26-4.01-.78.92-.97 1.32-.98 2 .18.21.4.4.63.54 4.23 2.7 9.04 4.13 15.27 6.14-.03 1.18-.35 1.64-1.26 1.82-4.66-1.36-7.74-2.87-11.53-4.32a19.06 19.06 0 0 1-3.96-2.06.33.33 0 0 0-.44-.02l-.52 1.89c1.65 1.53 5.37 3.32 7.78 3.74.51 1.1.12 1.89-1.05 2.05-2.1-.82-3.63-1.49-5.1-2.27-.63-.34-1.16-.89-1.9-1.09-.2.41-.07.8-.12 1.18-.07.63.23 1.05.77 1.36.8.46 1.62.87 2.47 1.23Z" fill="url(#bf2f31510)"/><path d="M42.6 32.82c-.53.4-.78.9-1.06 1.52.63.9 1.65.62 2.43.95.76-.4 1.06-1 1.03-1.85-.75-.52-1.6-.53-2.4-.62Z" fill="#E0271E"/><path d="M32.04 19.38c.43.2.93.28 1.15.76.04.37-.19.67-.27 1-.48.39-1 .07-1.51.07-.45.4-.6.92-.87 1.48.52.46 1.1.6 1.73.67.75.4 1.58.55 2.4.74 2.02.64 4.04 1.25 6.2 1.6.14-.7.05-1.27 0-1.96l-5.45-1.35c-.53-.42-.48-.92-.26-1.33.26-.36.57-.35.8-.5 1.53.53 3.1.94 4.69 1.21.17-.75-.2-1.24-.4-1.8-6.27-1.48-13.16-3.13-18.55-6.58-.54.37-1.25.48-1.76 1.09 2.6 2.05 8 4 12.1 4.9Z" fill="url(#cf2f31510)"/><path d="M20.44 40.74a8.32 8.32 0 0 0-1.96-.78 3.67 3.67 0 0 0-1.52-.7c-.05-.1-.15-.15-.2-.01-.04.14.05.24.2.28.4.5.83.95 1.5 1.08.6.4 1.23.72 1.96.82.05.15.14.29.08.45-.09 0-.19-.04-.2.1l.17.05.05-.01c.26-.53.69-.19 1-.11.5.11.94.45 1.48.49 1.69.67 3.45 1.12 5.21 1.52a2.67 2.67 0 0 0 2.08-.32c-2.51-.55-4.87-1.34-7.27-1.97-.85-.34-1.68-.7-2.58-.89Z" fill="url(#df2f31510)"/><path d="M39.69 18.26c-.3-.7-.66-1.2-1.2-1.63-4.47-.63-8.67-2.89-12.5-4.48-.6.08-1.29.17-1.95.58 2.7 2.76 12.45 5 15.65 5.53Z" fill="url(#ef2f31510)"/><path d="M29.49 12.77c2.23 1.37 5.61 2.2 8.15 2.57-.62-.63-1.07-1.16-1.71-1.24-1.43-.2-3.6-.71-4.79-1.5a.24.24 0 0 0-.15-.05c-.06-.22.31-.16.3-.4-.68.06-2.5-.36-2.9 0 .27.4.66.54 1.1.62Z" fill="url(#ff2f31510)"/><path d="M21.95 42.66c-.12-.18-.25-.3-.43-.06.1.13.24.11.37.13.69 1.07 3.5 1.05 4.54 1.22-.95-.68-3.34-1.1-4.48-1.3Z" fill="url(#gf2f31510)"/><defs><linearGradient id="af2f31510" x1="11.01" y1="32.52" x2="32.39" y2="39.08" gradientUnits="userSpaceOnUse"><stop stop-color="#FFD673"/><stop offset="1" stop-color="#E0271E"/></linearGradient><linearGradient id="bf2f31510" x1="13.98" y1="22.86" x2="35.36" y2="29.42" gradientUnits="userSpaceOnUse"><stop stop-color="#FFD673"/><stop offset="1" stop-color="#E0271E"/></linearGradient><linearGradient id="cf2f31510" x1="16.3" y1="15.29" x2="37.68" y2="21.85" gradientUnits="userSpaceOnUse"><stop stop-color="#FFD673"/><stop offset="1" stop-color="#E0271E"/></linearGradient><linearGradient id="df2f31510" x1="9.37" y1="37.86" x2="30.75" y2="44.43" gradientUnits="userSpaceOnUse"><stop stop-color="#FFD673"/><stop offset="1" stop-color="#E0271E"/></linearGradient><linearGradient id="ef2f31510" x1="17.66" y1="10.87" x2="39.04" y2="17.44" gradientUnits="userSpaceOnUse"><stop stop-color="#FFD673"/><stop offset="1" stop-color="#E0271E"/></linearGradient><linearGradient id="ff2f31510" x1="18.21" y1="9.06" x2="39.59" y2="15.63" gradientUnits="userSpaceOnUse"><stop stop-color="#FFD673"/><stop offset="1" stop-color="#E0271E"/></linearGradient><linearGradient id="gf2f31510" x1="9.03" y1="38.96" x2="30.41" y2="45.53" gradientUnits="userSpaceOnUse"><stop stop-color="#FFD673"/><stop offset="1" stop-color="#E0271E"/></linearGradient></defs></svg>