<!-- by TradingView --><svg width="56" height="56" viewBox="0 0 56 56" xmlns="http://www.w3.org/2000/svg"><path fill="#2C3581" d="M0 0h56v56H0z"/><path d="M31.36 31.36a2.18 2.18 0 0 0 1.68-.58 5.1 5.1 0 0 0 1.36-2.16 8.4 8.4 0 0 1-.7 3.99c-.66 1.42-1.85 2.1-3.4 2.25-.6.05-1.2.05-1.79-.01a4.82 4.82 0 0 1-3.14-1.61 20.96 20.96 0 0 1-2.88-4.27 56.84 56.84 0 0 1-2.32-4.79 7.85 7.85 0 0 0-1.05-1.87c-.62-.76-1.15-.81-1.9-.18-.66.6-1.23 1.3-1.65 2.08-1.09 1.9-2.06 3.87-3.09 5.8-1.04 1.96-1.88 4.07-2.99 5.99H7c2.75-4.31 4.68-9.22 7.2-13.68a10.94 10.94 0 0 1 2.43-3.05c.32-.27.66-.51 1.03-.72a3.43 3.43 0 0 1 4.2.37c1.01.85 1.7 1.93 2.4 3.02.73 1.19 1.38 2.42 2.03 3.66.38.7.8 1.38 1.24 2.03l.16.3c.42.95 1.12 1.7 1.86 2.44.5.5 1.05.94 1.8 1Z" fill="url(#anekwvmx0)"/><path d="M49 36h-2.57c-2.6-4.65-5.16-9.33-7.8-13.96a11.9 11.9 0 0 0-.82-1.25 4.97 4.97 0 0 0-4.06-2.12c.9-.5 1.92-.73 2.95-.65a3.88 3.88 0 0 1 3.1 1.82c.7 1.07 1.28 2.21 1.91 3.32C44.13 27.43 46.39 31.85 49 36Z" fill="url(#bnekwvmx0)"/><path d="M42.64 31.15c-.8-1.39-1.53-2.81-2.38-4.17a88.01 88.01 0 0 0-2.58-4.58 6.05 6.05 0 0 0-1.21-1.42 3.18 3.18 0 0 0-4.03-.32 5.5 5.5 0 0 0-1.88 2.1c-.85 1.5-1.67 3.03-2.5 4.55l-.37.61a8.1 8.1 0 0 0 1.86 2.45c.5.5 1.05.94 1.8 1 .2-.4.42-.81.61-1.21.45-.91 1-1.78 1.37-2.72 0 0 .71-1.4.94-1.37.14-.08.77 1.19.77 1.19.7 1.47 1.53 2.9 2.3 4.34l2.37 4.4h5.7c-.9-1.4-1.94-3.4-2.77-4.85Z" fill="url(#cnekwvmx0)"/><path d="M25.18 34.28c-1.2-.94-2-2.34-2.7-3.64-.85-1.56-1.68-3.13-2.52-4.69l-.86-1.9c-.72-1.18-1.59-1.21-2.4-.09-.45.69-.85 1.41-1.18 2.17-.04.06.04-.06 0 0-1.68 3.26-3.4 6.56-4.98 9.87h5.36c1.2-2.04 2.2-4.24 3.37-6.31.15-.27.26-.61.68-.59.3.13.4.41.53.65.48.82.86 1.68 1.37 2.48.42.7 1 1.3 1.69 1.75.5.29 1.08.4 1.64.3Z" fill="url(#dnekwvmx0)"/><defs><linearGradient id="anekwvmx0" x1="20.93" y1="34.92" x2="20.93" y2="19.33" gradientUnits="userSpaceOnUse"><stop offset=".48" stop-color="#DBC87D"/><stop offset="1" stop-color="#FAEAC0"/></linearGradient><linearGradient id="bnekwvmx0" x1="33.75" y1="27" x2="49" y2="27" gradientUnits="userSpaceOnUse"><stop stop-color="#FAEAC0"/><stop offset=".52" stop-color="#DBC87D"/></linearGradient><linearGradient id="cnekwvmx0" x1="36.41" y1="35.25" x2="36.41" y2="21.45" gradientUnits="userSpaceOnUse"><stop stop-color="#B79443"/><stop offset=".78" stop-color="#ECCE78"/></linearGradient><linearGradient id="dnekwvmx0" x1="18.06" y1="35.1" x2="19.32" y2="23.95" gradientUnits="userSpaceOnUse"><stop offset=".4" stop-color="#A88234"/><stop offset=".99" stop-color="#DBC16D"/></linearGradient></defs></svg>