<!-- by TradingView --><svg xmlns="http://www.w3.org/2000/svg" width="56" height="56" viewBox="0 0 56 56"><path fill="#F0F3FA" d="M0 0h56v56H0z"/><path fill-rule="evenodd" d="M5.57 29.94c0 3 1.37.76 2.06-.75-1 1.2-1.45-.78-.75-1.7.55-.74 2.62-1.17 3.59-1.29-.29 2.11-.75 6.3-.32 6.16.54-.16 1.87-7.27 1.93-7.87.01-.16.08-.58.16-1.1.21-1.35.54-3.39.36-3.39-.25 0-1.1.52-1.25.86-.14.35-.6 4.27-.6 4.33l-3.87.33c.07-.48.21-1.68.21-2.68 0-.46.16-.96.3-1.4.24-.8.44-1.43-.3-1.44-1.07-.01-1.16 2.82-1.21 4.43l-.02.38a2.2 2.2 0 0 1-.59 1.45c-.23.28-.39.47-.16.82.37.57.46 2.14.46 2.86zm8.86-6.69c-.62.64-.36 1.1-.16 1.26.27.2.69-.14 1-.4.13-.1.25-.19.32-.22.27-.12.48-1.23.11-1.42-.33-.18-.47-.04-1.09.6l-.18.18zm-1.91 5.23c-.45.47.02.94.3 1.11.57-.65.77-.57.86-.53l.04.02c.3 1.17.96 1.58 1.25 1.64 1.17 0 1.97-.95 2.7-1.82.36-.42.7-.82 1.05-1.1.93-.71.9-.37.87.2l-.01.39c0 .62-.25.89-.37.94-.6.2-.67.62-.72.93l-.04.19c-.33 3.17 3.15-.41 4.98-2.66-.07.2-.17.88-.25 2.57-.12 2.25 1.8.58 2.76-.54l-.32-.83c-1.21 1.52-1.27.29-1.14-.52.16-1.14.6-3.44 1-3.55.42-.11.59-.55.62-.75 0-.86-.05-2.54-.36-2.4-.32.15-.83 1.1-1.05 1.55h-2.13a.67.67 0 0 0-.55.68c0 .46.1.72.16.8h2.07c-.79 1.5-3.03 4.58-3.72 4.86-.55.22-.23-.57 0-.99 1.23-2.74.51-3.41-.11-3.41-.5 0-1.84 1.46-2.44 2.19-.73.8-2.26 2.35-2.54 2.07-.2-.2-.47-1.01-.7-1.7-.17-.5-.3-.93-.38-1-.15-.12-1 .77-1.58 1.4l-.25.26zm21.89.84l-.1-.94c.28-.14.9-.53 1.16-.94.33-.52 1.9-1.91 2.22-2.1.26-.14.28.3.25.55.38-.11 1.25-.2 1.7.33.45.54.05 1.78-.2 2.33v1.6l1.67-2.21c.2-1.23 1-3.69 2.52-3.67.23.04.7.34.7 1.15 0 .81-1.3 2.2-1.95 2.78.06.3.33.92.9.92.55 0 2.54-2.04 3.46-3.06.14-.21.55-.64.97-.64.53 0 .49.55.28 1.38-.16.67-.46 1.67-.59 2.08.62-.7 2-2.08 2.51-2.08.41 0 .67.7.85 1.21.11.3.2.54.28.54.17 0 .71.05.96.07.02.45-.2 1.35-1.32 1.35-.32-.68-1.12-1.9-1.71-1.35-.26.25-.59.65-.93 1.07-.62.77-1.27 1.58-1.65 1.58-.58 0-.61-1.74.07-3.33 0-.11-.14-.22-.61.26l-.29.3c-.68.72-1.84 1.94-2.87 1.94-.96 0-1.32-.94-1.38-1.4l-1.45 1.8c.26.32.77 1.17.77 2.05 0 1.1-1.5 3.11-2.95 3.11-1.45 0-1.76-2 .56-4.34.1-.35.22-1.1-.08-1.29-.2.2-.83.61-1.65.61-1.03 0-1.46-1.11-1.18-2.29l-.92.63zm8.02-3.06c-.28.39-.13.6-.02.66.21-.03.3-.15.45-.32.15-.17.26-.69.11-.74-.14-.05-.19-.07-.54.4zm-5.6 3.51c-.25-.18-.54-.76.28-1.6 1-1.04 1.12-.98 1.45-.8h.01c.34.18-.1 1.41-.51 1.78l-.01.01c-.41.37-.7.61-1.22.61zm.9 5.36c-.28-.15-.64-.68.05-1.63.87-1.17.98-1.13 1.33-1h.01c.36.13.1 1.41-.26 1.84h-.01c-.36.43-.6.71-1.13.79zM30 30.1c1.1 0 2-.92 2-2.06 0-1.13-.9-2.05-2-2.05s-2 .92-2 2.05c0 1.14.9 2.06 2 2.06z" fill="#0A7E45"/><path d="M25.91 28.43c-.27.07-.72.36-.4.96.16.3.4.62.65.95.38.5.76 1.02.86 1.45.15.7.67 1.18 1.94 1.18 1.28 0 3.06-.77 3.5-.97.43-.21 2.02-1.49 2.02-3.24 0-1.76-2.66-4.87-3.22-4.68-.23.08-.33.01-.51-.1-.25-.16-.66-.42-1.79-.5-1.55-.14-1.24.45-.89.76-.13.12-.5.25-.9-.16-.5-.51-1.26 1.36-1.26 1.63 0 .27.1 1.74.25 2.1.16.37-.1.56-.25.62zm1.95 1.52c-.18-.15-.55-.64-.55-1.46 0-1.04 1.05-2.57 1.72-2.77.27-.08.37-.17.44-.23.12-.1.18-.14.7-.05.87.16 2.44.75 2.44 2.54 0 1.78-.61 3-1.52 3-.64 0-1.17-.13-1.62-.25-.19-.05-.37-.1-.54-.12-.27-.05-.45-.27-.58-.44-.13-.16-.22-.27-.3-.07-.07.14-.1.26-.13.34-.03.16-.05.22-.21.17-.2-.07.02-.47.15-.66z" fill="#898B8D"/></svg>