<!-- by TradingView --><svg width="56" height="56" viewBox="0 0 56 56" xmlns="http://www.w3.org/2000/svg"><path fill="#F0F3FA" d="M0 0h56v56H0z"/><path fill-rule="evenodd" d="M32.65 18.26 44 17l-4.93 10.37A6.33 6.33 0 0 1 27 24.17a6.36 6.36 0 0 1 5.64-5.9Zm0 1.18 9.38-1.04-4.07 8.6a5.21 5.21 0 0 1-6.12 2.8 5.3 5.3 0 0 1-3.83-5.45 5.26 5.26 0 0 1 4.65-4.9Z" fill="#BBD72D"/><path fill-rule="evenodd" d="M39.23 28.69 44 39l-11.43-1.47a6.34 6.34 0 0 1-5.56-5.94 6.3 6.3 0 0 1 4.81-6.4c3-.75 6.12.73 7.4 3.5Zm-.84.47L42.44 38l-9.7-1.26a5.4 5.4 0 0 1-.64-10.57c2.55-.65 5.2.62 6.29 3Z" fill="#BCCD8C"/><path fill-rule="evenodd" d="M21.09 35.16 22.94 46 31 38.67a6.2 6.2 0 0 0 1.11-7.76 5.95 5.95 0 0 0-7.16-2.54 6.12 6.12 0 0 0-3.86 6.79Zm.98-.2L23.61 44l6.72-6.1a5.16 5.16 0 0 0 .93-6.47 4.96 4.96 0 0 0-5.97-2.12 5.1 5.1 0 0 0-3.22 5.65Z" fill="#91C0AE"/><path fill-rule="evenodd" d="M19.4 22.7 9 27.77l10.18 5.42a6.95 6.95 0 0 0 8.27-1.3c2-2.18 2.07-5.35.15-7.6a6.93 6.93 0 0 0-8.2-1.59Zm.44.88L11 27.8l8.66 4.52a6 6 0 0 0 7.02-1.09 4.62 4.62 0 0 0 .13-6.32 5.98 5.98 0 0 0-6.97-1.33Z" fill="#43A8AE"/><path d="M30.98 34.35a.5.5 0 1 1-.96.3.5.5 0 0 1 .96-.3ZM24.8 31.9a.5.5 0 1 1-.6-.8.5.5 0 0 1 .6.8Z" fill="#91C0AE"/><path d="M35.48 29a.5.5 0 1 0 .04-1 .5.5 0 0 0-.04 1Z" fill="#BBD72D"/><path d="M29.03 25.34a.5.5 0 1 0 .94.32.5.5 0 0 0-.94-.32Z" fill="#156D80"/><path d="M25.8 26.1a.5.5 0 1 1-.6.8.5.5 0 0 1 .6-.8Z" fill="#43A8AE"/><path d="M25.8 30.9a.5.5 0 1 1-.6-.8.5.5 0 0 1 .6.8Zm4.18 1.45a.5.5 0 1 1-.96.3.5.5 0 0 1 .96-.3ZM26.8 29.9a.5.5 0 1 1-.6-.8.5.5 0 0 1 .6.8Z" fill="#91C0AE"/><path d="M29.03 23.34a.5.5 0 1 0 .94.32.5.5 0 0 0-.94-.32Z" fill="#156D80"/><path d="M33.48 29a.5.5 0 1 0 .04-1 .5.5 0 0 0-.04 1Z" fill="#BBD72D"/><path d="M24.8 25.1a.5.5 0 1 1-.6.8.5.5 0 0 1 .6-.8Z" fill="#43A8AE"/><path d="M30.03 21.34a.5.5 0 1 0 .94.32.5.5 0 0 0-.94-.32Z" fill="#156D80"/><path d="M29.98 30.35a.5.5 0 1 1-.96.3.5.5 0 0 1 .96-.3Z" fill="#91C0AE"/><path d="M31.48 29a.5.5 0 1 0 .04-1 .5.5 0 0 0-.04 1Z" fill="#BBD72D"/><path d="M23.8 24.1a.5.5 0 1 1-.6.8.5.5 0 0 1 .6-.8Z" fill="#43A8AE"/><path fill-rule="evenodd" d="M20.14 21.28 22.55 10 31 17.98a6.33 6.33 0 0 1 .91 8.17 6.55 6.55 0 0 1-7.85 2.38 6.38 6.38 0 0 1-3.92-7.25Zm.98.22 2.04-9.5 7.15 6.72a5.31 5.31 0 0 1 .77 6.88 5.56 5.56 0 0 1-6.65 2 5.37 5.37 0 0 1-3.31-6.1Z" fill="#156D80"/></svg>