<!-- by TradingView --><svg xmlns="http://www.w3.org/2000/svg" width="56" height="56" viewBox="0 0 56 56"><path fill="#F0F3FA" d="M0 0h56v56H0z"/><path d="M28.42 18.6c-2.01 3.76-6.1 11.2-6.35 11.4H20.2c-2.35 0-4.37-.38-6.47-1.05A3.67 3.67 0 0 1 11 25.38c0-.56.15-1.13.45-1.67l5.05-9.13A4.84 4.84 0 0 1 20.66 12H35c-2.69.72-4.19 2.72-6.58 6.6Z" fill="url(#auyw1rl15)"/><path d="M34 31.63c-2.23-3.57-6-10.2-6-10.2s.44-.96 3.63-5.8A5.9 5.9 0 0 1 36.05 13c1.11 0 2.13.88 2.69 1.81l5.5 9.54c.53.96.75 1.66.75 2.52 0 .8-.24 1.57-.65 2.27L37 41c.25-2.28-1.34-6.72-3-9.38Z" fill="url(#buyw1rl15)"/><path d="M27.98 21.4s.49-1 3.7-5.9a5.61 5.61 0 0 1 4.38-2.5c1.11 0 2.13.88 2.69 1.81L41.69 20c-1.16-1.22-2.25-3-5.94-3-3.69 0-7.38 5.05-7.38 5.05l-.4-.65Z" fill="#9E9CA9"/><path d="M19.13 31h13s2.09 4.02 2.69 5.5c.47 1.14.82 2.4.96 2.9l.13.48A3.29 3.29 0 0 1 32.7 44H22.68a5.08 5.08 0 0 1-4.16-2.54L11 29c2.88 1.33 4.95 2 8.13 2Z" fill="url(#cuyw1rl15)"/><path d="M32.13 31s1.68 2.6 3.36 7.1c.35.92.5 1.75.51 2.5 0 .68-.12 1.29-.42 1.84-.64 1.15-1.95 1.56-2.94 1.56H27c1.48-.36 4.21-1.04 5.56-3.67.32-.62.44-1.4.44-2.24 0-2.74-1.54-7.09-1.54-7.09h.66Z" fill="#879D5C"/><defs><linearGradient id="auyw1rl15" x1="23" y1="8.35" x2="21.27" y2="32.84" gradientUnits="userSpaceOnUse"><stop offset=".24" stop-color="#23325A"/><stop offset=".38" stop-color="#7E8099"/><stop offset=".57" stop-color="#22315A"/></linearGradient><linearGradient id="buyw1rl15" x1="33.69" y1="34.32" x2="46.64" y2="18.49" gradientUnits="userSpaceOnUse"><stop offset=".17" stop-color="#C3C1C1"/><stop offset=".45" stop-color="#C5C5C5"/><stop offset=".7" stop-color="#D5D5D7"/><stop offset="1" stop-color="#8C8D8F"/></linearGradient><linearGradient id="cuyw1rl15" x1="23.04" y1="28.54" x2="21.94" y2="46" gradientUnits="userSpaceOnUse"><stop offset=".12" stop-color="#94BD46"/><stop offset=".27" stop-color="#C4D699"/><stop offset=".42" stop-color="#B0CA78"/><stop offset=".54" stop-color="#96BA4C"/></linearGradient></defs></svg>