<!-- by TradingView --><svg xmlns="http://www.w3.org/2000/svg" width="56" height="56" viewBox="0 0 56 56"><path fill="#F0F3FA" d="M0 0h56v56H0z"/><path fill-rule="evenodd" d="M20.66 34.77c.1.07.23.1.36.1.12 0 .24-.03.35-.08l5.27-3.06a.7.7 0 0 0 .36-.62v-6.16a.76.76 0 0 0-.12-.36.74.74 0 0 0-.25-.26l-5.29-3.1a.7.7 0 0 0-.71 0l-5.27 3.06a.7.7 0 0 0-.36.62v6.16c0 .13.05.25.12.36.06.1.15.2.26.26l5.28 3.08zM26 25.12l-4.98-2.89L16 25.12v5.78l5.02 2.89 4.98-2.9v-5.77z" fill="#EC0C27"/><path fill-rule="evenodd" d="M40.88 24.58c.06.1.12.23.12.35v6.17a.72.72 0 0 1-.35.61l-5.2 3.07c-.1.06-.22.1-.35.09a.65.65 0 0 1-.35-.1l-2.4-1.41-1 1.85 2.28 1.23c.1.07.2.16.25.26.06.11.12.23.12.36v6.16a.72.72 0 0 1-.36.62L28.4 46.9a.7.7 0 0 1-.7 0l-5.34-3.1a.73.73 0 0 1-.26-.26.74.74 0 0 1-.09-.36v-6.16c0-.13 0-.25.07-.36a.7.7 0 0 1 .26-.26l5.32-3.06a.68.68 0 0 1 .7 0l2.12 1.37 1.03-1.89-2.1-1.15a.73.73 0 0 1-.26-.26l-.01-.03a.73.73 0 0 1-.13-.33V24.9c0-.13.06-.25.12-.36a.7.7 0 0 1 .26-.26l2.14-1.2-1.02-1.74-2.12 1.35a.7.7 0 0 1-.7 0l-5.33-3.12a.73.73 0 0 1-.26-.26.75.75 0 0 1-.09-.36v-6.16c0-.13 0-.25.07-.36a.7.7 0 0 1 .26-.26l5.31-3.05a.7.7 0 0 1 .35-.11.7.7 0 0 1 .36.11l5.3 3.07a.73.73 0 0 1 .35.61v6.17a.7.7 0 0 1-.08.35.7.7 0 0 1-.25.26l-2.3 1.26 1.04 1.77 2.3-1.39a.68.68 0 0 1 .71 0l5.2 3.1c.11.07.2.16.26.27zm-.88.53l-4.98-2.89-5.02 2.9v5.77l5.02 2.89 4.98-2.9v-5.77zM28.02 10.13L33 13.02v5.78l-4.98 2.88L23 18.8v-5.78l5.02-2.89zM33 37.19l-4.98-2.9L23 37.2v5.77l5.02 2.9 4.98-2.9V37.2z" fill="#328DDF"/></svg>