<!-- by TradingView --><svg width="56" height="56" viewBox="0 0 56 56" xmlns="http://www.w3.org/2000/svg"><path fill="#F0F3FA" d="M0 0h56v56H0z"/><path d="M9 25H8l1 .87V33h2v-8H9Zm8.17 5 2.25-5H21l-3.5 8h-2L12 25h2.92l2.25 5ZM24 25h-2v8h7v-2h-5v-1h5v-2h-5v-1h5v-2h-5Z" fill="#037ABC"/><path fill-rule="evenodd" d="M36.12 25H30v8h6.12c1.04 0 1.88-.95 1.88-2.11V27.1c0-1.16-.84-2.11-1.88-2.11Zm-1.15 2H32v4h2.97c.57 0 1.03-.4 1.03-.9v-2.2c0-.5-.46-.9-1.03-.9Z" fill="#037ABC"/><path d="M41.04 25h3.5L49 33h-2.5l-.05-.09a7.21 7.21 0 0 0-4.73-3.34L40 33h-2l2-3.58c-.32.01-.65.03-1 .08.35-.33.83-.66 1.43-.84l1.55-2.78-.94-.88Zm1.19 3.54a4.9 4.9 0 0 1 2 .57L43 27l-.77 1.54Z" fill="#037ABC"/><circle cx="10" cy="22" r="2" fill="#2E9DD4"/><circle cx="10" cy="22" r="1" fill="#037ABC"/></svg>