<!-- by TradingView --><svg xmlns="http://www.w3.org/2000/svg" width="56" height="56" viewBox="0 0 56 56"><path fill="#F0F3FA" d="M0 0h56v56H0z"/><path d="M44.32 30.35c-3.1-2.13-6.01-4.35-9.7-4.35-3.38 0-6.78 2.23-9.3 4.06-1.38.88-2.7 1.94-4.48 1.94A8.59 8.59 0 0 1 17 31c1.1 1.6 2.66 3 5.26 3 4.03 0 7.46-2.99 11.5-3 2.26 0 4.43 1.13 6.24 3a7.16 7.16 0 0 0-6.24-4c-3.67 0-6.54 2.22-9.95 2.96l-.18.04c3.5-.95 6.62-3.35 10.33-3.4 5.48 0 7.63 5.4 12.16 5.4.38 0 1.35-.22 1.88-.47-2.6.25-3.68-.31-5.55-1.9-3.04-2.6-4.72-4.57-8.49-4.63-1.5-.03-2.59.44-3.96 1 1.53-1.19 4.03-1.5 4.61-1.5 3.56 0 6.3 1.77 9.22 3.7 1.18.79 3.04 1.8 4.7 1.8.94 0 1.95-.6 2.47-2-.77.97-1.61 1.32-2.47 1.3-1.46-.03-2.72-.92-4.21-1.95Z" fill="url(#aohwm033k)"/><path d="M27.9 33.66A16.5 16.5 0 0 1 22.12 35 7.1 7.1 0 0 1 15 27.8c0-4.53 3.25-7.8 7.62-7.8 2.12 0 4.51.55 6.13 2-1.6-1.98-4.47-3-6.94-3A8.81 8.81 0 0 0 13 27.83a9.5 9.5 0 0 0 2.71 6.6v.02A10.23 10.23 0 0 1 12 26.47c0-6.04 5.6-10.05 11.25-9.97 2.1.03 3.83.6 5.75 1.5a11.67 11.67 0 0 0-6.94-2c-5.98.05-11.46 4.38-11.46 10.75 0 5.91 4.69 10.86 10.57 10.95 1.26-.01 2.7-.33 3.83-.7-1.02.6-2.57 1-3.84 1A11.14 11.14 0 0 1 10 26.75c0-4.96 2.3-8.74 6-11.75-4.5 2.32-7 6.9-7 11.99 0 4.98 2.83 9.33 7.25 11.1 1.56.61 2.83.91 4.5.91 3.17 0 6.33-1.62 8.88-3.25 2.68-1.64 2.84-2.63 6.37-3.25-.75-.5-1.51-.5-2.22-.5-2.37 0-3.43.82-5.88 1.66Z" fill="url(#bohwm033k)"/><defs><linearGradient id="aohwm033k" x1="17.06" y1="33.25" x2="48.72" y2="37.43" gradientUnits="userSpaceOnUse"><stop offset=".43" stop-color="#42762C"/><stop offset=".77" stop-color="#88AB52"/><stop offset=".93" stop-color="#9DC25E"/></linearGradient><linearGradient id="bohwm033k" x1="23" y1="13.63" x2="26.63" y2="41.13" gradientUnits="userSpaceOnUse"><stop offset=".24" stop-color="#88AB52"/><stop offset=".52" stop-color="#42762C"/><stop offset=".78" stop-color="#51783E"/><stop offset=".95" stop-color="#739B48"/></linearGradient></defs></svg>