<!-- by TradingView --><svg xmlns="http://www.w3.org/2000/svg" width="56" height="56" viewBox="0 0 56 56"><path fill="#D60D2F" d="M0 0h56v56H0z"/><path d="M34 24.7 28 21l-6 3.7v6.6l6 3.7 6-3.7v-6.6Z" fill="#F89739"/><path d="M39 27.31v-5.88l-5-3L39 16l5 2.67v6.14l-5 2.5Zm-5.08 9.94L39 34.03V28.9l5 2.48v5.71L38.97 40l-5.05-2.75ZM23 37.84 28 41l5-3.17V43l-5 3-5-3v-5.16Zm-6-8.94v5.13l4.86 3.08L17.03 40 12 37.03v-5.66l5-2.47Zm0-1.96-5-2.3v-5.6L17.01 16 22 18.43l-5 3v5.5Zm16-9.02L28 15l-5 2.92V12.7l5-2.7 5 2.7v5.22Z" fill="#fff"/></svg>