<!-- by TradingView --><svg width="56" height="56" viewBox="0 0 56 56" xmlns="http://www.w3.org/2000/svg"><path fill="#0F364D" d="M0 0h56v56H0z"/><path d="M5 25h2v2.31L8.68 25h2.23l-2.15 3L11 31H8.76L7 28.67V31H5v-6Z" fill="url(#awtkde20v)"/><path d="M14 25h-2v6h2v-6Z" fill="#A6A9AB"/><path fill-rule="evenodd" d="M15 25h5.44c.74 0 1.34.61 1.34 1.35v1.23c0 .7-.57 1.42-1.28 1.42h-.55L22 31h-2.1l-2-2H17v2h-2v-6Zm2 1.35h2.34c.34 0 .6.27.6.6 0 .32-.25.58-.56.58H17v-1.18Z" fill="#A6A9AB"/><path d="M37.5 26.3V31h-2v-4.7h-.58a.9.9 0 0 0-.92.88V31h-2v-4.15A1.9 1.9 0 0 1 33.92 25h5.5c.87 0 1.58.68 1.58 1.51V31h-2v-3.82a.9.9 0 0 0-.92-.88h-.58ZM44 25h-2v6h2v-6ZM52 31h-5.5a1.5 1.5 0 0 1-1.5-1.47v-3.06c0-.8.67-1.47 1.5-1.47H51v1.35h-3.1c-.5 0-.9.4-.9.89v1.51c0 .5.4.89.9.89H52L52 31Z" fill="#A6A9AB"/><path d="M27.97 24.67c-.05 0-.09 0-.13-.02L27.46 19l-.27 5.63c-.16.01-.32.02-.47.05L25 19.25l1.12 5.6a6.29 6.29 0 0 1-.34.13l-3.04-4.78 2.52 5.08-.3.24-4.18-3.81 3.73 4.25a1.6 1.6 0 0 1-.1.12l-.09.13-5.05-2.5L24 26.72l-.19.46-5.47-1.2 5.31 1.8a3.7 3.7 0 0 0-.06.4l-5.59.23 5.58.38c.01.15.03.3.06.44l-5.32 1.7 5.48-1.11.13.3-4.64 3.1 4.93-2.55c.07.11.16.23.25.33l-3.69 4.18 4.11-3.74c.1.1.19.16.29.24l.04.03-2.5 4.96 3.02-4.66c.15.1.31.15.47.2l-1 5.47 1.54-5.34.43.05.26 5.6.35-5.6.4-.05L30 37.62l-1.23-5.44c.14-.04.25-.08.37-.14l3.07 4.66-2.54-4.97.33-.26 4.2 3.7-3.76-4.14c.12-.13.22-.27.31-.41l4.98 2.58-4.69-3.11c.05-.09.09-.18.12-.28l5.52 1.11-5.36-1.71.02-.19.02-.19 5.64-.32-5.64-.3v-.03a3.56 3.56 0 0 0-.05-.38L36.68 26l-5.54 1.21c-.05-.16-.11-.3-.19-.45l4.76-3.08-5.08 2.55c-.07-.1-.14-.2-.23-.3l3.83-4.18-4.27 3.76a5.1 5.1 0 0 0-.3-.22l2.64-5.03-3.18 4.73a3.65 3.65 0 0 0-.42-.16l1.13-5.57-1.73 5.43-.13-.01ZM30 28.5a2.5 2.5 0 1 1-5 0 2.5 2.5 0 0 1 5 0Z" fill="#DD822B"/><defs><linearGradient id="awtkde20v" x1="8" y1="25" x2="8" y2="31" gradientUnits="userSpaceOnUse"><stop stop-color="#EFB352"/><stop offset="1" stop-color="#CA620D"/></linearGradient></defs></svg>