<!-- by TradingView --><svg xmlns="http://www.w3.org/2000/svg" width="56" height="56" viewBox="0 0 56 56"><path fill="url(#arb5ylsnk)" d="M0 0h56v56H0z"/><path fill-rule="evenodd" d="M19.86 17h16.42L50 23.82v8.4L36.28 39H19.86L6 32.22v-8.4L19.86 17Zm-.65.88-2.08 3.15-8.7 2.15 10.78-5.3ZM6.5 24.17l10.82-2.67h21.5l10.68 2.67v7.7L38.83 34.5H17.32L6.5 31.87v-7.7Zm1.93 8.68 10.78 5.27-2.08-3.15-8.7-2.12ZM17.75 35l2.3 3.5H36.1l2.3-3.5H17.75Zm21.26-.03-2.07 3.15 10.64-5.27-8.57 2.12Zm8.57-11.8L39 21.03l-2.07-3.14 10.64 5.28Zm-11.5-5.67H20.07l-2.3 3.5h20.63l-2.3-3.5ZM18 25v6h1v-4.1l3 4.1h1v-6h-1v4.16L19 25h-1Zm11 0h5v1h-2v5h-1v-5h-2v-1Zm-4.02 0H24v6h4.5v-1H25v-1.52h3.32v-1H25V26h3.5v-1h-3.52ZM38 31v-6h-.87c-.12.34-.6 1.11-1.63 1.5v1c.25-.1 1.02-.46 1.5-.85V31h1Z" fill="#fff"/><defs><linearGradient id="arb5ylsnk" x1="10.42" y1="9.71" x2="68.15" y2="76.02" gradientUnits="userSpaceOnUse"><stop stop-color="#1A1E21"/><stop offset="1" stop-color="#06060A"/></linearGradient></defs></svg>