<!-- by TradingView --><svg xmlns="http://www.w3.org/2000/svg" width="56" height="56" viewBox="0 0 56 56"><path fill="url(#aie4q3hij)" d="M0 0h56v56H0z"/><path d="M8.4 23H7v10h7v-1.4H8.4V23Zm27.48 8.6c-2 .03-3.47-1.58-3.48-3.59 0-2.01 1.46-3.64 3.48-3.61 1.28.02 2.34.7 3 1.78l1.12-.73A4.91 4.91 0 0 0 35.88 23a5.01 5.01 0 0 0 0 10A4.92 4.92 0 0 0 40 30.52l-1.1-.72a3.53 3.53 0 0 1-3.02 1.8ZM15 33l4-10h1l4 10h-1.5l-3-7.4-3 7.4H15Zm16-10h-8v1.4h3.31L26.3 33h1.4l.02-8.6H31V23Zm11.4 4h5.2v-4H49v10h-1.4v-4.6h-5.2V33H41V23h1.4v4Z" fill="#fff"/><defs><linearGradient id="aie4q3hij" x1="10.42" y1="9.71" x2="68.15" y2="76.02" gradientUnits="userSpaceOnUse"><stop stop-color="#1A1E21"/><stop offset="1" stop-color="#06060A"/></linearGradient></defs></svg>