<!-- by TradingView --><svg width="56" height="56" viewBox="0 0 56 56" xmlns="http://www.w3.org/2000/svg"><path fill="#F0F3FA" d="M0 0h56v56H0z"/><path d="M4 23h1.38l1.57 4.31H7L8.65 23H10v6H9v-4.1L7.34 29h-.72L5 24.9V29H4v-6ZM12.84 29a2.4 2.4 0 0 1-1.03-.21c-.3-.14-.53-.34-.7-.59a1.59 1.59 0 0 1-.28-.87h1c.02.16.06.3.15.42.1.11.21.2.36.27.15.06.32.1.5.1.2 0 .37-.04.52-.12a.87.87 0 0 0 .36-.3.8.8 0 0 0 .13-.46.82.82 0 0 0-.13-.46.87.87 0 0 0-.38-.32 1.41 1.41 0 0 0-.6-.11h-.49v-.82h.5c.18 0 .35-.04.5-.1a.82.82 0 0 0 .33-.3.8.8 0 0 0 .12-.45c0-.17-.03-.3-.1-.43a.73.73 0 0 0-.3-.29 1.12 1.12 0 0 0-.92 0 .86.86 0 0 0-.34.27.73.73 0 0 0-.14.42h-.96c.01-.32.1-.61.27-.86s.4-.44.69-.58c.28-.14.6-.21.96-.21.37 0 .68.07.95.22a1.54 1.54 0 0 1 .85 1.4 1.24 1.24 0 0 1-.99 1.26v.05c.4.05.69.2.9.45.2.25.3.55.3.92 0 .32-.09.62-.26.88-.18.25-.41.45-.72.6-.3.15-.65.22-1.05.22ZM18 25.58v.84h-2.32v-.84H18ZM19 29v-6h2.14c.9 0 1.78.65 1.78 1.6 0 .7-.43 1.1-.96 1.24v.05c.58.04 1.17.55 1.17 1.44 0 1-.9 1.67-1.87 1.67H19Zm1-1h1.1c.5 0 1.02-.15 1.02-.75 0-.53-.38-.92-1-.92H20V28Zm0-2.44h1.01c.52 0 .91-.32.91-.83 0-.54-.4-.73-.89-.73H20v1.56ZM24 29v-6h2.08c1.09 0 1.93.86 1.93 1.95 0 1.03-.87 2.05-1.95 2.05H24.6v-1h1.34c.58 0 1.07-.48 1.07-1.05 0-.66-.45-.95-1.08-.95H25v5h-1Zm2.85-2.73L28.21 29h-1.1l-1.34-2.73h1.08ZM30 23v6h-1v-6h1ZM34.81 25c-.18-.62-.63-1-1.29-1-1.09 0-1.52 1.05-1.52 2s.41 2 1.54 2c.68 0 1.46-.34 1.46-1h-1v-1h2v.7c0 1.33-1.18 2.3-2.46 2.3-1.7 0-2.54-1.47-2.54-3 0-1.5.9-3 2.5-3a2.3 2.3 0 0 1 2.33 2H34.8ZM37.83 29h-1.06l1.93-6h1.23l1.94 6H40.8l-1.46-4.72h-.05L37.83 29Zm.03-2h2.9v1h-2.9v-1ZM44.72 29H43v-6h1.75c1.68 0 2.63 1.47 2.63 3 0 1.56-1 3-2.66 3ZM44 28h.67c1.15 0 1.73-.67 1.73-2 0-1.35-.59-2-1.7-2H44v4ZM48 29v-6h4v1h-3v1.55h3v.89h-3V28h3v1h-4ZM10.5 34H10l1.47-4h.5l1.48 4h-.51l-1.2-3.33h-.03L10.5 34Zm.2-1.58h2.05v.42H10.7v-.42ZM17.11 31.27h-.48a.96.96 0 0 0-.41-.62c-.1-.07-.22-.12-.34-.16a1.38 1.38 0 0 0-1.04.13c-.2.12-.35.3-.47.53a1.9 1.9 0 0 0-.17.85c0 .34.05.62.17.85.12.23.27.4.47.53.2.12.41.18.66.18.13 0 .26-.02.38-.06a1.01 1.01 0 0 0 .74-.78h.5a1.54 1.54 0 0 1-.57.94c-.14.11-.3.2-.48.25a1.85 1.85 0 0 1-1.49-.16c-.26-.16-.47-.39-.62-.69-.16-.3-.23-.65-.23-1.06 0-.41.07-.77.23-1.07A1.69 1.69 0 0 1 15.5 30c.2 0 .39.03.57.09a1.57 1.57 0 0 1 .84.65c.1.15.16.33.2.53ZM19.35 32.73h.54l.44.57.12.15.67.85h-.54l-.44-.56-.1-.14-.69-.87Zm1.93-.73c0 .4-.08.76-.23 1.06a1.69 1.69 0 0 1-1.54.94 1.69 1.69 0 0 1-1.54-.93c-.15-.3-.23-.66-.23-1.07 0-.41.08-.77.23-1.07A1.69 1.69 0 0 1 19.5 30c.34 0 .65.08.91.24.27.17.48.4.63.7.15.3.23.65.23 1.06Zm-.47 0c0-.34-.06-.62-.17-.85-.12-.24-.28-.41-.47-.53-.2-.12-.42-.18-.66-.18-.24 0-.46.06-.66.18s-.35.3-.47.53a1.9 1.9 0 0 0-.17.85c0 .34.06.62.17.85.12.23.27.4.47.53.2.12.42.18.66.18a1.24 1.24 0 0 0 1.13-.7c.11-.24.17-.52.17-.86ZM24.73 30h.48v2.63a1.33 1.33 0 0 1-.73 1.2c-.24.12-.51.18-.82.18-.32 0-.6-.06-.83-.18a1.36 1.36 0 0 1-.54-.49c-.13-.2-.2-.44-.2-.71V30h.5v2.6c0 .18.04.35.12.5.09.15.21.26.37.35.16.08.35.12.58.12.22 0 .41-.04.57-.12a.9.9 0 0 0 .37-.35.99.99 0 0 0 .13-.5V30ZM26.67 30v4h-.49v-4h.49ZM29.84 31.03a.6.6 0 0 0-.29-.45c-.17-.1-.37-.16-.61-.16-.18 0-.34.03-.47.08a.74.74 0 0 0-.3.23.54.54 0 0 0-.04.6c.05.08.12.14.2.19l.25.12.25.07.4.1.35.12c.13.04.26.1.37.19.12.08.22.18.3.3.07.13.11.29.11.47a1 1 0 0 1-.17.57c-.11.17-.27.3-.5.4-.2.1-.47.15-.78.15-.28 0-.53-.04-.74-.13-.21-.1-.38-.22-.5-.38a1.05 1.05 0 0 1-.2-.56h.5a.6.6 0 0 0 .16.37c.09.1.2.16.34.2a1.35 1.35 0 0 0 .95-.02.86.86 0 0 0 .34-.24c.09-.1.13-.23.13-.37a.45.45 0 0 0-.1-.31.82.82 0 0 0-.3-.2l-.4-.14-.49-.13a1.86 1.86 0 0 1-.74-.38.81.81 0 0 1-.28-.63c0-.22.06-.41.18-.57.13-.17.3-.3.5-.38.2-.1.44-.14.7-.14.25 0 .48.05.68.13.2.1.36.22.48.37a.9.9 0 0 1 .19.53h-.47ZM31.65 30v4h-.49v-4h.49ZM32.4 30.47V30h3v.47h-1.25V34h-.49v-3.53H32.4ZM36.64 30v4h-.48v-4h.48ZM41 32c0 .4-.07.76-.23 1.06a1.69 1.69 0 0 1-1.54.94 1.69 1.69 0 0 1-1.54-.93c-.15-.3-.23-.66-.23-1.07 0-.41.08-.77.23-1.07a1.69 1.69 0 0 1 1.54-.93c.34 0 .65.08.91.24.27.17.48.4.63.7.16.3.23.65.23 1.06Zm-.47 0c0-.34-.06-.62-.17-.85-.12-.24-.27-.41-.47-.53-.2-.12-.41-.18-.66-.18-.24 0-.46.06-.66.18s-.35.3-.47.53a1.9 1.9 0 0 0-.17.85c0 .34.06.62.17.85.12.23.28.4.47.53.2.12.42.18.66.18a1.24 1.24 0 0 0 1.13-.7c.11-.24.17-.52.17-.86ZM45 30v4h-.47l-2.19-3.11h-.03V34h-.5v-4h.48l2.2 3.12h.03V30H45Z"/></svg>