<!-- by TradingView --><svg xmlns="http://www.w3.org/2000/svg" width="56" height="56" viewBox="0 0 56 56"><path fill="#005D86" d="M0 0h56v56H0z"/><path d="M48 24a4 4 0 0 0-4 4v3a1 1 0 1 0 2 0V28a2 2 0 1 1 4 0v3a1 1 0 1 0 2 0v-2.5-.5a4 4 0 0 0-4-4z" fill="#77A72F"/><path d="M7.64 23A3.64 3.64 0 0 0 4 26.64V31a1 1 0 1 0 2 0v-4.25a1.75 1.75 0 1 1 3.5 0V31a1 1 0 1 0 2 0v-4.25a1.75 1.75 0 1 1 3.5 0V31a1 1 0 1 0 2 0v-4.25a3.75 3.75 0 0 0-6.58-2.46A3.63 3.63 0 0 0 7.64 23zM22.31 24c-1.53 0-4.13.57-4.3 3.96-.18 3.4 2.58 4.1 3.98 4.04h3.27c.3-.03.93-.22.93-.97 0-.76-.62-1.05-.93-1.03H22.3c-.62 0-2.05-.31-2.03-1.4h5.36c.45-.01 1.21-.44.68-2.04-.68-1.99-2.33-2.56-4-2.56zm1.78 3h-3.77c.08-.34.57-1.01 1.9-1 1.34.02 1.77.67 1.87 1z" fill="#fff"/><path d="M38.81 24c-1.53 0-4.13.57-4.3 3.96-.18 3.4 2.58 4.1 3.98 4.04h3.27c.3-.03.93-.22.93-.97 0-.76-.62-1.05-.93-1.03H38.8c-.62 0-2.05-.31-2.03-1.4h5.36c.45-.01 1.21-.44.68-2.04-.68-1.99-2.33-2.56-4-2.56zm1.78 3h-3.77c.08-.34.57-1.01 1.9-1 1.34.02 1.77.67 1.87 1z" fill="#77A72F"/><path d="M29 21c.84 0 1 .68 1 1.2V24h2.93c.3 0 .8.31.8 1.03s-.56.97-.8.97H30v1.94c0 1.17.7 2.06 1.6 2.06h1.45c.47 0 .95.32.95 1 0 .86-.66 1-1.07 1h-1.45A3.51 3.51 0 0 1 28 28.6v-6.4c0-.54.21-1.2 1-1.2z" fill="#fff"/></svg>