<!-- by TradingView --><svg width="56" height="56" viewBox="0 0 56 56" xmlns="http://www.w3.org/2000/svg"><path fill="#F0F3FA" d="M0 0h56v56H0z"/><path d="M24.36 28.2h1.3l-.1-1.52-1.21 1.53Zm.3-1.6c.15-.18.3-.39.42-.6h1.63v.84L27 31h-1.3c.03-.2.04-.4.04-.59l-.1-1.41h-1.88l-1 1.25c-.18.23-.36.49-.51.75H21l3.65-4.4Zm4.28-.6h1.1l-.33.92H28.6l.34-.92Zm-.69 5h-1.17c.52-1.24.98-2.5 1.4-3.78h1.11A107.5 107.5 0 0 0 28.25 31Zm3.08-3.9h-1.05c-.42 1.32-.9 2.63-1.46 3.9H30c.24-.75.5-1.5.82-2.21.32-.61.68-.88 1.29-.88.13 0 .27.01.4.03l.27-.93-.28-.01a1.67 1.67 0 0 0-1.35.67l.18-.57Zm1.84 3.08c.42 0 .66-.1.73-.32a.27.27 0 0 0-.06-.27l-.7-.65c-.35-.33-.55-.57-.42-.99.18-.54.88-.95 1.8-.95.4 0 .79.06 1.17.16l-.21.85c-.33-.13-.68-.2-1.03-.22-.32 0-.52.08-.56.21a.22.22 0 0 0 .06.21l.66.62c.36.33.53.6.38 1.02-.23.72-.93 1.15-1.98 1.15-.43 0-.84-.08-1.24-.22l.2-.95c.37.2.78.33 1.2.36Zm4.33-.13c-.69 0-1-.04-.72-.97.1-.35.23-.7.39-1.02.27-.1.55-.15.83-.15.76 0 1 .4.77 1.2-.26.86-.62.94-1.27.94Zm.76-3.05c-.65 0-1.3.1-1.94.28A58.78 58.78 0 0 1 34.28 33h1.17l.07-.22.3-.93.5-1.29c.22.28.57.44 1.06.44 1.17 0 2.15-.55 2.56-1.92.4-1.38-.15-2.08-1.68-2.08Zm4.09 3.12.42-1.07c-.15.08-.3.13-.46.18l-.6.16c-.42.11-.64.2-.73.46-.08.24.06.4.4.4.23-.02.46-.06.68-.12l-.5.77c-.25.06-.5.1-.75.1-.83 0-1.19-.42-.97-1.1.19-.58.65-.92 1.42-1.11l.93-.23c.53-.13.82-.23.89-.45.07-.22-.09-.39-.49-.39a5.2 5.2 0 0 0-1.6.38l.43-.9a7.66 7.66 0 0 1 1.64-.2c1.1 0 1.42.3 1.17 1.06l-.02.06-.1.28-.71 1.88-.07.24-.14.48H42c.11-.21.21-.5.3-.74l.05-.14ZM46.27 27H45.2c-.42 1.32-.9 2.73-1.45 4h1.18a8.03 8.03 0 0 1 .17-.57c.57-1.8 1.08-2.62 2.1-2.62.6 0 .68.28.47.94a30 30 0 0 1-.84 2.25h1.16a30.37 30.37 0 0 1 .12-.38c.2-.67.4-1.21.55-1.64l.24-.67c.29-.91-.03-1.3-1.18-1.3a2.32 2.32 0 0 0-1.6.57l.15-.58Z"/><path d="M9.28 32.37c-.83-2.73-.28-9.56 8.5-14.99.16-.16 7.4-4.42 14.4-4.77.2-.07.6-.28.66-.61.2.32.38 1-.56 1.12l-.17.03c-1.6.2-8.53 1.1-14 4.84-5.71 3.9-9.49 7.63-8.83 14.38Zm12.28 3.2c-3.2-.9-4.52-3.46-4.6-4.67 1.26 3.32 4.11 3.88 4.5 3.96h.03c.2.05.29-.16.3-.27.02.02.08.48.08.7 0 .22-.2.28-.31.28Zm-8.92-3.66c.32 1.7 2.15 5.5 7.27 6.77.16 0 .57-.19.57-.5 0-.32-.06-.48-.1-.51-.02.15-.15.45-.47.4-.4-.08-5.34-1.06-7.27-6.16ZM8 33.13c.44 2.25 3.13 7.18 10.35 8.87.24 0 .7-.1.7-.53 0-.42-.08-.63-.13-.68-.04.21-.23.61-.68.53-.56-.1-7.53-1.4-10.24-8.2Zm11.61-13.58c-6.58 4.3-6.86 9.51-6.17 11.58C12.8 26 16 23.2 20.27 20.1c4.04-2.92 8.76-3.63 10.02-3.83l.19-.02c.7-.12.65-.87.49-1.11-.05.25-.35.42-.5.48-5.3.4-10.74 3.8-10.86 3.92Zm-1.95 10.47c-.52-1.57-.31-5.54 4.7-8.81a14.1 14.1 0 0 1 7.26-2.94c.11-.04.34-.17.38-.36.12.18.16.75-.38.84h-.03c-.73.12-3.53.57-6.73 2.89-3.25 2.34-5.69 4.48-5.2 8.38Z" fill="#014459"/></svg>