<!-- by TradingView --><svg width="56" height="56" viewBox="0 0 56 56" xmlns="http://www.w3.org/2000/svg"><path fill="#F0F3FA" d="M0 0h56v56H0z"/><path d="M22 42s-.15-.02-.22-.07l-5.74-3.37-.04-.04v-14l3.82-2.26c.71-.41 1.43-.9 2.18-1.26v21Z" fill="#00843A"/><path d="M22.03 21.02c-.74.37-1.44.82-2.17 1.24-1.29.74-2.57 1.5-3.86 2.25l-.52-.3-5.46-3.18c.7-.47 1.44-.87 2.17-1.3l9.58-5.6.25-.13 5.96 3.45a.4.4 0 0 0 0 .05l-2.68 1.57-3.26 1.92v.03Z" fill="#A3CF63"/><path d="M27.98 17.5a.4.4 0 0 1 0-.05c.78-.4 1.53-.86 2.29-1.3L33.99 14l1.31.76 7.02 4.1a14244.16 14244.16 0 0 0 3.67 2.17l-3.62 2.08-2.38 1.4-.12-.06-5.85-3.42a1.09 1.09 0 0 0-.1-.09c-1.58-.92-3.15-1.86-4.73-2.77a9 9 0 0 0-1.21-.67Z" fill="#AFABD5"/><path d="m39.99 24.51 2.38-1.4 3.62-2.08.01.22v13.78l-1 .6-4.75 2.75c-.07.04-.14.1-.23.08h-.05l.02-.33V24.5Z" fill="#999CCE"/><path d="m10.02 21.03 5.46 3.18.52.3v14l-3.11-1.8-2.67-1.54c-.07-.04-.13-.1-.22-.14V21.36c0-.12 0-.22.02-.33Z" fill="#6DC06B"/><path d="M34 42c-.79-.4-1.54-.87-2.3-1.3l-3.45-2.02-.27-.13v-.03h.04c.25-.14.5-.32.74-.47 1.27-.74 2.53-1.44 3.8-2.17.47-.27.94-.6 1.44-.8V42Z" fill="#89A9D8"/><path d="M27.98 38.52v.03l-5.6 3.26-.32.16c-.08-.07-.06-.17-.06-.26v-6.62c.1 0 .2.04.27.1l1.53.88 4.18 2.45Z" fill="#63C29C"/><path d="M16 38.49v.03l5.61 3.32.32.16c.08-.07.07-.17.07-.27V35c-.1 0-.2.04-.28.1l-1.53.9L16 38.49Z" fill="#007A48"/><path d="M16 31.5v.02l5.61 3.32.32.16c.08-.07.07-.17.07-.27V28c-.1 0-.2.04-.28.1l-1.53.9L16 31.5Z" fill="#006543"/><path d="M16 24.5v.02l5.61 3.32.32.16c.08-.07.07-.17.07-.27V21c-.1 0-.2.04-.28.1l-1.53.9L16 24.5Z" fill="#008B52"/><path d="M34 42v-6.96l3.7 2.12c.76.44 1.5.92 2.28 1.3h.04c-.03.09-.1.12-.18.16l-5.65 3.3c-.06.04-.1.1-.19.08Z" fill="#2F3790"/><path d="m27.98 38.52-4.18-2.44-1.53-.9a.48.48 0 0 0-.27-.09v-7.05c.06-.01.12 0 .17.05 1 .58 2 1.17 3.01 1.74.95.55 1.87 1.03 2.82 1.57v.6c0 2.32.03 4.18.03 6.51l-.05.01Z" fill="#6DC06B"/><path d="M25.19 29.83c-1-.57-1.99-1.16-2.99-1.74a.33.33 0 0 0-.2-.06V21l6 3.4v7.02s-1.8-1-2.81-1.58Z" fill="#056C76"/><path d="M28 24.45 22.02 21l3.29-1.94 2.67-1.57c.42.2.82.42 1.2.68 1.58.91 3.15 1.84 4.73 2.77L34 21c-1.94 1.17-3.94 2.44-6 3.45Z" fill="#6CA89F"/><path d="M39.98 38.47c-.79-.39-1.52-.87-2.28-1.3L34 35.04V21l5.86 3.46.12.06v13.62c.02.1 0 .22 0 .33Z" fill="url(#aaxothjpr)"/><path d="M28.02 38.51 28 32.46V31s3.74 2.64 4.92 3.36c.36.2.78.4 1.08.69v.04c-.5.2-.97.55-1.43.82-1.28.73-2.55 1.44-3.82 2.18l-.73.42Z" fill="#B1CDC8"/><path d="M33.97 35.05c-.3-.3-.7-.46-1.05-.67L28 31.41c.7-.34 1.39-.76 2.06-1.14L34 28.02v7.02h-.03Z" fill="#89A9D8"/><path d="M34 20.99v7c-.88-.51-1.8-1.02-2.67-1.54L28 24.5v-.04c.45-.22.89-.47 1.3-.73l3.6-2.09c.36-.22.73-.47 1.1-.65Z" fill="#657CBD"/><path d="m28 24.5 3.35 1.95L34 28v.03l-3.95 2.25c-.67.38-1.34.8-2.05 1.14V24.5Z" fill="#486C9A"/><path d="M39.97 24.5 34 27.98l5.97 4.04v-7.5Z" fill="#5465AE"/><defs><linearGradient id="aaxothjpr" x1="36.99" y1="27.37" x2="36.99" y2="38.47" gradientUnits="userSpaceOnUse"><stop offset=".04" stop-color="#6B55A3"/><stop offset=".05" stop-color="#524FA0"/></linearGradient></defs></svg>