<!-- by TradingView --><svg xmlns="http://www.w3.org/2000/svg" width="56" height="56" viewBox="0 0 56 56"><path fill="#F0F3FA" d="M0 0h56v56H0z"/><path d="M20 21.12c.08.63.3 2.16.6 3.2.38 1.28.7 4.19.76 5 .05.65.57 3.34.82 4.6.43.46 1.51 1.38 2.36 1.38.85 0 1.34-1.43 1.48-2.14.17-.66.6-2.1.97-2.6.47-.63 1.06-3.88 1.24-6.4.41 1.1 1 6 0 16.68.9 1.14 2.86 2.74 3.57 0 .23-1.18.7-3.63.8-4.01.12-.48.84-3.67.77-5.68.43-2.62 1.12-9.32.5-15.18 1.02 1.88 2.54 9.49.5 24.87-.25 2.13-.26 6.34 1.66 6.14.46.1 1.43-.27 1.54-2.6.12-2.35.54-5.7.73-7.07.45-3.51 1.14-11.52.31-15.47C37.57 16.9 35.73 9.03 32.14 9c-.26.08-.58.82.23 3.07 1 2.8 1.35 6.27-.42 14.87-.65-4.72-2.8-13.98-6.18-13.21-.35.06-.9.6-.32 2.24.73 2.05.15 7.67-.9 10.64-.3-2.17-1.43-6.49-3.72-6.4-.31.03-.91.24-.82.9ZM16.5 32a3.5 3.5 0 1 0 0-7 3.5 3.5 0 0 0 0 7Z" fill="#054F7D"/></svg>