<!-- by TradingView --><svg width="56" height="56" viewBox="0 0 56 56" xmlns="http://www.w3.org/2000/svg"><path fill="#F0F3FA" d="M0 0h56v56H0z"/><path d="M7 22v12h5V22H7Z" fill="#677DAD"/><path d="M7 29v5h10v-5H7Z" fill="#677DAD"/><path d="M12 29H7v5h5v-5Z" fill="#022871"/><path d="M24 22.04 17.35 34h5.66l4.17-6.7L24 22.03Z" fill="#677DAD"/><path d="m24 22 7.1 12h-5.65l-4.31-6.86L24 22Z" fill="#677DAD"/><path d="M21.15 27.16 24 22.04l1.1 1.82 2.06 3.47-2.94 4.71-3.07-4.88Z" fill="#022871"/><path d="M33.77 33.96 27 22h5.76L37 28.7l-3.23 5.26Z" fill="#677DAD"/><path d="M33.77 34 41 22h-5.76l-4.39 6.86L33.77 34Z" fill="#677DAD"/><path d="m30.87 28.84 2.9 5.12 1.12-1.82 2.09-3.47-2.99-4.71-3.12 4.88Z" fill="#022871"/><path d="M43.77 22.04 37 34h5.76L47 27.3l-3.23-5.26Z" fill="#677DAD"/><path d="M43.77 22 51 34h-5.76l-4.39-6.86L43.77 22Z" fill="#677DAD"/><path d="m40.87 27.16 2.9-5.12 1.12 1.82 2.09 3.47-2.99 4.71-3.12-4.88Z" fill="#022871"/></svg>