<!-- by TradingView --><svg xmlns="http://www.w3.org/2000/svg" width="56" height="56" viewBox="0 0 56 56"><path fill="#620B11" d="M0 0h56v56H0z"/><path d="M4 23.7c1.66 0 2.73 1.96 3.6 3.9.78 1.79 1.37 3.4 2.69 3.4 1.32 0 1.92-1.61 2.71-3.4.86-1.94 1.92-3.9 3.58-3.9 1.66 0 2.7 1.96 3.55 3.9.8 1.79 1.41 3.4 2.73 3.4 1.33 0 1.97-1.61 2.77-3.4.86-1.94 1.86-3.9 3.52-3.9v.48c-1.43 0-2.26 1.7-3.07 3.55-.84 1.89-1.67 3.76-3.22 3.76-1.54 0-2.37-1.87-3.2-3.76-.82-1.84-1.65-3.55-3.08-3.55-1.44 0-2.27 1.7-3.08 3.55-.84 1.89-1.66 3.76-3.21 3.76s-2.37-1.87-3.21-3.76c-.82-1.84-1.64-3.55-3.08-3.55v-.49Z" fill="#A2A9AD"/><path d="M26.54 27.11c-.9-2.06-1.8-4.11-3.68-4.11-1.88 0-2.77 2.04-3.67 4.11-.75 1.72-1.5 3.46-2.61 3.46-1.1 0-1.87-1.74-2.62-3.46-.9-2.06-1.8-4.11-3.67-4.11-1.88 0-2.77 2.04-3.68 4.11-.75 1.72-1.5 3.46-2.61 3.46v1.3c2 0 2.93-2.14 3.85-4.25.73-1.67 1.45-3.31 2.44-3.31s1.7 1.64 2.44 3.3c.92 2.12 1.86 4.26 3.85 4.26s2.93-2.14 3.85-4.25c.72-1.67 1.44-3.31 2.43-3.31 1 0 1.71 1.64 2.44 3.3.93 2.12 1.86 4.26 3.85 4.26v-1.3c-1.1 0-1.86-1.74-2.61-3.46ZM51.37 25.77c-.42-.51-1.04-.77-1.88-.77-.53 0-1 .12-1.38.37-.39.25-.7.6-.92 1.07-.12-.3-.25-.53-.4-.71a2.04 2.04 0 0 0-.51-.45c-.17-.1-.36-.18-.56-.22a2.76 2.76 0 0 0-.56-.06A2.35 2.35 0 0 0 43 26.34V25h-1v7h1v-3.5c0-.46.07-.86.18-1.2.11-.33.26-.6.45-.82a1.6 1.6 0 0 1 1.3-.65c.31 0 .58.05.78.16.2.1.37.24.49.43s.2.42.24.7c.05.27.06.57.06.9V32h1v-3.63c0-.62.06-1.2.39-1.74.14-.24.34-.43.57-.57.24-.15.53-.22.88-.22.62 0 1.06.22 1.32.66.25.43.34 1 .34 1.73V32h1v-4.19c0-.84-.21-1.52-.63-2.04ZM40.77 25.97c-.27-.3-.62-.53-1.03-.7a3.64 3.64 0 0 0-1.42-.27 3.54 3.54 0 0 0-2.48 1c-.31.3-.55.68-.73 1.1-.18.43-.26.9-.26 1.4a3.57 3.57 0 0 0 1.01 2.5c.32.32.69.56 1.13.74.43.17.91.26 1.42.26a3.68 3.68 0 0 0 2.95-1.41l-.75-.57c-.2.3-.48.57-.86.8-.38.24-.83.35-1.35.35a2.54 2.54 0 0 1-2.3-1.48c-.14-.3-.2-.61-.22-.94h5.71l.02-.24v-.21c0-.46-.07-.88-.21-1.28a3 3 0 0 0-.63-1.05ZM35.9 28a2.26 2.26 0 0 1 .74-1.53 2.48 2.48 0 0 1 1.68-.66c.71 0 1.27.2 1.65.62.4.41.6.94.63 1.57h-4.7Z" fill="#fff"/><path d="M33 23.5h-1v1.7h-1.43v.8H32v4.25a2 2 0 0 0 .16.88 1.5 1.5 0 0 0 1 .8 3.5 3.5 0 0 0 1.75-.13l-.03-.82a2.07 2.07 0 0 1-1.28.16.75.75 0 0 1-.33-.19.84.84 0 0 1-.2-.37 2.17 2.17 0 0 1-.07-.6V26h2v-.81h-2V23.5Z" fill="#fff"/></svg>