<!-- by TradingView --><svg xmlns="http://www.w3.org/2000/svg" width="56" height="56" viewBox="0 0 56 56"><path fill="url(#argohiedv)" d="M0 0h56v56H0z"/><path d="M45 28c0 2.58-.57 5.02-1.6 7.21l-1.02-1.02-.06-.05-.44-.45-9.08-9.22-3.68 3.58 5.18 5.12L33 34.5 22.76 24.47 14 33.4v.01l-1.51 1.55A17 17 0 1 1 45 28zm-32 0c0 1.06.11 2.1.32 3.1l9.44-9.37 5.05 4.88 5-4.88 9.78 9.77A15 15 0 1 0 13 28zm25.85 10.36l1.4 1.43A16.95 16.95 0 0 1 28 45c-4.9 0-9.31-2.07-12.41-5.39l1.39-1.43A14.96 14.96 0 0 0 28 43c4.27 0 8.12-1.78 10.85-4.64z" fill="#fff"/><defs><linearGradient id="argohiedv" x1="10.42" y1="9.71" x2="68.15" y2="76.02" gradientUnits="userSpaceOnUse"><stop stop-color="#1A1E21"/><stop offset="1" stop-color="#06060A"/></linearGradient></defs></svg>