<!-- by TradingView --><svg width="56" height="56" viewBox="0 0 56 56" xmlns="http://www.w3.org/2000/svg"><path fill="#F0F3FA" d="M0 0h56v56H0z"/><path d="M44.8 21.2a.86.86 0 0 0-.74-.33c-.38.01-.6.17-.74.35-.16.2-.22.46-.23.6l-.06.77-.68-.36c-.37-.2-.65-.24-.84-.23a.7.7 0 0 0-.44.18c-.26.24-.41.67-.46 1.03l-.99-.12c.06-.48.27-1.19.79-1.65a1.7 1.7 0 0 1 1.04-.44c.26-.02.52.02.8.1a1.89 1.89 0 0 1 1.78-1.24c.72 0 1.23.31 1.55.72.3.38.45.84.48 1.15l-.99.12c-.02-.17-.1-.44-.27-.65ZM13.56 27h1.54v1h-1.51c-.3.02-.52.18-.7.44-.18.27-.28.6-.31.78-.07.47-.53 1.29-1.65 1.43-.35.04-.6.17-.75.29a.82.82 0 0 0-.18.18v4.96H9v-5.11c.03-.18.11-.34.2-.46.1-.13.22-.25.37-.37.3-.22.71-.42 1.23-.48.61-.08.77-.48.8-.6.04-.3.19-.77.47-1.19.3-.42.77-.83 1.48-.87h.01Zm14.04 3.96-1.5-1 .55-.83 1.54 1.03.03.02c.1.08.28.2.46.27.2.07.26.03.26.03.4-.26.9-.29 1.33-.2.43.08.87.28 1.23.57.14.12.47.2.87.2.2-.01.36-.04.49-.08.1-.03.14-.06.14-.06.18-.22.47-.4.69-.51.24-.13.5-.24.66-.3l.36.93c-.13.05-.34.14-.55.25-.22.12-.35.22-.39.27-.17.2-.42.31-.62.38-.22.06-.48.1-.74.11a2.37 2.37 0 0 1-1.55-.42 1.8 1.8 0 0 0-.78-.37c-.28-.05-.48 0-.59.06-.4.28-.86.18-1.16.08-.3-.11-.56-.29-.73-.43ZM42.8 33c2.54-.64 3.74.86 4.15 1.77l-.92.4c-.25-.56-1.02-1.7-2.98-1.2l-.25-.97Z" fill="#3F75A3"/><path fill-rule="evenodd" d="M35.5 18a2.5 2.5 0 1 0 0-5 2.5 2.5 0 0 0 0 5Zm0 1a3.5 3.5 0 1 0 0-7 3.5 3.5 0 0 0 0 7Z"/><path d="M18.28 15H24v6.3l1.58 1.74L27 24.59v8.24L30.24 39H32v-6.86h1v.87l1-1.07v-4.1h1.5V24H39l2.01 4h1.69l.93 7.22L45.84 39H47v1H29.64L26 33.06v-8.09l-.29-.3v1.12h-1v-2.21l-.71-.79V30h-1V16h-3v7h-2.22L17 32.52l-3.5 1.87L12.37 40H8v-1h3.54l1.6-7.78 1.54-.46v-9.6l2.22-.9L18.28 15Zm-4.51 18.12 2.28-1.22.81-9.9H19v-5.8L17.74 21l-2.06.84v9.66L14 32l-.22 1.12ZM44.68 39l-2.02-3.45-.84-6.55H40.4l-.21-.42.44 1.34 1.54 2.07-.37 4.45L43.96 39h.72Zm-2.03 0-1.88-2.23.38-4.48-1.42-1.9L37.95 25H36.5v3.84H35v3.5l-2 2.13V39h1.67l1.47-2.8-.5-3.52 1.52-4 .93.36-1.43 3.75.52 3.59L35.8 39h6.85ZM18 32.66V25.8h1v6.87h-1Z"/></svg>