<!-- by TradingView --><svg width="56" height="56" viewBox="0 0 56 56" xmlns="http://www.w3.org/2000/svg"><path fill="#F0F3FA" d="M0 0h56v56H0z"/><path fill-rule="evenodd" d="M38.67 14H17.33A4.37 4.37 0 0 0 13 18.32v19.36A4.37 4.37 0 0 0 17.33 42h21.34A4.37 4.37 0 0 0 43 37.68V18.32A4.37 4.37 0 0 0 38.67 14Zm-21.34-1A5.33 5.33 0 0 0 12 18.32v19.36A5.33 5.33 0 0 0 17.33 43h21.34A5.33 5.33 0 0 0 44 37.68V18.32A5.33 5.33 0 0 0 38.67 13H17.33Z" fill="#F96408"/><path d="M15 25a7 7 0 1 1 14 0v6h-2v-6a5 5 0 0 0-4-4.9V31h-2V20.1a5 5 0 0 0-4 4.9v6h-2v-6Z" fill="#F96408"/><path d="M27 31a7 7 0 1 0 14 0v-6h-2v6a5 5 0 0 1-4 4.9V25h-2v10.9a5 5 0 0 1-4-4.9v-6h-2v6Z" fill="#F96408"/></svg>