<!-- by TradingView --><svg width="56" height="56" viewBox="0 0 56 56" xmlns="http://www.w3.org/2000/svg"><path fill="url(#a5lr4zelg)" d="M0 0h56v56H0z"/><path d="M18.3 29h-3.9c-.19 0-.18.04-.16.21.08.73.64 1.36 1.4 1.38.66.04 1.32-.11 1.9-.44l.1-.06.1.19.37.83a.11.11 0 0 1-.05.17c-.47.33-1.02.55-1.6.64-.62.12-1.28.1-1.9-.06a2.87 2.87 0 0 1-2.07-2.06 4.37 4.37 0 0 1 .2-3.08A2.74 2.74 0 0 1 15.35 25c.5-.02 1 .08 1.47.3a2.5 2.5 0 0 1 1.36 1.75c.06.3.1.62.11.93.02.35 0 .65 0 1.02Zm-1.8-1.17c-.02-.18-.01-.36-.04-.54a1.03 1.03 0 0 0-.6-.8 1.06 1.06 0 0 0-1 .06c-.45.28-.57.77-.63 1.28h2.27ZM8 32H6v-7h1.72l.09 1.1.17-.21a2.36 2.36 0 0 1 2.96-.61c.92.5 1.04 1.53 1.06 2.45V32h-2v-4.42c-.03-.81-.52-1.32-1.4-1.08-.26.08-.62.31-.6.64V32ZM19 25h2v4.12c-.03.6.03 1.42.76 1.42.21.03.43 0 .63-.05.32-.1.63-.32.61-.72V25h2v7h-1.58l-.16-1.1c-.16.2-.33.38-.52.56a2.15 2.15 0 0 1-1.82.5 2.03 2.03 0 0 1-1.82-1.74c-.06-.34-.1-.68-.1-1.02V25ZM26 22h.72v4.18c.47-.65 1.04-1.16 1.9-1.17 1.38 0 2.04.72 2.42 1.82.21.7.3 1.33.24 2.07 0 .64-.15 1.27-.43 1.84a2.2 2.2 0 0 1-2.3 1.25 2.26 2.26 0 0 1-1.8-1.05l-.05-.09-.08 1.15H26V22Zm4.57 6.57c0-.2-.02-.3-.03-.5-.05-.84-.37-1.91-1.22-2.28a1.95 1.95 0 0 0-2.54 1.13.56.56 0 0 0-.05.23v2.81c0 .07.01.13.04.2.14.33.37.62.66.83.3.21.64.34.99.36.84.07 1.47-.24 1.83-1.04.23-.55.34-1.15.32-1.74ZM37.24 32h-.76l-.14-1.18c-.1.11-.2.24-.32.35a2.76 2.76 0 0 1-2.87.67 1.6 1.6 0 0 1-.79-.55c-.2-.27-.31-.59-.33-.92a1.79 1.79 0 0 1 .7-1.75c.31-.25.68-.42 1.07-.49.38-.06.77-.1 1.15-.12.48-.02.93 0 1.4 0v-.96a1.28 1.28 0 0 0-.76-1.2 2.17 2.17 0 0 0-2.04.09 1.2 1.2 0 0 0-.67 1.05h-.67c-.03-.25.02-.5.13-.72.26-.5.7-.88 1.22-1.06a3.14 3.14 0 0 1 2.26 0c.38.14.72.4.95.74.22.35.25.77.23 1.18v3.25c-.01.49.24 1.62.24 1.62Zm-.88-3.42c-.68.01-1.34 0-2 .06-.5.03-.98.26-1.32.65a1.21 1.21 0 0 0-.27 1.14 1.2 1.2 0 0 0 .82.84c.39.1.8.1 1.19 0a2.3 2.3 0 0 0 1.52-1.13c.04-.05.06-.1.06-.17v-1.4ZM50 28.78h-5.18c-.04.6.1.92.4 1.45.18.36.48.65.85.85.37.2.8.3 1.22.28.59 0 1.16-.14 1.66-.42l.46-.32.33.5c-.2.2-.46.38-.75.5a3.86 3.86 0 0 1-2.99.15 2.96 2.96 0 0 1-1.83-1.98 4.72 4.72 0 0 1-.14-1.77c.02-.57.2-1.12.53-1.61a2.93 2.93 0 0 1 2.28-1.4c1.63-.12 2.8.7 3.07 2.13.06.46.09 1.18.09 1.64Zm-.8-.78a8.27 8.27 0 0 0-.11-.92c-.39-1.4-1.8-1.67-2.77-1.3-.29.12-.54.29-.75.5-.22.22-.38.47-.48.74-.12.27-.19.7-.2.98h4.31ZM42.9 27h-.67l-.06-.3a1.39 1.39 0 0 0-.9-.95 2.26 2.26 0 0 0-1.63.03 1.06 1.06 0 0 0-.72.9.96.96 0 0 0 .5 1c.34.19.7.32 1.09.39.56.12 1.1.3 1.61.57a1.65 1.65 0 0 1 .85 1.17 1.7 1.7 0 0 1-.38 1.4c-.34.37-.78.62-1.26.7-.7.16-1.43.1-2.1-.16a1.86 1.86 0 0 1-1.18-1.26 1.98 1.98 0 0 1-.05-.43c0-.03.05-.09.08-.09h.6c.01.1.02.2.05.3a1.13 1.13 0 0 0 .54.76 2.52 2.52 0 0 0 2.25.14 1.12 1.12 0 0 0 .7-.74 1.08 1.08 0 0 0-.4-1.15 2.82 2.82 0 0 0-1.07-.46 8.14 8.14 0 0 1-1.53-.47c-.36-.14-.67-.4-.87-.74a1.67 1.67 0 0 1 .37-2c.4-.35.92-.56 1.45-.59.58-.07 1.17.02 1.7.27a1.76 1.76 0 0 1 1.03 1.48V27Z" fill="#fff"/><defs><linearGradient id="a5lr4zelg" x1="10.42" y1="9.71" x2="68.15" y2="76.02" gradientUnits="userSpaceOnUse"><stop stop-color="#1A1E21"/><stop offset="1" stop-color="#06060A"/></linearGradient></defs></svg>