<!-- by TradingView --><svg xmlns="http://www.w3.org/2000/svg" width="56" height="56" viewBox="0 0 56 56"><path fill="#F0F3FA" d="M0 0h56v56H0z"/><path d="M5 22h2.58l6.1 9.97H11.1L7 25.6V32H5V22ZM20.44 27.69v1.56H17v1.19h3.74V32H15v-7h5.66v1.6H17v1.09h3.44ZM43.5 27.69v1.56H40v1.19h3.82V32H38v-7h5.73v1.6H40v1.09h3.5ZM25.22 29.74 23.62 32h-2.38l2.63-3.64L21.43 25h2.38l1.41 1.98L26.63 25h2.39l-2.41 3.36L29.24 32H26.8l-1.58-2.26Z"/><path d="M36.53 22v2H33v8h-2v-8h-3.42l1.33-2h7.62Z"/><path d="M36.53 32h-2v-7h2v7ZM45 32v-7h2.72c2.04 0 3.28.71 3.28 2.39 0 1.1-.73 1.7-1.43 2.03L51 32h-2.22l-1.17-2.28H47V32h-2Zm2-5.4v1.61h.72c.76 0 1.28-.22 1.28-.8 0-.6-.52-.82-1.28-.82H47Z"/><path d="M13.68 29.5 9.15 22h4.53v7.5Z" fill="#037D3F"/></svg>