<!-- by TradingView --><svg width="56" height="56" viewBox="0 0 56 56" xmlns="http://www.w3.org/2000/svg"><path fill="#F0F3FA" d="M0 0h56v56H0z"/><path d="M42.07 19.5a5.54 5.54 0 0 0-.95 2.27c-.23 1.17-1.95 9.54-2.79 13.58A2.9 2.9 0 0 1 35.25 38a6.79 6.79 0 0 1-4.68-1.98l3.08-16.08c.24-.64 1.26-1.94 3.5-1.94h5.12l-.2 1.5Zm-30.5 17c.22-.27.71-1.09.94-2.26.23-1.17 1.96-9.54 2.8-13.58A2.9 2.9 0 0 1 18.37 18c2.3 0 4.08 1.32 4.68 1.98l-3.08 16.08c-.23.65-1.25 1.94-3.48 1.94h-5.14l.21-1.5Z" fill="url(#awnwgn3qj)"/><path d="M40.14 22H48c-.27-1.33-1.19-4-2.74-4H37.5c1.2 0 2.36 2.67 2.64 4ZM14.18 36H6c.27.67 1.18 2 2.74 2h7.76c-1.2 0-2.04-1.33-2.32-2ZM19 18c.47.01 1.52.35 1.92 1.6.4 1.24 2.65 11.33 3.73 16.22.24.73 1.13 2.18 2.78 2.18H35c-.51-.02-1.66-.44-2.17-1.94S30.3 25 29.35 20.4c-.17-.8-.92-2.39-2.6-2.39H19Z" fill="#EC1848"/><defs><linearGradient id="awnwgn3qj" x1="26.82" y1="18" x2="26.82" y2="38" gradientUnits="userSpaceOnUse"><stop stop-color="#001B47"/><stop offset=".52" stop-color="#004A79"/><stop offset="1" stop-color="#000D36"/></linearGradient></defs></svg>