<!-- by TradingView --><svg width="56" height="56" viewBox="0 0 56 56" xmlns="http://www.w3.org/2000/svg"><path fill="#F0F3FA" d="M0 0h56v56H0z"/><path d="m37 12-1.84 17h-4.32L29 12h3.17L33 24.26 33.83 12H37ZM15 12h-3v17h3V15.71a3.83 3.83 0 0 1 1.48-.71c.34 0 .49.55.52.82V29h3V15.45C20 13.6 18.92 12 17.55 12c-1.1 0-2.24 1.2-2.55 1.81V12ZM21 15.5a3.5 3.5 0 1 1 7 0v10a3.5 3.5 0 1 1-7 0v-10Zm3 5.5v4.5a.5.5 0 0 0 1 0v-10a.5.5 0 0 0-1 0V21ZM37 18h3v-2.15c0-.35.01-.85.42-.85.5 0 .58.3.58.68v2.57c-.91.66-2.73 2.08-3.07 2.42-.42.42-.93 1.06-.93 2.5v3.07c.11.92.67 2.76 2.02 2.76s1.83-1.02 1.98-1.53V29h3V15.65c-.07-1.21-.83-3.65-3.29-3.65-3.08 0-3.71 3.14-3.71 4.55V18Zm4 3v4.27c-.02.24-.15.73-.44.73-.37 0-.56-.37-.56-.98v-2.56L41 21ZM12 31h32v8H12z" fill="#656565"/><path d="M13.33 43.24c-.58.38-.99 1.33-1.12 1.76 1.63-.81 5.7-2.44 8.96-2.44 4.07 0 6.99 2.44 12.13 2.44 5.14 0 8.19-2.61 9.04-3.09.86-.47.95-1.5.77-1.62-.17-.13-4.62 2.27-7.97 2.27-3.34 0-8.23-2.56-12.34-2.56-4.11 0-8.74 2.77-9.47 3.24Z" fill="#E12728"/><path fill="#F0F3FA" d="M14 32h1v6h-1zM37 32h1v6h-1z"/><path fill="#F0F3FA" d="M14 37h2v1h-2zM37 37h2v1h-2zM17 32h1v6h-1zM19 32h1v6h-1zM22 32h1v6h-1zM40 32h1v6h-1zM30 32h1v6h-1z"/><path fill="#F0F3FA" d="M19 32h2v1h-2zM22 32h2v1h-2zM40 32h2v1h-2zM29 32h3v1h-3zM19 34h2v1h-2zM22 34h2v1h-2zM40 34h2v1h-2zM22 37h2v1h-2zM40 37h2v1h-2zM27.7 33l-.2-1c-1.5.5-2.5 1.37-2.5 1.94 0 .58 2 1.66 2 2.16 0 .4-.93.67-1.5.9v1c.59-.2 2.5-1.24 2.5-2.11 0-.87-2-1.57-2-2.15 0-.47 1.1-.55 1.7-.74ZM36.25 32.48c-.42.48-1.25 1.7-1.25 2.67V38h-1v-2.83c0-.97-.83-2.17-1.25-2.65.06-.09.55-.39.75-.52.5.68.84 1.73 1 2.33.26-.66.38-1.6 1-2.33.24.14.7.4.75.48Z"/></svg>