<!-- by TradingView --><svg width="56" height="56" viewBox="0 0 56 56" xmlns="http://www.w3.org/2000/svg"><path fill="#F0F3FA" d="M0 0h56v56H0z"/><path d="M26.55 20.3 21.26 28a5.5 5.5 0 1 1 5.29-7.7Z" fill="#ED5F23"/><path d="M16.52 32.6C13.86 35.27 10.85 36 9.5 36c-1 .07-1.5 1.63-1.5 2.24 0 .61.29.76.4.76 4.51 0 9.22-2.44 14.1-10 4.9-7.6 6.35-12 8.72-12 2.37 0 7.7 7.12 10.15 9.95C43.84 29.78 48.2 33 48.55 33c.27 0 .45-.15.45-1.2 0-.72-.33-1.38-.76-1.74-3.24-1.91-8.09-8.1-10.5-10.7-2.43-2.6-4.66-5.36-6.52-5.36-1.86 0-3.71 2.58-6.44 7.68-2.73 5.1-4.93 7.55-8.26 10.91Z" fill="#333"/><path d="M41.66 30.35 31.78 21c-.87 1.16-.84 1.9-.72 2.13 2.9 2.52 8.27 8.03 10.6 9.87.62-.35.26-1.91 0-2.65Z" fill="#333"/></svg>