<!-- by TradingView --><svg width="56" height="56" viewBox="0 0 56 56" xmlns="http://www.w3.org/2000/svg"><path fill="#F0F3FA" d="M0 0h56v56H0z"/><path d="M13 13h30v30H27.87v-1H42V14H14v14.33h-1V13Z" fill="#FF914D"/><path fill-rule="evenodd" d="M27.04 38.97c6.05.44 11.39-4.1 11.92-10.16a10.81 10.81 0 0 0-10-11.78 11.19 11.19 0 0 0-11.92 10.16 10.81 10.81 0 0 0 10 11.78Zm1.4-1.97c3.86-.15 6.8-4.3 6.55-9.26-.25-4.97-3.58-8.88-7.44-8.74-3.85.15-6.78 4.3-6.54 9.26.25 4.97 3.58 8.88 7.44 8.74Z" fill="#0F4C81"/></svg>