<!-- by TradingView --><svg width="56" height="56" viewBox="0 0 56 56" xmlns="http://www.w3.org/2000/svg"><path fill="#F0F3FA" d="M0 0h56v56H0z"/><path d="M22.4 12.12A14.59 14.59 0 0 1 27.9 11c2.71-.03 5.46.63 7.8 2.04a15.79 15.79 0 0 1 4.44 3.94c2.48 3.21 3.5 7.5 2.73 11.5-.2.98-.5 1.95-1.02 2.82-.42.69-.96 1.3-1.64 1.75a11.2 11.2 0 0 1-3.14 1.4c-.67.2-1.35.39-2.05.5.49-.1.93-.36 1.26-.73.58-.62.9-1.43 1.12-2.23.31-1.15.41-2.33.41-3.52a19.2 19.2 0 0 0-1.17-6.36 15.2 15.2 0 0 0-3.91-5.9c-1-.94-2.2-1.62-3.42-2.23-.86-.41-1.78-.71-2.71-.9a9.13 9.13 0 0 0-3.2-.1c-1.6.23-3.14.88-4.36 1.96l-.67.62c-.04.04-.1.05-.15.02.04-.18.18-.3.27-.45a9.84 9.84 0 0 1 3.92-3.01Zm11.39 7.6c.57.9.99 1.87 1.33 2.87a21.89 21.89 0 0 1 .98 7.73 8.93 8.93 0 0 1-.48 2.54c-.14.33-.3.69-.64.86-.3.15-.62-.02-.84-.22-.45-.4-.74-.95-.99-1.5-.45-1-.73-2.08-.9-3.17-.47-3.1.14-6.31 1.54-9.1Z" fill="#3AAF4A"/><path d="M22.6 15.3a5.9 5.9 0 0 1 3.03.32c.72.3 1.38.73 1.98 1.2a19.31 19.31 0 0 1 2.63 2.66c-.39-.49-1-.75-1.6-.83-.9-.11-1.8.06-2.66.33-1.77.57-3.4 1.53-4.85 2.68a17.71 17.71 0 0 0-3.98 4.32 15.47 15.47 0 0 0-2.12 5.43c-.18 1.14-.16 2.3-.1 3.45.14 1.78.67 3.54 1.62 5.04a8.88 8.88 0 0 0 5.08 3.73c.07 0 .15.15.02.15a8.31 8.31 0 0 1-2.19-.5 10.06 10.06 0 0 1-3.31-1.97 15.23 15.23 0 0 1-3.31-4.22A15.2 15.2 0 0 1 11 30.42c-.06-2.06.26-4.14.97-6.07a14.33 14.33 0 0 1 7.28-8c1.06-.5 2.18-.88 3.34-1.04Zm3.34 5.39a8.24 8.24 0 0 1 2.25-.72c.35-.03.75-.06 1.05.17.24.2.24.53.19.8-.13.6-.46 1.13-.8 1.62a12.49 12.49 0 0 1-2.97 2.83 14.52 14.52 0 0 1-4.9 2.18c-1 .24-2.03.4-3.06.42.94-1.73 2.3-3.2 3.81-4.44a21.93 21.93 0 0 1 4.43-2.86Z" fill="#005DA8"/><path d="M44.07 26.83c-.02-.06.03-.2.1-.12.14.21.21.47.3.7.45 1.35.62 2.8.48 4.2a15.52 15.52 0 0 1-5.27 9.8 15.06 15.06 0 0 1-4.85 2.75 14.31 14.31 0 0 1-13.46-2.08c-1-.78-1.94-1.7-2.6-2.8a5.76 5.76 0 0 1-.82-2.98c0-1.36.31-2.7.7-4 .12-.37.22-.75.39-1.1-.2.49-.18 1.04-.01 1.54.26.81.79 1.51 1.37 2.12a14.34 14.34 0 0 0 3.7 2.64 18.06 18.06 0 0 0 6.6 1.95c1.23.1 2.49.02 3.72-.17 1.1-.17 2.16-.48 3.16-.96.79-.37 1.53-.82 2.26-1.3 1.5-1.03 2.78-2.4 3.6-4.03a8.91 8.91 0 0 0 .87-4.91c-.05-.42-.15-.84-.24-1.25ZM20.9 31.12a5.68 5.68 0 0 1 2.08.03c1.5.26 2.93.82 4.24 1.58a15.7 15.7 0 0 1 4.68 4.2c.26.33.48.69.66 1.06a16.4 16.4 0 0 1-7.24-1.82 17.47 17.47 0 0 1-3.82-2.36c-.45-.4-.9-.82-1.2-1.34-.15-.26-.28-.58-.16-.87.14-.3.47-.41.76-.48Z" fill="#8E9191"/></svg>