<!-- by TradingView --><svg width="56" height="56" viewBox="0 0 56 56" xmlns="http://www.w3.org/2000/svg"><path fill="#F0F3FA" d="M0 0h56v56H0z"/><path d="M31 44a5 5 0 1 0 0-10 5 5 0 0 0 0 10Z" fill="#EE5723"/><path d="M21 36a4 4 0 1 0 0-8 4 4 0 0 0 0 8Z" fill="#FCB017"/><path d="M20 25.4a3 3 0 1 0 0-6 3 3 0 0 0 0 6Z" fill="#1FA8C3"/><path d="M24 17a2 2 0 1 0 0-4 2 2 0 0 0 0 4Z" fill="#008B76"/><path d="M30.25 14.5a1.25 1.25 0 1 0 0-2.5 1.25 1.25 0 0 0 0 2.5Z" fill="#432F90"/><path d="M35 16.52a1 1 0 1 0 0-2 1 1 0 0 0 0 2Z" fill="#331D5C"/><path d="M37 21a1 1 0 1 0 0-2 1 1 0 0 0 0 2Z" fill="#006D5C"/><path d="M35.1 24a.9.9 0 1 0 0-1.8.9.9 0 0 0 0 1.8Z" fill="#127C90"/><path d="M30.75 24.5a.75.75 0 1 0 0-1.5.75.75 0 0 0 0 1.5Z" fill="#C78C10"/><path d="M27.5 22a.5.5 0 1 0 0-1 .5.5 0 0 0 0 1Z" fill="#B94318"/></svg>