<!-- by TradingView --><svg width="56" height="56" viewBox="0 0 56 56" xmlns="http://www.w3.org/2000/svg"><path fill="#F0F3FA" d="M0 0h56v56H0z"/><path d="m12.67 32.5-.67.48.4 7.58h7.05V39.5H13.6v-6.15h5.96l.55 7.65.39-.35V32.5h-7.83Z" fill="#AFAFAF"/><path fill-rule="evenodd" d="M20 33h-8v8h8v-8Zm-1 1h-6v6h6v-6Z" fill="#E3E3E3"/><path fill-rule="evenodd" d="M31 23h-8v18h8V23Zm-1 1h-6v16h6V24Z" fill="#7B7658"/><path fill-rule="evenodd" d="M41 13h-8v28h8V13Zm-1 1h-6v26h6V14Z" fill="#212121"/></svg>