<!-- by TradingView --><svg xmlns="http://www.w3.org/2000/svg" width="56" height="56" viewBox="0 0 56 56"><path fill="#5FA846" d="M0 0h56v56H0z"/><path fill-rule="evenodd" d="M12 18.98L27.98 10l15.99 8.98v.05l.03.02v17.97L28.02 46l-15.99-8.98v-.05l-.03-.02V18.98zm19.3-2.95L33 17v4.15l-1.68-.92-3.34-1.87-8.98 4.8V36.67l-3-1.73V21.14l12.02-6.9 3.28 1.8zm-5.17 24.71L23 38.94v-4.08l1.68.92 3.34 1.87 8.98-4.8V19.23l3 1.69v14l-5.41 3.11-6.6 3.72-1.86-1.02zM23 25.31v5.38l4.98 2.72L33 30.69V25.3l-4.98-2.72L23 25.31z" fill="#fff"/></svg>