<!-- by TradingView --><svg width="56" height="56" viewBox="0 0 56 56" xmlns="http://www.w3.org/2000/svg"><path fill="url(#ai5evaimt)" d="M0 0h56v56H0z"/><path d="M35.5 30.55c-.34.3-.76.45-1.24.45h-3.52a1.8 1.8 0 0 1-1.23-.45 1.5 1.5 0 0 1-.51-1.17v-.29c0-.91.86-1.59 1.74-1.59h2.24v1h-2.24c-.3 0-.74.28-.74.6v.28c0 .36.33.62.74.62h3.52c.42 0 .74-.26.74-.62v-2.76c0-.31-.44-.62-.74-.62H29v-1h5.26c.88 0 1.74.7 1.74 1.62v2.76c0 .48-.16.87-.5 1.17Zm7.82-1.17c-.28 1.08-.88 1.62-1.8 1.62h-1.56c-.93 0-1.52-.54-1.8-1.62L37 25h1.24l1.11 4.25c.13.5.4.75.78.75h1.22c.4 0 .67-.25.8-.75l1.1-4.25h1.24l-1.17 4.38Zm6.94-.88H48v-1h2.26c.29 0 .74-.28.74-.58v-.3c0-.36-.33-.62-.74-.62h-3.52c-.41 0-.74.26-.74.63v2.75c0 .31.44.62.74.62H52v1h-5.26c-.9 0-1.74-.7-1.74-1.62v-2.76c0-.48.17-.87.5-1.17.35-.3.76-.45 1.24-.45h3.52c.48 0 .9.16 1.23.44.33.3.51.7.51 1.18v.3c0 .9-.85 1.58-1.74 1.58Zm-37.01 0a.75.75 0 1 0 0-1.5.75.75 0 0 0 0 1.5Zm0-2a.75.75 0 1 0 0-1.5.75.75 0 0 0 0 1.5Zm2.5 3a.75.75 0 1 1 0 1.5.75.75 0 0 1 0-1.5Z" fill="#fff"/><path d="M15.75 28.5a.75.75 0 1 0 0-1.5.75.75 0 0 0 0 1.5Z" fill="#5D87A1"/><path d="m22.5 29.4-.03.1c-.3 1-.87 1.5-1.75 1.5h-.8c-.91 0-1.5-.54-1.78-1.62L17 25h1.22l1.1 4.18c.12.5.39.74.76.74h.47c.39 0 .66-.25.79-.74 0 0 .28-.87 1.15-.88 0 0 .86-.08 1.15.84l.01.04" fill="#fff"/><path d="M23.65 29.18c.12.48.41.74.79.74h.46c.4 0 .66-.25.79-.74L26.78 25H28l-1.15 4.38c-.28 1.08-.87 1.62-1.78 1.62h-.8c-.91 0-1.5-.54-1.78-1.62l1.16-.2Zm-13.13 1.36c-.33.3-.73.46-1.2.46H4v-6h5.33c.87 0 1.67.72 1.67 1.61v2.76c0 .48-.16.87-.48 1.17ZM10 26.62c0-.3-.39-.62-.67-.62H5v4h4.33c.4 0 .67-.26.67-.62v-2.76Z" fill="#fff"/><defs><linearGradient id="ai5evaimt" x1="10.42" y1="9.71" x2="68.15" y2="76.02" gradientUnits="userSpaceOnUse"><stop stop-color="#1A1E21"/><stop offset="1" stop-color="#06060A"/></linearGradient></defs></svg>