<!-- by TradingView --><svg xmlns="http://www.w3.org/2000/svg" width="56" height="56" viewBox="0 0 56 56"><path fill="#F0F3FA" d="M0 0h56v56H0z"/><path fill-rule="evenodd" d="M28 27h-1v4.4a2.49 2.49 0 0 0-2.26-1.4C22.99 30 22 31.57 22 33.5s1 3.5 2.74 3.5c1 0 1.79-.57 2.26-1.44V37h1V27zm-5 5.59c0-.88.76-1.59 1.7-1.59h.3c.94 0 1.7.71 1.7 1.59v1.82c0 .88-.76 1.59-1.7 1.59h-.3c-.94 0-1.7-.71-1.7-1.59V32.6zM12 37h-1v-7h3v1h-2v6zm5.75 0c1 0 1.78-.55 2.25-1.41V37h1v-7h-1v1.36A2.49 2.49 0 0 0 17.75 30C15.99 30 15 31.57 15 33.5s1.01 3.5 2.75 3.5zm-.02-6c-.96 0-1.73.71-1.73 1.59v1.82c0 .88.77 1.59 1.73 1.59h.3c.96 0 1.74-.71 1.74-1.59V32.6c0-.88-.78-1.59-1.73-1.59h-.3zM31 30h-1v7h1v-7zm3 4.66V30h-1v4.81c0 1.21.54 2.16 1.95 2.16 1.12 0 1.82-.8 2.05-1.19V37h1v-7h-1v4.26c0 1.27-1 1.72-1.52 1.74h-.53c-.66 0-.95-.88-.95-1.34zM43.55 32h1.23c-.02-.73-.58-2-2.67-2-2.08 0-2.53 1.43-2.49 2.14.01.58.56 1.76 2.68 1.87.49.05 1.46.32 1.46 1.04 0 .9-1.13 1.04-1.46 1.04h-.1c-.42.01-1.5.04-1.5-1.09h-1.2c-.05.74.38 2 2.61 2 2.8 0 2.89-1.67 2.89-1.95v-.02c0-.33.01-1.68-2.7-2.04-.5-.04-1.48-.31-1.48-1.04 0-.9 1.14-.94 1.48-.94h.07c.37 0 1.18-.02 1.18.99z"/><path d="M29 27.96V12c3.23.15 5.86.94 7.98 2.12L29 27.96z" fill="#1C04A2"/><path d="M29.09 28h15.9c.07-2.02-.5-5.07-2.12-7.97L29.09 28z" fill="#00CBFF"/><path d="M29 28h16-15.91l13.78-7.97a15.17 15.17 0 0 0-5.89-5.91L29 27.96V28z" fill="#0082FF"/></svg>