<!-- by TradingView --><svg width="56" height="56" viewBox="0 0 56 56" xmlns="http://www.w3.org/2000/svg"><path fill="#F0F3FA" d="M0 0h56v56H0z"/><path fill-rule="evenodd" d="M22.65 20c1.12.46 3.35 2.41 3.35 6.5 0 5.1-.65 9.5-5.92 9.5-3.1 0-5.08-1.52-5.08-3.94 0-2.4 1.61-4.12 9.03-6.06.2-.05.35-.23.35-.44.03-.98.04-3.04-1.73-5.56Zm1.76 7c.03 2.67-.77 8-4.27 8A2.93 2.93 0 0 1 17 32.03c0-1.17.8-2.64 2.05-3.22 1-.47 4-1.4 5.36-1.81Z" fill="#00B2F4"/><path fill="#585858" d="M30 20h1v16h-1zM9 20H8v16h1V25.03c.66-2.14 2.43-4.05 7-4.03v-1c-2.27 0-5.57.7-7 2.66V20ZM37 20h-1v16h1V24.44c.85-2 2.43-3.44 5.34-3.44 3.5 0 4.73 3.19 4.75 4.76V36H48V25.76c0-2.16-.84-5.76-5.66-5.76-2.68 0-4.4 1.3-5.34 2.54V20Z"/></svg>