<!-- by TradingView --><svg width="56" height="56" viewBox="0 0 56 56" xmlns="http://www.w3.org/2000/svg"><path fill="#00A599" d="M0 0h56v56H0z"/><path d="m23.52 32.1-2.35 1.33c-.2-.21-.18-.42-.16-.6l.01-.16V18.19a7.34 7.34 0 0 1 7.4-7.19A7.38 7.38 0 0 1 36 18.06a121.4 121.4 0 0 1 0 3.69c-.92-.51-1.78-.95-2.62-1.37-.8-.4-1.56-.79-2.34-1.22-.04-.05-.11-.64-.16-1.02l-.05-.35c-.57-1.36-1.54-1.99-2.74-1.78-1.22.22-2.08 1.2-2.08 2.67a3186.78 3186.78 0 0 0 0 11.06v.94c-.86.47-1.67.94-2.48 1.41Zm14.54 9.75a7.25 7.25 0 0 0 5.84-6 7.1 7.1 0 0 0-3.55-7.29 342.7 342.7 0 0 1-4.98-2.92c-1.94-1.16-3.88-2.31-5.94-3.47a.85.85 0 0 1-.09-.06c-.1-.07-.2-.14-.34-.03v5.57c1.8 1.02 3.47 2.03 5.15 3.05l3.6 2.15a2.17 2.17 0 0 1 1.02 2.66c-.35 1-1.35 1.6-2.5 1.49l-.51-.06-.15-.02-2.5 1.41-2.51 1.42c.42.22.82.46 1.22.68 1.04.6 2.02 1.17 3.18 1.4 1.02.21 2.04.23 3.06.02Zm-3.28-7.84-2.02-1.13-2.9-1.63a8454.7 8454.7 0 0 0-9 5.07c-1.3.73-2.45.6-3.24-.34-.77-.91-.7-2.01.2-3.09.06-.06.09-.14.08-.12v-5.74l-.96.55c-.67.37-1.31.73-1.9 1.15A6.82 6.82 0 0 0 12 34.42c-.12 5.61 5.99 9.14 11.07 6.38 2.64-1.43 5.24-2.91 7.85-4.4l3.63-2.05.03-.02c.11-.06.23-.12.2-.32Z" fill="#fff"/></svg>