<!-- by TradingView --><svg width="56" height="56" viewBox="0 0 56 56" xmlns="http://www.w3.org/2000/svg"><path fill="#F0F3FA" d="M0 0h56v56H0z"/><path fill-rule="evenodd" d="M5 26v4h.7v-1.3h1.43L8.2 30H9v-.2l-.96-1.1h.18c.43 0 .78-.4.78-.84v-1.08a.78.78 0 0 0-.78-.78H5Zm.7.7h2.55V28H5.7v-1.3Zm6.08-.7a.78.78 0 0 0-.78.77v2.46c0 .42.35.77.78.77h2.44c.43 0 .78-.35.78-.77v-2.46a.78.78 0 0 0-.78-.77h-2.44Zm2.52.7h-2.6v2.6h2.6v-2.6Zm13.7.07c0-.42.34-.77.76-.77H32v.7h-3.3v2.6H32v.7h-3.24a.77.77 0 0 1-.76-.77v-2.46ZM16.7 29H16v.18c0 .43.35.82.78.82h2.44c.43 0 .78-.4.78-.82v-.77a.76.76 0 0 0-.78-.76H16.7v-.95h2.6v.3h.7v-.2c0-.42-.35-.8-.78-.8h-2.44c-.43 0-.78.38-.78.8v.76c0 .43.35.79.78.79h2.52v.95h-2.6V29Zm5.3-3v4h4v-.7h-3.3v-.97h2.68v-.65H22.7v-.98H26V26h-4Zm20.3 4v-4H46v.7h-3v1h2.68v.67H43V30h-.7Zm4.7-4v4h.7v-1.65h2.68v-.67H47.7v-.98H51V26h-4Zm-13 0v4h4v-.7h-3.3V26H34Zm6 4v-4h.7v4H40Z" fill="#010101"/></svg>