<!-- by TradingView --><svg xmlns="http://www.w3.org/2000/svg" width="56" height="56" viewBox="0 0 56 56"><path fill="#F0F3FA" d="M0 0h56v56H0z"/><path d="M27.88 29.96s2.56-6.98.08-11.64c0 0 3.28 3.47 1.8 11.56 0 0-1.56.2-1.88.08z" fill="url(#at2a1xnv2)"/><path d="M20.74 14.4c-3.01 3.67-1.2 8.7-1.2 8.7-.82-4.59.1-6.13 1.86-8.2 1.75-2.08 5.1-3.29 8.76-2.25 3.67 1.04 6.25 5.54 5.21 9.7-1.04 4.16-4.94 5.03-4.94 5.03v1.1c6.14-1.98 6.77-6.42 6.53-9.44-.22-2.57-2.05-6.2-5.46-7.45-3.05-1.13-7.75-.86-10.76 2.81zm7.08 14.34l.3-1.1c-5.7-.55-3.64-6.03-3.63-6.03 1.98-4.71 1.52-5.35 1.52-5.35 7.17.34 7.72 7.08 7.72 7.08.25-9.95-10.08-8.98-10.08-8.98 1.21 1.02-1.06 6.24-1.06 6.24s-1.19 2.53-.05 5.23c1.14 2.7 5.28 2.9 5.28 2.9z" fill="url(#bt2a1xnv2)"/><path d="M14.76 38H16l-3.08-8h-1.4l-1.57 4.1a6 6 0 0 0-1.95.56c.6-.11 1.2-.17 1.8-.16L8.44 38h1.2l1.3-3.4c1.14.17 2.21.7 3.09 1.52l.72 1.88zm-2.55-6.74l1.28 3.44a6.08 6.08 0 0 0-2.35-.64l1.07-2.8zM39 36.42V30h-1.3v2.97h-.04c-.3-.44-1-.84-2.07-.84-1.67 0-3.1 1.13-3.09 3.01 0 1.7 1.3 2.86 2.96 2.86 1.12 0 1.95-.48 2.33-1.1h.03l.06 1.1H39v-1.58zm-1.36-2.33c.03.15.05.3.05.44v.98c0 .15-.01.3-.05.44-.23.76-1 1.22-1.84 1.22-1.33 0-2.03-.94-2.03-2.09 0-1.23.77-2.16 2.06-2.16.93 0 1.62.53 1.8 1.17zM17 32v6h1.32v-3.14c0-.17.01-.34.04-.5.08-.4.3-.76.6-1 .32-.26.7-.39 1.1-.37.14 0 .25 0 .37.02h.07v-.97a2.03 2.03 0 0 0-1.5.3c-.35.22-.63.55-.8.94h-.04L18.11 32H17zm7.03 6c.67 0 1.34-.1 1.98-.33l-.21-.79c-.5.19-1.02.28-1.54.28-1.37 0-2.4-.82-2.4-2.15 0-1.2.86-2.18 2.44-2.18.5-.01 1 .08 1.45.27l.29-.8a4.62 4.62 0 0 0-1.74-.3c-2.24 0-3.7 1.28-3.7 3.05 0 1.77 1.35 2.94 3.43 2.94zM32 36.5V38h-1l-.04-.85h-.05c-.37.45-1.12.85-2.1.85-1.4 0-2.1-.82-2.1-1.65 0-1.39 1.47-2.15 4.14-2.14v-.11c0-.48-.16-1.34-1.57-1.33-.62-.01-1.25.13-1.8.42l-.3-.7c.72-.33 1.5-.5 2.29-.49 2.12 0 2.53 1.2 2.53 2.35v2.14zm-1.13-1.56c-1.37-.02-2.92.18-2.92 1.3 0 .68.54.99 1.17.99.91 0 1.5-.48 1.7-.96.03-.1.05-.22.05-.33v-1zm9.6-2.94v6h1.25v-6h-1.25zM48 36.5V38h-1l-.12-.85h-.04c-.37.45-1.13.85-2.1.85-1.41 0-2.11-.82-2.11-1.65 0-1.39 1.48-2.15 4.14-2.14v-.11c0-.48-.15-1.34-1.56-1.33-.63-.01-1.25.14-1.81.42l-.3-.7c.72-.33 1.5-.5 2.29-.49C47.5 32 48 33.2 48 34.35v2.14zm-1.2-1.56c-1.37-.02-2.93.18-2.93 1.3 0 .68.54.99 1.17.99.91 0 1.5-.48 1.7-.96a.9.9 0 0 0 .05-.33v-1zm-5.12-3.77a.75.75 0 1 0-1.24-.84.75.75 0 0 0 1.24.84z"/><defs><linearGradient id="at2a1xnv2" x1="29.01" y1="18.32" x2="29.01" y2="30" gradientUnits="userSpaceOnUse"><stop stop-color="#7D8ED6"/><stop offset="1" stop-color="#39529E"/></linearGradient><linearGradient id="bt2a1xnv2" x1="20.5" y1="13.47" x2="28.08" y2="28.7" gradientUnits="userSpaceOnUse"><stop stop-color="#6EB117"/><stop offset=".38" stop-color="#94DE3C"/><stop offset="1" stop-color="#76C31B"/></linearGradient></defs></svg>