<!-- by TradingView --><svg width="56" height="56" viewBox="0 0 56 56" xmlns="http://www.w3.org/2000/svg"><path fill="#F0F3FA" d="M0 0h56v56H0z"/><path d="M21.3 12H41v25.72A6.26 6.26 0 0 1 34.7 44H15V18.28A6.27 6.27 0 0 1 21.3 12Z" fill="#113675"/><path d="M24.96 24.78c1.57.54 3.04.9 3.04 2.43V29c1.25-.54 2.23-1.58 2.23-3.06 0-2.63-2.05-3.19-3.8-3.76-1.3-.4-2.45-.85-2.45-2.14 0-1.09.84-1.71 1.9-1.71 1.64 0 2.63 1.19 3.61 2.88h.02v-3.1a.05.05 0 0 0-.05-.05l-.03.01a1.5 1.5 0 0 1-.9.37c-.64 0-1.46-.44-2.65-.44-2.43 0-4.08 1.32-4.08 3.38-.01 2.22 1.59 2.9 3.16 3.4ZM22.04 26.15h-.06v3.57a.05.05 0 0 0 .05.05h.03a1.7 1.7 0 0 1 1.03-.4 5.25 5.25 0 0 1 1.18.2l.03-.03v-.47a.06.06 0 0 0-.03-.06c-.98-.54-1.84-.94-2.23-2.86Z" fill="#fff"/><path d="M30.63 32.24v-.11c1.46-.09 2.92-.9 2.92-2.51 0-1.47-.92-2.36-2.7-2.62-.08.43-.2.86-.36 1.27v.01c.24.43.52 1.23.51 1.72 0 1.5-1.07 2-2.5 2H27v-4.2c-.02-.3-.01-.8-.35-.8h-2.28c.4.46.67 1.17.63 1.77V36c0 1-.32 1.64-.63 2.01h5.46c2.9 0 4.17-1.11 4.17-3.03 0-1.93-1.64-2.65-3.37-2.73Zm-1.9 5.31H27v-5.14h1.73c1.72 0 2.69.91 2.69 2.57 0 1.65-.95 2.57-2.69 2.57Z" fill="#E87425"/></svg>