<!-- by TradingView --><svg width="56" height="56" viewBox="0 0 56 56" xmlns="http://www.w3.org/2000/svg"><path fill="#F0F3FA" d="M0 0h56v56H0z"/><path d="M27 42.5c7.86-.1 14.5-6.63 14.5-14.5H43c0 8.6-7.32 16-16 16-8.58 0-16-7.35-16-16 0-8.7 7.22-16 16.36-16a16 16 0 0 1 10.95 4.7l-1.1 1.2a14.48 14.48 0 0 0-9.85-4.4A14.6 14.6 0 0 0 15 19.65c1.9-1.52 4.3-2.65 6.71-2.65 5.73 0 10.69 5.32 10.79 11 .1 5.91-4.95 10.49-10.8 10.5a9.76 9.76 0 0 1-6.42-2.04c3.02 3.84 6.94 6.1 11.72 6.04ZM12.5 28a5 5 0 0 0 5.05 5c1.16 0 2.54-.27 3.45-1l.86 1.08a7.18 7.18 0 0 1-7.5.63c1.73 2.26 4.5 3.29 7.35 3.29 5.02 0 9.3-3.92 9.29-9-.01-5.01-4.35-9.53-9.36-9.5a9.6 9.6 0 0 0-7.29 3.79A6.54 6.54 0 0 1 24 28h-1.38c0-3.26-2.52-5.04-5.12-5-2.57.04-5 1.86-5 5Zm27.18-10.86L40.86 16c2.7 2.98 4.13 7 4.14 11h-1.5c0-3.66-1.34-7.13-3.82-9.86Z" fill="url(#anw4p5m51)"/><defs><linearGradient id="anw4p5m51" x1="10.11" y1="29.03" x2="45.05" y2="29.03" gradientUnits="userSpaceOnUse"><stop stop-color="#F15D63"/><stop offset="1" stop-color="#25328D"/></linearGradient></defs></svg>