<!-- by TradingView --><svg xmlns="http://www.w3.org/2000/svg" width="56" height="56" viewBox="0 0 56 56"><path fill="#3B61AC" d="M0 0h56v56H0z"/><path d="M8.5 29.15c0-.73-.72-.97-1.26-1.16l-.07-.02c-.9-.3-1.98-.86-1.98-2.08C5.19 24.62 6.3 24 7.32 24c1.03 0 2.18.71 2.18 2H8.45c0-.7-.56-1-1.14-1-.68 0-1.13.3-1.13.89 0 .66.78.91 1.27 1.07l.1.04c.95.32 1.95.88 1.95 2.14 0 1.3-1.11 1.86-2.14 1.86C6.22 31 5 30.41 5 29h1c0 .74.51 1 1.36 1 .73 0 1.14-.3 1.14-.85zm3.8-2.28a.9.9 0 0 0-.7.31c-.19.2-.3.45-.35.82h2.04a1.42 1.42 0 0 0-.29-.85.9.9 0 0 0-.7-.28zm.14 4.13a2.2 2.2 0 0 1-1.66-.65c-.42-.43-.63-1-.63-1.73v-.13c0-.48.1-.91.28-1.29a2.03 2.03 0 0 1 1.89-1.2c.64 0 1.14.2 1.5.63.35.42.53 1.01.53 1.78v.43h-3.12c.03.4.16.72.4.95.23.23.52.35.87.35.49 0 .89-.2 1.2-.6l.57.55c-.19.29-.44.51-.76.67-.32.16-.68.24-1.07.24zm35-3.82a.9.9 0 0 1 .72-.31c.3 0 .53.1.7.28.16.18.26.49.28.85H47.1c.05-.37.16-.61.34-.82zm-.8 3.17c.41.43.97.65 1.64.65.4 0 .76-.08 1.08-.24.32-.16.57-.38.76-.67l-.57-.56c-.31.4-.71.6-1.2.6-.35 0-.64-.11-.87-.34a1.45 1.45 0 0 1-.4-.95h3.12v-.43c0-.77-.18-1.36-.53-1.78a1.86 1.86 0 0 0-1.5-.63 2.03 2.03 0 0 0-1.9 1.2c-.18.38-.27.81-.27 1.3v.12c0 .72.21 1.3.63 1.73zm-29.8-.22c.43 0 .97-.22 1.16-.57v-.91h-.7c-.81 0-1.3.29-1.3.8 0 .42.38.68.84.68zm1.29.87c-.05-.1-.09-.33-.13-.54a1.9 1.9 0 0 1-1.36.54c-.83 0-1.64-.54-1.64-1.44 0-1.03.79-1.6 2.21-1.6H18v-.31c0-.5-.4-.83-.97-.83-.4 0-.95.21-.95.66h-.98c0-1 1.14-1.48 1.99-1.48 1 0 1.9.56 1.91 1.62v2.18c0 .43.02.94.14 1.2h-1.01zM34 29.56c-.19.35-.73.57-1.16.57-.46 0-.84-.26-.84-.68 0-.51.49-.8 1.3-.8h.7v.9zm0 .9c.04.2.08.45.13.54h1.01a3.46 3.46 0 0 1-.14-1.2v-2.18c-.02-1.06-.91-1.62-1.91-1.62-.85 0-1.99.48-1.99 1.48h.98c0-.45.56-.66.95-.66.57 0 .97.33.97.83v.32h-.79c-1.42 0-2.21.56-2.21 1.6 0 .89.81 1.43 1.64 1.43.5 0 1.02-.18 1.36-.54zm-8.75-1.77c-.13 1.45-1.1 2.31-2.52 2.31-1.78 0-2.7-1.53-2.73-3.14v-.63c0-1.69 1-3.23 2.78-3.23 1.44 0 2.33.91 2.47 2.34h-1.02c-.11-.98-.57-1.34-1.45-1.34-1.02 0-1.77.72-1.78 2.17v.6c0 1.48.72 2.23 1.73 2.23.89 0 1.4-.44 1.5-1.31h1.02zM28.43 26c-.54 0-1.08.19-1.43.6V24h-1v7h1v-3.52c.21-.4.63-.6 1.06-.6a.9.9 0 0 1 .94.94V31h1v-3.22c-.01-1.2-.54-1.78-1.57-1.78zM37 26l.03.66c.36-.44.85-.66 1.43-.66 1.01 0 1.52.59 1.54 1.76V31h-1v-3.18c0-.62-.33-.92-.94-.92-.43 0-.85.2-1.06.6V31h-1v-5h1zm6.21 4.23c-.85 0-1.2-.87-1.2-1.58 0-1.13.5-1.74 1.21-1.74.44 0 .86.19 1.07.57v2.18a1.2 1.2 0 0 1-1.08.57zM42.94 26C41.58 26 41 27.34 41 28.53c0 1.2.54 2.61 1.93 2.61a1.8 1.8 0 0 0 1.36-.54v.34c0 .77-.55 1.18-1.27 1.18-.5 0-.9-.2-1.24-.6l-.52.66c.4.55 1.16.82 1.82.82 1.26 0 2.2-.82 2.2-2.1V26h-.98l-.05.6c-.32-.4-.75-.6-1.3-.6z" fill="#fff"/></svg>