<!-- by TradingView --><svg width="56" height="56" viewBox="0 0 56 56" xmlns="http://www.w3.org/2000/svg"><path fill="#F0F3FA" d="M0 0h56v56H0z"/><path d="M12 23v7.99L11 31v-8h1ZM14 30l3-.01v1L13 31v-8h1v7ZM24.11 23l-2.96 8H20l-2.96-8h1.1l2.36 7 2.5-7h1.11ZM26 24v2.5h3v1.1h-3V30h3v1h-4v-8h4v1h-3ZM34.93 31 33 28h-1v3h-1v-8h2.25c1.4 0 2.75.5 2.75 2.5 0 1.18-.88 2.29-2.01 2.5L36 31h-1.07ZM32 27h1.26c1.02 0 1.74-.42 1.74-1.5 0-1.04-.48-1.5-1.75-1.5H32v3ZM9 25c-.1-.82-1.27-1-2-1-.7 0-1.57.33-1.57 1.16 0 1.03 1.34 1.16 2.07 1.34 1.12.26 2.5.92 2.5 2.23C10 30.33 8.4 31 7.02 31c-1.43 0-2.93-.68-3.02-2.27h1c.08.9 1.2 1.27 2 1.27.77 0 2-.36 2-1.27 0-.78-1.12-1.04-1.73-1.2-1.25-.33-2.84-.74-2.84-2.37 0-1.5 1.32-2.16 2.64-2.16 1.29 0 2.9.54 2.93 2H9ZM37.61 31c-.46 0-.83-.1-1.13-.3-.28-.21-.45-.5-.48-.85h.53c.02.22.13.4.31.53.2.13.45.2.76.2a1 1 0 0 0 .65-.2.59.59 0 0 0 .25-.47.44.44 0 0 0-.14-.33.9.9 0 0 0-.33-.2c-.13-.05-.32-.1-.54-.16-.3-.08-.54-.15-.73-.23a1.28 1.28 0 0 1-.47-.33.91.91 0 0 1-.2-.6c0-.2.06-.37.18-.53.12-.16.28-.3.5-.39.21-.1.46-.14.73-.14.43 0 .78.1 1.04.32.26.2.4.5.42.87h-.5a.73.73 0 0 0-.29-.55c-.16-.14-.4-.21-.68-.21-.26 0-.47.06-.63.18a.53.53 0 0 0-.25.44c0 .15.05.27.14.37.1.1.22.17.36.23l.57.18c.3.08.52.15.7.22.16.07.3.18.43.31.12.14.19.32.19.55 0 .21-.06.4-.18.56a1.2 1.2 0 0 1-.49.39c-.2.1-.45.14-.72.14ZM40 27.95c.3-.62.94-.95 1.6-.95 1.15 0 1.9.9 1.9 2s-.74 2-1.9 2c-.66 0-1.3-.33-1.6-.95V33h-.5v-6h.5v.95ZM42.99 29c0-.88-.57-1.55-1.49-1.55-.9 0-1.48.69-1.48 1.55 0 .86.58 1.55 1.48 1.55.92 0 1.49-.67 1.49-1.55ZM47 30.1c-.25.54-1.02.9-1.68.9-.75 0-1.32-.48-1.32-1.13 0-.78.68-1.28 1.53-1.28H47c-.02-.79-.57-1.16-1.27-1.16-.6 0-1.03.35-1.13.95h-.5A1.6 1.6 0 0 1 45.75 27c1.07 0 1.75.75 1.75 1.6V31H47v-.9Zm-1.6.47c.51 0 1.13-.23 1.38-.65.14-.2.22-.45.22-.73V29h-1.47c-.66 0-1.02.37-1.02.84 0 .44.35.74.9.74ZM48.27 29c0-1 .66-2 1.92-2 .92 0 1.63.53 1.81 1.32h-.54c-.14-.56-.6-.9-1.27-.9-.99 0-1.4.82-1.4 1.57 0 .76.4 1.58 1.4 1.58.67 0 1.13-.34 1.27-.9H52c-.18.78-.9 1.32-1.81 1.32-1.26 0-1.92-1-1.92-2Z" fill="#0076B6"/></svg>