<!-- by TradingView --><svg width="56" height="56" viewBox="0 0 56 56" xmlns="http://www.w3.org/2000/svg"><path fill="#00461E" d="M0 0h56v56H0z"/><path d="M19.26 31a.35.35 0 0 1-.14-.03.3.3 0 0 1-.1-.09L16 26.7v4.16a.21.21 0 0 1-.06.08.26.26 0 0 1-.09.05.28.28 0 0 1-.1.01h-.49l-.1-.01a.26.26 0 0 1-.09-.05.21.21 0 0 1-.05-.08.18.18 0 0 1-.02-.08v-5.56c0-.03 0-.06.02-.08a.21.21 0 0 1 .05-.08.26.26 0 0 1 .09-.05.29.29 0 0 1 .1-.01h.48c.05 0 .1.01.14.03a.3.3 0 0 1 .11.09L19 29.3v-4.16a.2.2 0 0 1 .06-.08.25.25 0 0 1 .09-.05.29.29 0 0 1 .1-.01h.5c.03 0 .06 0 .1.02l.08.04.05.08c.02.02.02.05.02.08v5.56c0 .03 0 .06-.02.08a.21.21 0 0 1-.05.08.26.26 0 0 1-.09.05.28.28 0 0 1-.1.01h-.48ZM6.35 31c-.71 0-1.28-.16-1.7-.45a1.5 1.5 0 0 1-.49-.52c-.11-.21-.17-.44-.16-.67v-.14c0-.13.12-.22.25-.22h.5c.13 0 .26.09.25.22v.1c-.01.73.86.9 1.4.9.42 0 .74-.08.95-.23.1-.07.18-.16.23-.26.06-.1.08-.21.08-.32a.6.6 0 0 0-.14-.4 1.46 1.46 0 0 0-.46-.34 9.4 9.4 0 0 0-.96-.4c-.37-.12-.72-.26-1.06-.42-.26-.12-.48-.3-.66-.5a1.22 1.22 0 0 1-.25-.8c0-.49.2-.87.58-1.15.39-.27.9-.4 1.54-.4.7 0 1.26.15 1.67.45.2.14.36.32.47.53.11.21.17.44.16.67v.15c0 .14-.12.2-.25.2h-.44c-.13 0-.26-.06-.25-.2v-.11a.72.72 0 0 0-.09-.37.82.82 0 0 0-.26-.28c-.24-.18-.6-.27-1.04-.27-.38 0-.68.07-.88.2a.67.67 0 0 0-.22.25.6.6 0 0 0-.06.32c-.01.14.04.27.13.39.12.12.26.22.42.29.2.09.52.21.95.36.37.13.73.28 1.07.45.27.14.51.32.7.55.19.23.29.52.28.8 0 .23-.04.45-.15.66-.1.2-.27.38-.47.52-.4.29-.95.44-1.64.44Zm20.35-.44c.46.3 1.08.44 1.85.44.75 0 1.35-.14 1.78-.43.22-.14.4-.32.5-.52.12-.2.18-.43.17-.66 0-.29-.1-.57-.3-.81-.2-.22-.46-.4-.75-.55-.38-.17-.77-.32-1.17-.45-.47-.15-.81-.27-1.03-.36a1.36 1.36 0 0 1-.46-.3.53.53 0 0 1-.14-.38.56.56 0 0 1 .06-.32.7.7 0 0 1 .24-.25c.22-.13.54-.2.96-.2.49 0 .86.1 1.13.27.12.07.22.17.28.29.07.1.1.23.1.36v.14c0 .03 0 .06.02.09a.2.2 0 0 0 .05.07l.1.05a.3.3 0 0 0 .1.01h.48a.3.3 0 0 0 .1-.01.26.26 0 0 0 .1-.05.2.2 0 0 0 .05-.07.17.17 0 0 0 .02-.09v-.17c0-.23-.05-.46-.17-.67-.12-.21-.3-.4-.52-.54a3.24 3.24 0 0 0-1.81-.45 3 3 0 0 0-1.67.4c-.42.28-.64.66-.64 1.15 0 .29.1.56.28.8.19.2.43.38.71.5.38.16.76.3 1.16.43.35.12.7.25 1.04.4.2.08.36.2.5.34.1.11.16.25.15.4a.6.6 0 0 1-.08.32c-.06.1-.14.19-.25.26a1.9 1.9 0 0 1-1.03.23c-.52 0-.92-.09-1.2-.26a.82.82 0 0 1-.3-.28.64.64 0 0 1-.1-.35v-.22c0-.03 0-.06-.02-.09a.2.2 0 0 0-.05-.07.26.26 0 0 0-.1-.05.3.3 0 0 0-.1 0h-.47a.3.3 0 0 0-.1 0 .26.26 0 0 0-.1.05.2.2 0 0 0-.05.07.17.17 0 0 0-.02.09v.25c0 .23.05.46.18.67.12.2.3.38.52.52Zm6.56.44a.29.29 0 0 1-.19-.07.2.2 0 0 1-.07-.15V26.1a.08.08 0 0 0-.03-.06c-.02-.02-.05-.04-.08-.04h-1.63c-.1 0-.2-.03-.24-.13a.2.2 0 0 1-.02-.08v-.35c0-.03 0-.27.02-.3a.22.22 0 0 1 .05-.07.3.3 0 0 1 .19-.07h4.47a.3.3 0 0 1 .1.02c.04 0 .07.02.1.04l.05.08.02.3v.34a.2.2 0 0 1-.08.16.29.29 0 0 1-.18.06H34.1c-.03 0-.06.02-.08.03-.02.02-.02.04-.02.06v4.68c0 .06-.04.12-.08.16a.29.29 0 0 1-.2.07h-.46ZM42 29.09A1.9 1.9 0 0 0 44 31c1.08.02 2.02-.76 2-1.88a.2.2 0 0 0-.13-.2.2.2 0 0 0-.08 0l-.57-.06c-.12 0-.23.13-.22.25 0 .68-.34.89-1 .89-.63 0-1.03-.22-1-.89v-2.23c-.03-.67.37-.88 1-.88.66 0 1 .2 1 .88v.02c0 .12.1.25.22.24l.56-.05a.21.21 0 0 0 .16-.07.23.23 0 0 0 .06-.16c.02-1.11-.93-1.88-2-1.86-1.09-.02-2.02.77-2 1.9v2.19Zm-31.94-2.15c.04.04.1.06.16.06h.56a.21.21 0 0 0 .22-.2v-.72c0-.02 0-.05.02-.06.02-.02.04-.02.06-.02h2.7c.06 0 .11-.03.15-.07.05-.05.07-.1.07-.16v-.55a.22.22 0 0 0-.22-.22h-3.56a.23.23 0 0 0-.22.22v1.57c0 .05.02.1.06.15Zm.16.56h2.56a.2.2 0 0 1 .16.08c.04.06.06.13.06.2v.44c0 .07-.02.14-.06.2a.2.2 0 0 1-.16.08h-2.56a.2.2 0 0 1-.16-.08.33.33 0 0 1-.06-.2v-.44c0-.07.02-.14.06-.2a.2.2 0 0 1 .16-.08Zm0 3.5a.23.23 0 0 1-.22-.22V29.2c0-.12.1-.2.21-.2h.58c.11 0 .21.09.21.2v.72l.03.06c.02.02.04.02.06.02h2.69c.05 0 .11.03.15.07.04.04.07.1.07.16v.55a.22.22 0 0 1-.22.22h-3.56Zm11-4a.21.21 0 0 1-.22-.21v-1.57a.22.22 0 0 1 .22-.22h3.56a.22.22 0 0 1 .22.22v.55c0 .06-.02.11-.07.16a.23.23 0 0 1-.15.07h-2.7c-.02 0-.04 0-.06.02a.09.09 0 0 0-.02.06v.71a.21.21 0 0 1-.22.21h-.56Zm2.56.5h-2.56a.2.2 0 0 0-.16.08.33.33 0 0 0-.06.2v.44c0 .07.02.14.06.2.05.05.1.08.16.08h2.56a.2.2 0 0 0 .16-.08.33.33 0 0 0 .06-.2v-.44a.33.33 0 0 0-.06-.2.2.2 0 0 0-.16-.08Zm-2.71 3.43c.04.04.1.07.15.07h3.56a.22.22 0 0 0 .22-.22v-.55a.22.22 0 0 0-.07-.16.23.23 0 0 0-.15-.07h-2.69c-.02 0-.04 0-.06-.02a.09.09 0 0 1-.03-.06v-.72c0-.11-.1-.2-.2-.2h-.59c-.11 0-.21.08-.21.2v1.58c0 .05.02.11.07.15Zm16-4c.03.05.09.07.15.07h.56a.21.21 0 0 0 .22-.2v-.72c0-.02 0-.05.02-.06.02-.02.04-.02.06-.02h2.7c.06 0 .11-.03.15-.07.05-.05.07-.1.07-.16v-.55a.22.22 0 0 0-.22-.22h-3.56a.23.23 0 0 0-.22.22v1.57c0 .05.02.1.06.15Zm.15.57h2.56a.2.2 0 0 1 .16.08c.04.06.06.13.06.2v.44c0 .07-.02.14-.06.2a.2.2 0 0 1-.16.08h-2.56a.2.2 0 0 1-.16-.08.33.33 0 0 1-.06-.2v-.44c0-.07.02-.14.06-.2a.2.2 0 0 1 .16-.08Zm0 3.5a.23.23 0 0 1-.22-.22V29.2c0-.12.1-.2.21-.2h.58c.11 0 .21.09.21.2v.72l.03.06c.02.02.04.02.06.02h2.69c.05 0 .11.03.15.07.05.04.07.1.07.16v.55a.22.22 0 0 1-.22.22h-3.56Zm9.85-4.06c.05.04.1.06.17.06h.52c.06 0 .12-.02.17-.06a.18.18 0 0 0 .07-.14v-1.6a.2.2 0 0 0-.08-.14.3.3 0 0 0-.18-.06h-.48a.3.3 0 0 0-.18.06.2.2 0 0 0-.08.15v1.6c0 .05.03.1.07.13Zm0 4a.3.3 0 0 0 .19.06h.48a.3.3 0 0 0 .18-.06.2.2 0 0 0 .08-.15v-1.6c0-.05-.03-.1-.07-.13a.27.27 0 0 0-.17-.06h-.52a.27.27 0 0 0-.17.06.18.18 0 0 0-.07.13v1.6c0 .06.03.11.08.15ZM51.74 25h-.47a.3.3 0 0 0-.19.07.2.2 0 0 0-.07.15v2.1c0 .04-.1.18-.13.18h-3.6a.3.3 0 0 0-.19.07.2.2 0 0 0-.08.15v.59c0 .06.03.11.08.15.04.04.1.04.17.04h3.62c.07 0 .13.08.13.13v2.15c0 .06.02.11.07.15a.3.3 0 0 0 .2.07h.46c.03 0 .07 0 .1-.02a.28.28 0 0 0 .09-.04.23.23 0 0 0 .06-.08.19.19 0 0 0 .02-.08v-5.56a.2.2 0 0 0-.08-.15.3.3 0 0 0-.2-.07Z" fill="#fff"/></svg>