<!-- by TradingView --><svg xmlns="http://www.w3.org/2000/svg" width="56" height="56" viewBox="0 0 56 56"><path fill="#F0F3FA" d="M0 0h56v56H0z"/><path d="M19.2 36.33a17.2 17.2 0 0 1-3.44-10.54 17.23 17.23 0 0 1 3.73-10.45l-.24-.32a17.11 17.11 0 0 0-2.8 23.53 15.94 15.94 0 0 0 22.84 2.9l-.23-.31a15.97 15.97 0 0 1-19.86-4.8v-.01zm1.67-11.24c0-6.75 4.62-12.38 10.76-13.76V11c-7.56 0-13.72 6.3-13.72 14.07 0 7.77 6.16 14.06 13.72 14.06v-.33a14 14 0 0 1-10.76-13.73v.02zm7.4-8.34a9.54 9.54 0 0 1 12.65-.98l.08-.08a9.37 9.37 0 0 0-6.88-2.92 9.62 9.62 0 0 0-6.88 2.92 10.24 10.24 0 0 0-2.85 7.06c0 2.62 1.01 5.14 2.85 7.07l.07-.09a10.2 10.2 0 0 1 .96-12.98" fill="#F47B20"/></svg>