<!-- by TradingView --><svg xmlns="http://www.w3.org/2000/svg" width="56" height="56" viewBox="0 0 56 56"><path fill="#F0F3FA" d="M0 0h56v56H0z"/><path d="M32 29.48c2.34-4.32 1.49-7.7-.45-9.74-.1-.1-.22.02-.15.13 1.5 2.33 1.56 4.27 1.23 5.76a15.04 15.04 0 0 1-2.13 4.7c-.66 1.01-1.5 2.16-2.3 3.74a7.64 7.64 0 0 0-.85 3.5c0 .25.26.25.3.01l.12-.57c.13-.67.3-1.3.58-1.92.93-2.03 2.7-4.05 3.66-5.61Z" fill="#00477B"/><path d="m32.53 21.8-3.35-.63.09-.49 3.35.63-.09.49Z" fill="url(#a2hzbufcp)"/><path d="m32.96 23.73-3.58-.17.03-.5 3.58.17-.03.5Z" fill="url(#b2hzbufcp)"/><path d="m33.1 25.77-3.36.05-.01-.5 3.36-.05v.5Z" fill="url(#c2hzbufcp)"/><path d="M32.22 32.92 30 31.5l.27-.42 2.22 1.42-.27.42Z" fill="url(#d2hzbufcp)"/><path d="M28.69 22.29a8.78 8.78 0 0 1 1.05-4.2c.09-.17.29-.07.24.1a12.02 12.02 0 0 0-.02 6.4c.49 1.61 1.53 2.97 2.22 4.5a7.5 7.5 0 0 1-.06 5.83 13.28 13.28 0 0 1-2.61 3.73 7.84 7.84 0 0 1-1.42 1.3c-.4.18-.35-.22 0-.56a16.19 16.19 0 0 0 2.67-3.4 12.05 12.05 0 0 0 1.14-2.6 7.07 7.07 0 0 0-1.08-5.21 10.12 10.12 0 0 1-2.13-5.9Z" fill="#00833C"/><path d="m30.98 36.34-2.5-2.43.35-.36 2.5 2.44-.35.35Z" fill="url(#e2hzbufcp)"/><path d="M14 25h-1v7h4v-1h-3v-2h3v-1h-3v-2h3v-1h-3Z" fill="#00477B"/><path fill-rule="evenodd" d="M23.82 31.49a3.5 3.5 0 1 1 .78-.65l.93.81-.66.76-1.05-.92Zm-.83-.73c-.3.15-.64.24-.99.24-1.27 0-2.3-1.12-2.3-2.5S20.73 26 22 26c1.27 0 2.3 1.12 2.3 2.5 0 .61-.2 1.17-.54 1.6l-.7-.61-.66.75.59.52Z" fill="#00477B"/><path d="M39 24h-1v8h5v-1h-4v-7ZM46 24h-1v8h5v-1h-4v-7ZM8.26 23.6c.7-.07 1.51.07 2.44.48l-.4.91a3.75 3.75 0 0 0-1.92-.39c-.69.08-1.16.51-1.3.95a.92.92 0 0 0 .02.65c.1.22.29.46.65.67.24.14.5.23.8.33l.25.08c.4.14.85.32 1.25.69.7.66.91 1.6.61 2.41-.3.82-1.08 1.44-2.2 1.57a3.87 3.87 0 0 1-2.75-.73l-.02-.02.31-.39.31-.39a1.03 1.03 0 0 0 .14.1 3.02 3.02 0 0 0 1.9.44c.8-.1 1.22-.5 1.37-.92.16-.43.06-.94-.36-1.34a2.32 2.32 0 0 0-.89-.47l-.19-.07c-.31-.1-.7-.23-1.03-.43-.52-.3-.88-.69-1.07-1.14-.19-.45-.19-.92-.05-1.35a2.5 2.5 0 0 1 2.13-1.63Zm-1.95 6.82Z" fill="#00477B"/><defs><linearGradient id="a2hzbufcp" x1="32.5" y1="21.5" x2="29" y2="21" gradientUnits="userSpaceOnUse"><stop stop-color="#00477B"/><stop offset="1" stop-color="#00833C"/></linearGradient><linearGradient id="b2hzbufcp" x1="33" y1="23.49" x2="29" y2="23.49" gradientUnits="userSpaceOnUse"><stop stop-color="#01497A"/><stop offset="1" stop-color="#00833C"/></linearGradient><linearGradient id="c2hzbufcp" x1="33.11" y1="25.58" x2="29.37" y2="25.58" gradientUnits="userSpaceOnUse"><stop stop-color="#01497A"/><stop offset="1" stop-color="#00833C"/></linearGradient><linearGradient id="d2hzbufcp" x1="32.37" y1="32.85" x2="30" y2="31.45" gradientUnits="userSpaceOnUse"><stop stop-color="#00833C"/><stop offset="1" stop-color="#00477B"/></linearGradient><linearGradient id="e2hzbufcp" x1="31.17" y1="36.41" x2="28.5" y2="34.94" gradientUnits="userSpaceOnUse"><stop stop-color="#00833C"/><stop offset="1" stop-color="#00477B"/></linearGradient></defs></svg>