<!-- by TradingView --><svg xmlns="http://www.w3.org/2000/svg" width="56" height="56" viewBox="0 0 56 56"><path fill="#F0F3FA" d="M0 0h56v56H0z"/><path d="M13.65 20.58L26.97 31h16.85v.59A21.86 21.86 0 0 1 42 36h-8.41l5.63 3.56a16.25 16.25 0 0 1-4.21 2.88L25.95 36H14.42c-.8-1.51-2.15-3.25-2.42-5h6.88l-6.85-5.62c.28-1.7.84-3.32 1.62-4.8z" fill="#E78F24"/><path d="M28.65 25l13.73 10.39c.78-1.48 1.34-3.1 1.62-4.81L36.75 25h7.15a16.63 16.63 0 0 0-1.85-5H30.17l-9.12-6.46c-1.56.73-2.99 1.7-4.23 2.87L22 20h-7.89c-.59.48-1.76 3.45-2.07 5.2h.02c.29-1.64.84-3.2 1.6-4.62l5.6 4.42h9.4z" fill="#D35027"/><path d="M43.8 24.42A16.17 16.17 0 0 0 28 12c-3.94 0-7.82 1.46-10.8 4h14.86l11.74 8.42zM38.77 40c-2.86 2.52-6.64 4-10.77 4-7.74 0-14.2-5.35-15.82-12.5l11.4 8.5h15.2z" fill="#FDB813"/></svg>