<!-- by TradingView --><svg xmlns="http://www.w3.org/2000/svg" width="56" height="56" viewBox="0 0 56 56"><path fill="#F0F3FA" d="M0 0h56v56H0z"/><path d="m12.2 24.54-.14.23a.23.23 0 0 0 .06.35c.67.58 1.52.89 2.4.88 1.44 0 2.48-.94 2.48-2.1 0-1.36-1.1-1.97-2.4-2.49-.92-.38-1.4-.77-1.4-1.4 0-.41.31-1 1.25-1 .54.06 1.05.26 1.5.56a.26.26 0 0 0 .4-.12l.13-.2.14-.22a.27.27 0 0 0-.07-.38A3.78 3.78 0 0 0 14.5 18c-1.77 0-2.43 1.19-2.43 2.06 0 1.28.89 1.87 2.02 2.35 1.1.46 1.68.88 1.68 1.55 0 .56-.49 1.03-1.25 1.03-.86 0-1.72-.71-1.79-.77a.25.25 0 0 0-.38.1l-.14.22Zm15.2 1.27a.2.2 0 0 0-.03-.1l-3.41-7.59a.23.23 0 0 0-.2-.12h-.1a.21.21 0 0 0-.2.12l-3.44 7.58a.2.2 0 0 0 .1.28.2.2 0 0 0 .1.02H21a.2.2 0 0 0 .2-.13l2.46-5.57h.06l2.47 5.57a.22.22 0 0 0 .19.13h.8a.2.2 0 0 0 .2-.2Zm1.12-7.52a.2.2 0 0 1 .2-.29h.79a.22.22 0 0 1 .19.12l2.47 5.58h.06l2.47-5.57a.2.2 0 0 1 .19-.13h.8a.2.2 0 0 1 .18.1.2.2 0 0 1 0 .2l-3.44 7.58a.22.22 0 0 1-.19.12h-.1a.23.23 0 0 1-.2-.12l-3.42-7.59Zm9.54-.23a.22.22 0 0 0-.06.16v7.56a.22.22 0 0 0 .22.22h4.56a.22.22 0 0 0 .22-.22v-.57a.22.22 0 0 0-.06-.16.2.2 0 0 0-.16-.05H39v-2.52h3.22a.22.22 0 0 0 .22-.22v-.64a.23.23 0 0 0-.22-.21H39V19h3.78a.22.22 0 0 0 .22-.23v-.56a.22.22 0 0 0-.22-.22h-4.56a.22.22 0 0 0-.16.06ZM8 28.22a.22.22 0 0 1 .22-.22h4.56a.22.22 0 0 1 .22.22v.55a.23.23 0 0 1-.22.23H9v3h3.22c.06 0 .12.01.16.05.04.04.06.1.06.15v.58a.22.22 0 0 1-.22.22H9v2.78c0 .06-.01.11-.05.15a.22.22 0 0 1-.16.07h-.57a.22.22 0 0 1-.22-.22v-7.56ZM34 28.22c0-.06.02-.11.06-.15.04-.04.1-.07.15-.07h2.7a4.18 4.18 0 0 1 2.89 1.17A4 4 0 0 1 41 32a3.92 3.92 0 0 1-1.2 2.83A4.1 4.1 0 0 1 36.9 36h-2.69a.22.22 0 0 1-.15-.07.21.21 0 0 1-.06-.15v-7.56ZM36.74 35c1.6.05 3.32-1.43 3.26-3.01.05-1.58-1.66-3.04-3.26-2.99H35v6h1.74ZM43.02 34.77l.3-.46a.25.25 0 0 1 .28-.13c.03 0 .07.02.1.04.06.06.93.77 1.79.77.77 0 1.51-.47 1.51-1.03 0-.67-.83-1.1-1.94-1.55-1.14-.48-2.06-1.07-2.06-2.35 0-.87.7-2.06 2.48-2.06a3.82 3.82 0 0 1 2.15.73.26.26 0 0 1-.01.3l-.28.42a.26.26 0 0 1-.29.16.27.27 0 0 1-.1-.04c-.46-.3-.97-.5-1.52-.56-.94 0-1.43.59-1.43 1 0 .63.6 1.15 1.54 1.53 1.3.52 2.46 1 2.46 2.36 0 1.16-1.04 2.1-2.5 2.1a3.65 3.65 0 0 1-2.49-.95.23.23 0 0 1 .02-.28Z" fill="#099748"/><path d="M28.01 28A4.6 4.6 0 0 0 25 29.23a.6.6 0 0 0 .34 1.06.6.6 0 0 0 .44-.15c.61-.57 1.4-.9 2.24-.94A2.78 2.78 0 0 1 30.8 32a2.8 2.8 0 0 1-2.79 2.8c-1.76 0-2.86-1.53-4.02-3.15-1.3-1.8-2.63-3.65-5-3.65A3.98 3.98 0 0 0 15 32a4 4 0 0 0 3.99 4A4.61 4.61 0 0 0 22 34.77a.6.6 0 0 0-.35-1.05.6.6 0 0 0-.43.14c-.61.57-1.4.9-2.24.94a2.78 2.78 0 0 1-2.8-2.8 2.8 2.8 0 0 1 2.8-2.8c1.76 0 2.86 1.53 4.02 3.15 1.3 1.8 2.63 3.65 5 3.65A3.98 3.98 0 0 0 32 32a4 4 0 0 0-3.99-4" fill="#2C4184"/></svg>