<!-- by TradingView --><svg width="56" height="56" fill="none" xmlns="http://www.w3.org/2000/svg"><path fill="#F0F3FA" d="M0 0h56v56H0z"/><path fill-rule="evenodd" clip-rule="evenodd" d="M44 28c0 8.837-7.163 16-16 16-5.277 0-9.957-2.554-12.871-6.494 2.044-.554 2.646-1.468 2.916-1.876l.007-.011c.916-1.388.991-3.743.948-4.78-.57-4.611.113-6.668.481-7.405l.078-.16c.385-.796 1.099-2.274 3.253-2.274h9.262c3.6 0 4.537 4.497 4.537 6.292.362 4.948 1.253 7.402 1.652 8.061.259.69 1.113 2.084 2.068 1.529 1.114-.648.465-1.933 0-2.494-.625-.756-1.342-3.246-1.331-4.39-.155-4.663-1.17-7.589-1.839-8.582.322-.42 3.515-.427 5.23-.417A15.936 15.936 0 0144 28zm-27 3.087c.047 3.804-1.829 4.744-2.953 4.749A15.927 15.927 0 0112 28c0-2.7.669-5.243 1.85-7.474l4.766.474c-.42.518-1.124 1.682-1.616 3.236-.492 1.555-.205 5.21 0 6.85zM28 12a15.974 15.974 0 00-12.68 6.24c1.176.492 4.363 1.106 9.781.549.6-.075 2.003-.748 1.899-2.017v-2.494c0-.466.16-1.03 1.015-1.004h.287c.303.022.697.252.697 1.004v3.306c0 .51.564 1.416 2.033 1.416H41.23c-2.88-4.226-7.732-7-13.231-7zm-1 12.135c0 .957-.313 2.86-2.807 5.496-2.708 2.862-2.527 4.724-2.115 6.317.412 1.593 2.307 4.049 6.504 4.049 4.084 0 5.418-2.452 5.418-5.285 0-1.923-2.837-6.004-4.259-4.147-.339.442.15.973.387 1.229.032.035.06.065.08.089.118.141.249.286.384.435.652.722 1.408 1.56 1.408 2.669 0 1.18-.863 3.013-3.418 3.013S24 36.552 24 33.97c0-.895 1.114-2.134 1.669-2.712.694-.722 2.708-3.406 2.753-3.745.239-.47.578-1.645.578-3.378.034-.393-.22-1.134-1.003-1.134-.783 0-.945.517-.997 1.134z" fill="#D1301D"/></svg>