<!-- by TradingView --><svg width="56" height="56" viewBox="0 0 56 56" xmlns="http://www.w3.org/2000/svg"><path fill="#F0F3FA" d="M0 0h56v56H0z"/><path d="M19.87 9c1.87 2.87 5.53 9.7 5.13 18.01-.4 8.32-4.91 14.8-7.12 16.99 5.05-.11 15.15-2.59 15.15-11.63 0-9.03-8.78-19.01-13.16-23.37Zm2.5 3.68c3.46 4.29 10.23 13.37 9.68 19.42-.68 7.56-7.66 9.74-11.83 10.7 1.71-2.28 5.18-8.22 5.4-13.84.28-7.01-.48-10.88-3.25-16.28Z" fill="#359FD5"/><path d="M25.66 40.26c-6.7-1.58-9.23 1.22-9.66 2.82 3.17-2.47 3.92-2.82 14.92 0 8.8 2.25 12.39-3.28 13.08-6.32-4.86 7.65-9.96 5.48-18.34 3.5Z" fill="#436A8C"/></svg>