<!-- by TradingView --><svg width="56" height="56" xmlns="http://www.w3.org/2000/svg"><path fill="#54575A" d="M0 0h56v56H0z"/><path d="M33 35.92V24.467c0-.006 0-.014.002-.02-.01-.383.191-.754.545-.955l6.823-3.87c.274-.156.576-.18.843-.1l.242.137c.336.192.545.546.545.931v7.536c0 .006 0 .013-.002.02a.12.12 0 01.002.023v3.88a1.07 1.07 0 01-.547.933l-6.821 3.87c-.726.412-1.632-.105-1.632-.932z" fill="#F2BA72"/><path d="M42.004 32.08V20.593c0-.386-.216-.743-.569-.934l-13.731-7.513c-.758-.415-1.7.104-1.7.934v11.54c0 .386.218.745.572.936l13.731 7.46c.756.41 1.697-.109 1.697-.936z" fill="#EC8834"/><path d="M22.995 20.08v11.454l-.001.02c.01.384-.192.755-.546.955l-6.822 3.871a1.08 1.08 0 01-.843.1l-.241-.136a1.075 1.075 0 01-.546-.932v-7.536c0-.007 0-.014.002-.02-.002-.008-.002-.016-.002-.024v-3.88a1.07 1.07 0 01.547-.933l6.82-3.87c.727-.413 1.633.105 1.633.932z" fill="#F2BA72"/><path d="M13.998 23.922v11.486c0 .387.216.743.569.935l13.731 7.512c.757.414 1.7-.105 1.7-.935V31.38a1.07 1.07 0 00-.572-.936l-13.732-7.46c-.755-.409-1.696.11-1.696.938z" fill="#EC8834"/></svg>