<!-- by TradingView --><svg xmlns="http://www.w3.org/2000/svg" width="56" height="56" viewBox="0 0 56 56"><path fill="#F0F3FA" d="M0 0h56v56H0z"/><path d="M20.4 12.79L24.8 18l3-7c-2.66.03-5.17.67-7.4 1.79z" fill="#FFDD84"/><path d="M20.6 43.33L24.73 38l3 7a16.92 16.92 0 0 1-7.15-1.67z" fill="#1270A4"/><path d="M35.66 12.82L31.35 18l-3.43-7H28c2.75 0 5.36.66 7.66 1.82z" fill="#FDB513"/><path d="M35.5 43.24L31.3 38l-3.43 7h.08c2.71 0 5.27-.63 7.55-1.76z" fill="#06466C"/><path d="M27.96 11h-.2l-2.97 7h6.56l-3.39-7z" fill="#FDCA4D"/><path d="M12.97 36L18 31.03l-7-2.78c.03 2.8.74 5.44 1.97 7.75z" fill="#27BFCC"/><path d="M12.9 20.24l5.1 4.82-7 3.07v-.08c0-2.82.68-5.47 1.9-7.81z" fill="#9AD9E2"/><path d="M11 28.1v.24l7 2.7v-6l-7 3.06z" fill="#69CBD6"/><path d="M43.01 35.95l-5.01-5 7-2.79a16.92 16.92 0 0 1-1.99 7.8z" fill="#D22135"/><path d="M43.03 20.01L38 24.97l7 3.08v-.09c0-2.87-.71-5.57-1.97-7.95z" fill="#F16A78"/><path d="M45 28.01V28.25l-7 2.7v-6l7 3.06z" fill="#EB4A5C"/><path d="M27.91 45h-.2l-2.97-7h6.56l-3.39 7z" fill="#0F5980"/><path d="M42.6 19.28l-5.12-.84-.93-5.13a17.08 17.08 0 0 1 6.04 5.97z" fill="#F68D20"/><path d="M13.39 19.3l5.1-.84.94-5.13a17.09 17.09 0 0 0-6.04 5.97z" fill="#86CFB1"/><path d="M36.44 13.25L32 18.43h5.67l-1.06-5.09-.17-.1z" fill="#F9A55D"/><path d="M19.54 13.27L24 18.45h-5.68l1.05-5.09.17-.1z" fill="#65C39E"/><path d="M37.65 24l4.93-4.73-4.93-.85V24z" fill="#F47822"/><path d="M18.34 24l-4.95-4.71 4.95-.84V24z" fill="#6AC59C"/><path d="M32 18.43h5.66V24H32v-5.57z" fill="#F6931E"/><path d="M24 18.45h-5.68V24H24v-5.55z" fill="#47BB8A"/><path d="M19.56 42.77a17.08 17.08 0 0 1-6.04-5.97l5.1.84.94 5.13z" fill="#27B1E5"/><path d="M19.67 42.83L24 37.64h-5.55l1.05 5.1.17.09z" fill="#11A1D5"/><path d="M18.47 32l-4.94 4.81 4.94.85V32z" fill="#5FCCF3"/><path d="M24 37.64h-5.55V32H24v5.64z" fill="#22AEE3"/><path d="M42.51 36.8l-5.11.84-.93 5.13a17.09 17.09 0 0 0 6.04-5.97z" fill="#7C1228"/><path d="M36.36 42.83L32 37.64h5.6l-1.07 5.1-.17.09z" fill="#921944"/><path d="M37.57 32l4.93 4.81-4.93.85V32z" fill="#981A40"/><path d="M32 37.64h5.58V32H32v5.64z" fill="#AF2D5D"/></svg>