<!-- by TradingView --><svg width="56" height="56" viewBox="0 0 56 56" xmlns="http://www.w3.org/2000/svg"><path fill="#F0F3FA" d="M0 0h56v56H0z"/><circle cx="28" cy="28" r="17" fill="#FEE101"/><path d="M25.32 11.2a17.22 17.22 0 0 0-13.03 10.27 17.15 17.15 0 0 0 1.9 16.49c1.01 1.4 3.29 3.54 4.7 4.41a17.06 17.06 0 0 0 25.93-11.65c.32-1.94.2-4.95-.26-6.73a16.75 16.75 0 0 0-4.78-8.24 16.93 16.93 0 0 0-14.46-4.54Zm5.51 1.18c.28.09.24.16-.64 1.1-1.27 1.36-4.15 4.1-10.7 10.2-3 2.8-5.82 5.5-6.25 5.98-.7.8-.8.86-.93.64a6.73 6.73 0 0 1-.31-2.29c.03-7.52 5.95-14.52 13.32-15.9 3.05-.32 4.87.07 5.51.27Zm7.35 3.46a16.48 16.48 0 0 1 4.79 6.82c.8 2.12 1.1 5.34.72 7.8-.29 1.92-1.5 5.07-2.34 6.1l-.25.32-2.89-2.95c-4.6-4.7-9.98-10.57-9.98-10.9 0-.06 1.38-1.34 3.08-2.84 1.7-1.5 3.68-3.28 4.4-3.97a6.4 6.4 0 0 1 1.44-1.17c.07.04.53.4 1.03.8Zm-11.55 9.53a.8.8 0 0 1 .33.46c.1.39-.51 2.36-1.26 4.07l-.5 1.18 4.66 4.76c5.12 5.23 6.07 5.71 5.96 5.82-1.56 1.56-5.56 2.34-7.66 2.34-4.25.01-8.2-1.72-11.26-4.72l-1.13-1.1.09-.63c.25-1.84 2.93-5.6 6.94-9.72 2.2-2.25 3.12-2.84 3.83-2.46Z" fill="#231816"/></svg>