<!-- by TradingView --><svg xmlns="http://www.w3.org/2000/svg" width="56" height="56" viewBox="0 0 56 56"><path fill="#F0F3FA" d="M0 0h56v56H0z"/><path d="M12 39.5V16.4L32.3 11 44 16.4v23.1L23.7 45 12 39.5z"/><path d="M23.7 45L12 16.4 32.3 11l6.76 20.46L23.7 45z" fill="url(#ait3bw2f0)"/><path d="M17.5 24h-2v5a3 3 0 0 0 3 3H20a3 3 0 0 0 3-3v-5h-2v4.8c0 .66-.54 1.2-1.2 1.2h-1.1a1.2 1.2 0 0 1-1.2-1.2V24zM32 24H24.5v2H27v6h2v-6h2.38l.62-2z" fill="#fff"/><path fill-rule="evenodd" d="M32 32l2.82-8h3.33L41 32h-2.3l-.46-1.63h-3.42l-.5 1.63H32zm3.43-3.5l.75-2.5h.66l.79 2.5h-2.2z" fill="#fff"/><defs><linearGradient id="ait3bw2f0" x1="12" y1="16.53" x2="33.99" y2="35.06" gradientUnits="userSpaceOnUse"><stop stop-color="#030303"/><stop offset="1" stop-color="#505254"/></linearGradient></defs></svg>