<!-- by TradingView --><svg width="56" height="56" viewBox="0 0 56 56" xmlns="http://www.w3.org/2000/svg"><path fill="#F0F3FA" d="M0 0h56v56H0z"/><path d="M48.26 25.07a3.07 3.07 0 0 0-2.18 2.2c-.1.38-.1 2.14 0 2.53.15.58.55 1.22.96 1.53 1.2.94 2.92.88 3.97-.12l.31-.3V32H52l-.01-2.25c-.02-2.55 0-2.43-.34-3.12a2.2 2.2 0 0 0-.54-.74 2.66 2.66 0 0 0-2.04-.89c-.43 0-.59 0-.81.07Zm1.24.7c.76.2 1.36.75 1.66 1.53.1.27.1.3.1 1.24 0 .9 0 .97-.09 1.22a2.3 2.3 0 0 1-4.34.09c-.1-.26-.1-.3-.12-1.22-.02-.8 0-.99.05-1.18.22-.8.9-1.47 1.68-1.68.3-.07.75-.07 1.06 0Zm-16.94-.71c-.63.13-1.13.4-1.63.87-.32.3-.4.4-.58.77-.35.68-.35.68-.35 3.15V32h.72l.02-2.14c.01-2.33.01-2.35.27-2.82a2.55 2.55 0 0 1 3.82-.75l.2.17.28-.26.28-.25-.18-.15a3.46 3.46 0 0 0-2.85-.74Zm-7.23-.01a3.12 3.12 0 0 0-2.22 2.05c-.1.32-.1.32-.11 1.45 0 1.26.01 1.34.3 1.9.3.58.68.96 1.28 1.25.5.25.74.3 1.42.3.57 0 .61 0 .97-.13.4-.14.86-.4 1.05-.61l.12-.12-.25-.25-.24-.25-.2.18c-.24.22-.59.42-.9.5-.3.08-.87.08-1.17 0a2.34 2.34 0 0 1-1.7-2.13v-.2l2.66.01H29l-.02-1a3.12 3.12 0 0 0-2.15-2.9 3.85 3.85 0 0 0-1.5-.05Zm1.15.72c.33.09.75.31 1 .52.44.4.76 1.15.77 1.7v.28l-2.24.01c-1.41 0-2.27 0-2.3-.03-.04-.04-.03-.53.02-.75.2-.81.9-1.53 1.7-1.73.3-.07.76-.07 1.05 0Zm-8.03-.73a3 3 0 0 0-2.11 1.67c-.31.65-.3.6-.32 3.09L16 32h.71l.01-2.18c.02-2.13.02-2.2.1-2.45.18-.53.53-1 .98-1.28.69-.45 1.5-.48 2.24-.1.38.2.83.65 1 1.02.27.55.27.56.27 2.89V32H22v-2.19c0-2.05 0-2.2-.08-2.5a3.12 3.12 0 0 0-1.76-2.08 3.33 3.33 0 0 0-1.7-.19ZM14 28.5V32h.77v-7H14v3.5Zm-8.14-3.44a2.5 2.5 0 0 0-1.77 1.7c-.06.2-.07.53-.09 2.7V32h.75v-2.46c0-2.7 0-2.66.28-3.07a1.74 1.74 0 0 1 1.75-.7c.5.11.83.46 1.04.88.19.38.2.61.18 3.06V32h.73v-2.41c0-2.04.01-2.44.07-2.64.29-1.06 1.7-1.56 2.65-.98.28.17.48.4.64.71l.13.27.01 2.52.02 2.53H13v-2.5c0-2.72 0-2.7-.26-3.21-.2-.39-.71-.87-1.13-1.06a2.5 2.5 0 0 0-2.14.02c-.2.1-.37.21-.63.46l-.35.34-.11-.13a2.7 2.7 0 0 0-1.43-.88 3.3 3.3 0 0 0-1.1.02Z" fill="#9B9CA9"/><path d="M35.03 23.1a3076.46 3076.46 0 0 0 4.74 8.9 14 14 0 0 0 .34-1.48c.03-.17.05-.64.05-1.11a6.37 6.37 0 0 0-2.5-5.2A8.57 8.57 0 0 0 35.02 23c-.03 0-.03.03 0 .1Zm10.31.11a6.07 6.07 0 0 0-3.78 3.16 7.1 7.1 0 0 0-.3 5.6c.03-.02.58-1.06 1.25-2.3l2.37-4.47c.64-1.21 1.15-2.2 1.12-2.2l-.66.21Z" fill="url(#a0seu1ojb)"/><defs><linearGradient id="a0seu1ojb" x1="40.5" y1="23" x2="40.5" y2="32.64" gradientUnits="userSpaceOnUse"><stop offset=".18" stop-color="#873D97"/><stop offset="1" stop-color="#378FCD"/></linearGradient></defs></svg>