<!-- by TradingView --><svg width="56" height="56" viewBox="0 0 56 56" xmlns="http://www.w3.org/2000/svg"><path fill="#003449" d="M0 0h56v56H0z"/><path d="M22 41h-8.86c-.63 0-1.14-.5-1.14-1.13v-17.6c0-.38.18-.73.5-.94L27.34 11.2a1.16 1.16 0 0 1 1.28-.02L43.5 21.27c.33.21.51.56.51.95v17.65c0 .62-.5 1.13-1.14 1.13H34v-2h7.43c.32 0 .57-.26.57-.57v-15.3c0-.18-.1-.36-.26-.47l-13.4-9.07a.62.62 0 0 0-.65 0l-13.44 9.1a.57.57 0 0 0-.25.47v15.27c0 .32.26.57.57.57H22v2Z" fill="#F0F3FA"/><path d="M16 37V24.5c0-.38.2-.74.53-.94l10.8-7.36a1.23 1.23 0 0 1 1.32-.02l10.8 7.37c.34.21.55.57.55.95V37h-2V25.42c0-.2-.1-.37-.27-.47l-9.37-6.36a.66.66 0 0 0-.36-.09.6.6 0 0 0-.3.1l-9.44 6.33a.56.56 0 0 0-.26.48V37h-2Z" fill="#F0F3FA"/><path d="M22 37h-2V27c0-.4.2-.77.51-1l6.85-4.8a1.1 1.1 0 0 1 1.23-.02l6.85 4.81c.34.21.56.6.56 1.01v10h-2v-9c0-.2-.1-.4-.28-.5l-5.69-4-5.77 3.95a.64.64 0 0 0-.26.5V37Z" fill="#F0F3FA"/></svg>