<!-- by TradingView --><svg xmlns="http://www.w3.org/2000/svg" width="56" height="56" viewBox="0 0 56 56"><path fill="#F0F3FA" d="M0 0h56v56H0z"/><path d="M24.63 16.84l-1.14-1.95L28.71 11l1.86 3.17-5.94 2.67zm-8.87 3.65l2.11.8 2.93-5.78-3.44-1.3-1.6 6.28zm-.2 8.89l-2.2.56L11 23.9l3.57-.92.98 6.4zm26.17 2.1h-2.26l-.67 6.44h3.7l-.77-6.44zm-5.15 8.42l-1.6-1.59-5.05 4.1L32.55 45l4.03-5.1zm-9.78.33l.25 2.24-6.35 1.47-.41-3.65 6.51-.06zm-8.92-1.46l1.2-1.91-5.18-3.94-1.94 3.12 5.92 2.73zM33.26 15.3l-.34 2.23 6.31 1.61.55-3.62-6.52-.22zm5.47 7.85l1.83-1.33L45 26.56l-2.98 2.17-3.3-5.58z" fill="#EB9824"/><path d="M24.74 21l.96 2.04 6.15-2.13-1.57-3.32L24.74 21zm-2.83 7.79l-2.26.19-1.31-6.35 3.67-.31-.1 6.47zm12.7 3.58l-2-1.06-3.65 5.36 3.25 1.73 2.4-6.03zm-8.67 3.52l.37-2.22-6.3-1.69-.6 3.62 6.53.3zm6.23-11.29l1.66-1.53 4.97 4.2-2.7 2.49-3.93-5.16z" fill="#AD1521"/></svg>