<!-- by TradingView --><svg xmlns="http://www.w3.org/2000/svg" width="56" height="56" viewBox="0 0 56 56"><path fill="url(#ajbxia1cg)" d="M0 0h56v56H0z"/><path d="M9.22 30.1c-.64.58-1.47.9-2.32.9C5.15 31 4 29.7 4 28.02V28a3.06 3.06 0 0 1 .83-2.13A2.83 2.83 0 0 1 6.87 25c.79-.04 1.56.25 2.15.79l-.62.77A2.08 2.08 0 0 0 6.84 26C5.81 26 5 26.88 5 27.98V28c0 1.2.86 2.07 2 2.05.48.01.87-.14 1.26-.43v-1.07H7v-.89h2.22v2.43zm3.17.9l2.45-6h.9l2.46 6h-1.04l-.56-1.44-.36-.93-.96-2.38-.96 2.38-.36.93L13.4 31h-1zM26 28.34V25h-1v3.4c0 1.1-.59 1.6-1.5 1.6-.9 0-1.5-.54-1.5-1.64V25h-1v3.4c0 1.72.97 2.6 2.49 2.6C25 31 26 30.1 26 28.34zm4.5-.34c0 1.13.8 2 1.86 2 .68 0 1.12-.23 1.6-.69l.63.66a2.88 2.88 0 0 1-5.1-1.95V28a3.04 3.04 0 0 1 .83-2.13 2.81 2.81 0 0 1 2.05-.87 2.8 2.8 0 0 1 2.17.9l-.62.76a2.12 2.12 0 0 0-1.56-.66c-1.07 0-1.86.85-1.86 1.98V28zM43 31v-6h-1v2.5h-3V25h-1v6h1v-2.53h3V31h1zm4.86-5.78c.36-.15.76-.23 1.15-.22a2.85 2.85 0 0 1 2.12.87 3 3 0 0 1 .87 2.17v.01c-.03.8-.36 1.54-.92 2.1a2.96 2.96 0 0 1-4.15 0c-.56-.54-.9-1.29-.93-2.08v-.02a3.1 3.1 0 0 1 .88-2.18c.28-.28.61-.5.98-.65zM49 30c1.14 0 2-.85 2-2a2 2 0 0 0-2.02-2.04c-1.14 0-1.98.93-1.98 2.08v.02c0 1.14.86 1.94 2 1.94z" fill="#fff"/><defs><linearGradient id="ajbxia1cg" x1="10.42" y1="9.71" x2="68.15" y2="76.02" gradientUnits="userSpaceOnUse"><stop stop-color="#1A1E21"/><stop offset="1" stop-color="#06060A"/></linearGradient></defs></svg>