<!-- by TradingView --><svg xmlns="http://www.w3.org/2000/svg" width="56" height="56" viewBox="0 0 56 56"><path fill="#F0F3FA" d="M0 0h56v56H0z"/><ellipse cx="27.86" cy="28" rx="15.23" ry="15.06" fill="#00A850"/><ellipse cx="27.86" cy="20.84" rx="11.61" ry="7.73" fill="#6BBE4C"/><path fill-rule="evenodd" d="M43.4 25.1c-.95-.24-3.71-.07-7.15 2.51-.52.39-1.01.8-1.49 1.23a45.25 45.25 0 0 1-9.3-2.43 32.96 32.96 0 0 0-7.86-9.84l-.82.78a30.84 30.84 0 0 1 6.81 8.35 86.18 86.18 0 0 1-10.14-4.85L12 22.97a85.27 85.27 0 0 0 13.13 5.84c1.75 4.12 2.72 9 1.76 14.28l.93.3a26.8 26.8 0 0 1 7.04-12.69c4.4.4 6.79-.02 9.14-1.08l-.4-1.98c-1.4.45-4.57 1.3-6.7 1.35 1.85-1.35 4-2.4 6.5-2.9v-1zM33.04 30.5c-.85-.1-1.77-.23-2.76-.38-1.1-.17-2.28-.45-3.5-.8 1.18 2.99 1.64 5.55 1.68 7.11l.14-.21c.53-.82 2.14-3.28 4.44-5.72z" fill="#F0F3FA"/><path fill-rule="evenodd" d="M28 43a15 15 0 1 0 0-30 15 15 0 0 0 0 30zm0 1a16 16 0 1 0 0-32 16 16 0 0 0 0 32z" fill="#63666B"/><path fill-rule="evenodd" d="M15.5 18c-.33-.22-1-.86-1-1.68 0-1.03.92-2.32 2.42-2.32 1.2 0 1.88.76 2.08 1.14-.4.21-1.31.76-1.8 1.18A33.7 33.7 0 0 0 15.5 18zm1.34-1.47c-.34.03-1.07-.02-1.28-.5-.26-.58.29-1.48 1.32-1.5a2.1 2.1 0 0 1 1.62.77 8.8 8.8 0 0 0-1.66 1.23z" fill="#63666B"/></svg>