<!-- by TradingView --><svg width="56" height="56" viewBox="0 0 56 56" xmlns="http://www.w3.org/2000/svg"><path fill="#253551" d="M0 0h56v56H0z"/><path d="M4 21v.17h.25c.28 0 .4.21.41.32L6.8 27.9c.02.06.07.1.13.1h.03c.06 0 .11-.04.13-.09l1.92-4.95 2.04 4.95c.02.06.07.09.13.09h.03c.06 0 .12-.04.14-.1l2.12-6.37c.1-.28.28-.36.35-.36h.36V21h-2.05v.17h.29c.28 0 .32.21.3.32l-1.3 4.61-2.01-5.01a.14.14 0 0 0-.13-.09h-.01a.14.14 0 0 0-.13.1l-1.85 5c-.43-1.41-1.3-4.32-1.36-4.61-.06-.3.1-.34.2-.32h.3V21H4Zm9.15 7v-.2h.35c.12 0 .38-.09.52-.41l2.3-5.31a.14.14 0 0 1 .25 0l2.3 5.3c.08.14.3.42.56.42h.31v.2h-2.1v-.2c.1.01.26-.02.16-.26L17.18 26h-1.92l-.61 1.54c-.03.09 0 .26.34.26h.25v.2h-2.1Zm2.3-2.5h1.53l-.76-1.92-.76 1.92Zm9.6-3.5v.2h-.37c-.1 0-.37.09-.51.41l-2.3 5.31a.14.14 0 0 1-.25 0l-2.3-5.3c-.09-.14-.3-.42-.56-.42h-.32V22h2.52v.2c-.1-.01-.68.02-.58.26l1.6 3.96 1.56-3.96c.03-.09 0-.26-.34-.26h-.25V22h2.1Zm.09 0v.24h.45c.24 0 .42.16.41.23v4.97c0 .29-.32.37-.41.37h-.45V28h3.91l.16-.19.1-1.04h-.17c0 .5-.36.71-.53.76h-1.04c-.49 0-.57-.27-.57-.4V25h1.21c.38 0 .48.23.49.32v.39h.18l.1-1.37-.1-.02a.45.45 0 0 1-.31.26H27v-2.1h1.3c.52 0 .6.48.58.72h.1l.14-1.27-.38.07h-3.6Zm16.14.22V22h3.6l.37-.1-.13 1.28h-.1c.02-.24-.06-.73-.59-.73H43v2.12h1.7a.45.45 0 0 0 .31-.26l.11.02-.1 1.37h-.19v-.39c0-.1-.1-.31-.48-.31H43v2.13c0 .13.21.4.7.4h1.04a.76.76 0 0 0 .53-.77h.17l-.1 1.05-.15.19h-3.91v-.19h.44c.1 0 .28-.08.28-.38v-4.98c0-.08-.04-.23-.28-.23h-.44Zm-11.12 0v-.24h2.8c.59.01 1.74.32 1.74 1.53 0 .74-.73 1.42-1.1 1.66l1.61 1.95.1.14c.16.23.36.52.8.52V28h-.9c-.23-.07-.78-.3-1.07-.65-.29-.34-1-1.36-1.32-1.83H32v1.93c0 .11.01.33.35.33h.47v.2h-2.66v-.2h.47c.1 0 .37-.06.37-.33v-4.91c.02-.1-.08-.32-.37-.32h-.47Zm1.84.28v2.44c.08.04.33.13.7.13.46 0 1.01-.36 1.01-1.33 0-.97-.72-1.32-1.2-1.32-.37 0-.5.06-.51.08Zm4.25-.32V22h2.58v.18h-.32c-.24 0-.51.2-.51.43v4.4c0 .16.21.48.7.48h1c.24-.03.72-.23.72-.8h.16l-.1 1.05c-.02.09-.12.26-.29.26h-3.94v-.2h.39c.1.02.36-.06.36-.5v-4.85c0-.1-.16-.27-.75-.27Zm9.21-.18v.17c.47 0 .82.41.93.62.38.61 1.16 1.88 1.33 2.1.17.22.26.62.28.8v1.72c0 .28-.2.36-.29.37h-.35V28h2.37v-.22h-.28c-.26 0-.44-.25-.45-.37V25.7c0-.15.07-.32.12-.43.02-.04.04-.07.04-.1l1.57-2.56c.24-.38 1.06-.45 1.27-.43V22h-2.27v.17c.33.03.34.26.3.38l-1.28 2.34c-.46-.78-1.39-2.37-1.44-2.51-.05-.14.17-.2.29-.2V22h-2.14ZM10 30.87v-.42A5 5 0 0 0 8 30c-1.08 0-3 .63-3 2.5C5 34.34 6.86 35 8 35c.92 0 1.72-.3 2-.44v-.43c-.31.16-1.15.49-2 .49-1.05 0-2.48-.75-2.48-2.13s1.38-2.16 2.49-2.16c.88 0 1.7.36 1.99.54Zm5.6-.87-2.45 5h.5l.8-1.7h2.5l.82 1.7h.5l-2.46-5h-.2Zm1.2 3h-2.2l1.09-2.3L16.8 33Zm23.37 2 2.45-5h.2l2.47 5h-.5l-.83-1.7h-2.5l-.8 1.7h-.5Zm1.44-2h2.2l-1.1-2.3-1.1 2.3ZM22 30v5h.5v-2.33h1.31c.48 0 1.42-.3 1.42-1.34 0-1.05-.98-1.32-1.47-1.33H22Zm.5 2.32v-1.98h1.2c.34 0 1.03.19 1.03.96s-.69 1-1.03 1.02h-1.2Zm6.5-2.28h.5v4.88H29v-4.88Zm4.5.26V30h4.82v.3H36V35h-.5v-4.7h-2Zm16-.26H49V35h3v-.3h-2.5v-4.66Z" fill="#fff"/></svg>