<!-- by TradingView --><svg xmlns="http://www.w3.org/2000/svg" width="56" height="56" viewBox="0 0 56 56"><path fill="url(#axorhly5s)" d="M0 0h56v56H0z"/><path d="M27.94 11L40 17v7.2l-5.2 2.8L40 29.58v7.2L27.95 43 16 36.8v-7.35L20.51 27 16 24.55V17.2L27.94 11zm-6.5 16.5l-4.06 2.21 10.57 6.05 4.24-2.41-10.75-5.84zm11.9 6.22l-4.82 2.8v5.24L39 36.26v-5.65l-5.66 3.1zm5.23-3.85l-4.96-2.47L17 18.22v5.82l16.1 8.8 5.47-2.97zm-21.16-12.4l5 2.75 5.07-2.75v-5.23L17.4 17.47zm11.11-5.25v5.25L39 23.2v-5.66l-10.48-5.3zM38.6 23.95l-10.64-5.72-4.62 2.5 10.5 5.78 4.76-2.56zM27.48 41.76v-5.24L17 30.48v5.8l10.48 5.48z" fill="#F8F9FD"/><defs><linearGradient id="axorhly5s" x1="10.42" y1="9.71" x2="68.15" y2="76.02" gradientUnits="userSpaceOnUse"><stop stop-color="#1A1E21"/><stop offset="1" stop-color="#06060A"/></linearGradient></defs></svg>