<!-- by TradingView --><svg width="56" height="56" viewBox="0 0 56 56" xmlns="http://www.w3.org/2000/svg"><path fill="#F0F3FA" d="M0 0h56v56H0z"/><path d="M45 27h-4v-8.82c0-.58-.39-1.1-.94-1.27-.56-.18-.85.03-1.19.5l-9.93 14.24 3-13.17a1.34 1.34 0 0 0-2.4-1.05l-9.45 13.84 3.08-12.77a1.34 1.34 0 0 0-2.1-1.4L13.34 23h-1.58A17.02 17.02 0 0 1 45 27Zm0 2a17 17 0 1 1-33.74-4h3.3c.3 0 .57-.04.8-.21l4.35-3.38-3.93 16.34a1.34 1.34 0 0 0 2.4 1.07l9.58-14.03-2.97 12.97a1.34 1.34 0 0 0 2.4 1.07L39 21.4v6.33c0 .74.5 1.26 1.23 1.26H45Z" fill="#1C4F9C"/></svg>