<!-- by TradingView --><svg width="56" height="56" viewBox="0 0 56 56" xmlns="http://www.w3.org/2000/svg"><path fill="#F0F3FA" d="M0 0h56v56H0z"/><path fill-rule="evenodd" d="M40.6 34h1.98c.32 0 .96.3.96 1.36 0 1.33-.69 1.64-1.38 1.64h-1.55v-.2h.24c.08 0 .15-.07.15-.16v-2.28c0-.1-.07-.17-.15-.17h-.24V34Zm.9 2.58v-2.16c0-.16.11-.28.25-.28h.22c.32 0 1.03.27 1.03 1.25 0 1.22-.79 1.47-1.06 1.47h-.2c-.13 0-.24-.12-.24-.28Z" fill="#231F20"/><path d="M28.22 31c-5.7 0-17.85.35-23.22.53 5.21.15 17.15.47 23.22.47 6.08 0 17.72-.32 22.78-.47-5.22-.18-17.08-.53-22.78-.53Z" fill="#231F20"/><path fill-rule="evenodd" d="M35.5 34h1.96c.18.02.54.16.54.6 0 .56-.5.85-.7.93.24.47.9 1.28 1.23 1.3V37h-.64a.41.41 0 0 1-.35-.2l-.73-1.15a.17.17 0 0 0-.14-.08c-.1 0-.17.08-.17.18v.92c0 .1.07.16.16.16H37V37h-1.5v-.17h.34c.09 0 .16-.07.16-.16V34.3a.1.1 0 0 0-.1-.1h-.4V34Zm1.16.17h.3c.14.01.5.15.5.57 0 .39-.42.72-.8.72-.09 0-.16-.08-.16-.17v-.96c0-.1.07-.16.16-.16Z" fill="#231F20"/><path d="M16 20v.17h-.39c-.06 0-.11.07-.11.16v2.34c0 .09.05.16.11.16H16V23h-1.5v-.17h.39c.06 0 .11-.07.11-.16v-2.34c0-.09-.05-.16-.11-.16h-.39V20H16Zm-1 14v.17h-.39c-.06 0-.11.07-.11.16v2.34c0 .09.05.16.11.16H15V37h-1.5v-.17h.39c.06 0 .11-.07.11-.16v-2.34c0-.09-.05-.16-.11-.16h-.39V34H15Zm4-14h-1.5v.17h.3c.11 0 .2.07.2.16v2.34c0 .09-.09.16-.2.16h-.3V23h2.32l.18-1h-.22l-.27.61a.39.39 0 0 1-.36.22h-.46c-.1 0-.19-.07-.19-.16v-2.34c0-.09.09-.16.2-.16h.3V20Zm8 6h-1.5v.17h.3c.11 0 .2.07.2.16v2.34c0 .09-.09.16-.2.16h-.3V29h2.32l.18-1h-.22l-.27.61a.39.39 0 0 1-.36.22h-.46c-.1 0-.19-.07-.19-.16v-2.34c0-.09.09-.16.2-.16h.3V26Zm-4-6h-1.5v.17h.3c.11 0 .2.07.2.16v2.34c0 .09-.09.16-.2.16h-.3V23h2.32l.18-1h-.22l-.27.61a.39.39 0 0 1-.36.22h-.46c-.1 0-.19-.07-.19-.16v-2.34c0-.09.09-.16.2-.16h.3V20Zm8 6h-1.5v.17h.3c.11 0 .2.07.2.16v2.34c0 .09-.09.16-.2.16h-.3V29h2.32l.18-1h-.22l-.27.61a.39.39 0 0 1-.36.22h-.46c-.1 0-.19-.07-.19-.16v-2.34c0-.09.09-.16.2-.16h.3V26Zm8.92-3h-1.34v-.17h.25c.1 0 .17-.07.17-.16v-2.34c0-.09-.08-.16-.17-.16h-.15a.34.34 0 0 0-.31.22l-.17.39H38l.09-.78h2.32l.09.78h-.2l-.17-.4a.28.28 0 0 0-.28-.21h-.18c-.1 0-.17.07-.17.16v2.34c0 .09.08.16.17.16h.25V23Zm4 0h-1.34v-.17h.25c.1 0 .17-.07.17-.16v-2.34c0-.09-.08-.16-.17-.16h-.15a.34.34 0 0 0-.31.22l-.17.39H42l.09-.78h2.32l.09.78h-.2l-.17-.4a.28.28 0 0 0-.28-.21h-.18c-.1 0-.17.07-.17.16v2.34c0 .09.08.16.17.16h.25V23Zm-18.71-.17c.06 0 .12-.04.14-.1L26.37 20h.5l.82 2.72c.02.07.08.11.14.11H28V23h-1.25v-.17h.32c.03 0 .06-.03.05-.07l-.25-.98h-.96l-.35.98c-.01.03.01.07.05.07H26V23h-1v-.17h.21Zm.77-1.22h.84l-.36-1.4-.48 1.4Zm-4.77 7.22c.06 0 .12-.04.14-.1L22.37 26h.5l.82 2.72c.02.07.08.11.14.11H24V29h-1.25v-.17h.32c.03 0 .06-.03.05-.07l-.25-.98h-.96l-.35.98c-.01.03.01.07.05.07H22V29h-1v-.17h.21Zm.77-1.22h.84l-.36-1.4-.48 1.4Zm9.23 9.22c.06 0 .12-.04.14-.1L32.37 34h.5l.82 2.72c.02.07.08.11.14.11H34V37h-1.25v-.17h.32c.03 0 .06-.03.05-.07l-.25-.98h-.95l-.36.98c-.01.03.01.07.05.07H32V37h-1v-.17h.21Zm.77-1.22h.84l-.36-1.4-.48 1.4ZM17.95 34H17v.14h.07c.2 0 .36.2.36.42l-.05 2.05c0 .12-.1.22-.2.22H17V37h1v-.17h-.25c-.11 0-.2-.1-.2-.22l.05-2.22L19.32 37h.36v-2.61c0-.12.08-.22.2-.22H20V34h-1v.17h.27c.12 0 .2.1.2.22v1.91L17.96 34ZM39 26h-1.16v.11c.17 0 .33.1.4.25l.76 1.57v.7c0 .13-.1.23-.22.23h-.28V29H40v-.14h-.28a.22.22 0 0 1-.22-.22v-.85l.86-1.54c.06-.12.19-.12.35-.12V26h-.99v.11h.23c.09 0 .14.09.1.16l-.73 1.38-.62-1.38a.11.11 0 0 1 .1-.16h.2V26Zm-11 8h-1.16v.11c.17 0 .33.1.4.25l.76 1.57v.7c0 .13-.1.23-.22.23h-.28V37H29v-.14h-.28a.22.22 0 0 1-.22-.22v-.85l.86-1.54c.06-.12.19-.12.35-.12V34h-.99v.11h.23c.09 0 .14.09.1.16l-.73 1.38-.62-1.38a.11.11 0 0 1 .1-.16h.2V34Zm1.77-14H29v.11h.2c.16 0 .27.14.27.3l-.11 2.29c0 .09-.07.16-.16.16H29V23h1v-.14h-.23c-.09 0-.16-.08-.16-.17V20.7l1.04 2.3h.2L32 20.34v2.35c0 .1-.07.17-.16.17h-.34V23H33v-.14h-.34c-.09 0-.16-.08-.16-.17v-2.4c0-.1.07-.18.16-.18H33V20h-1.08l-1.06 2.41-1.1-2.41ZM24.8 34h-2.3v.17h.37c.07 0 .13.07.13.16v2.34c0 .09-.06.16-.13.16h-.37V37h2.38l.12-1h-.15l-.18.61c-.04.14-.13.22-.24.22h-.8c-.07 0-.13-.07-.13-.16V35.5h.72c.11 0 .21.12.21.28v.16h.13V34.9h-.13v.1c0 .15-.1.28-.21.28h-.72v-.95c0-.09.06-.16.13-.16h.77c.07 0 .13.05.16.14l.13.44h.1V34Zm11-8h-2.3v.17h.37c.07 0 .13.07.13.16v2.34c0 .09-.06.16-.13.16h-.37V29h2.38l.12-1h-.15l-.18.61c-.04.14-.13.22-.24.22h-.8c-.07 0-.13-.07-.13-.16V27.5h.72c.11 0 .21.12.21.28v.16h.13V26.9h-.13v.1c0 .15-.1.28-.21.28h-.72v-.95c0-.09.06-.16.13-.16h.77c.07 0 .13.05.16.14l.13.44h.1V26Zm12-6h-2.3v.17h.37c.07 0 .13.07.13.16v2.34c0 .09-.06.16-.13.16h-.37V23h2.38l.12-1h-.15l-.18.61c-.04.14-.13.22-.24.22h-.8c-.07 0-.13-.07-.13-.16V21.5h.72c.11 0 .21.12.21.28v.16h.13V20.9h-.13v.1c0 .15-.1.28-.21.28h-.72v-.95c0-.09.06-.16.13-.16h.77c.07 0 .13.05.16.14l.13.44h.1V20Zm-11 0h-2.3v.17h.37c.07 0 .13.07.13.16v2.34c0 .09-.06.16-.13.16h-.37V23h2.38l.12-1h-.15l-.18.61c-.04.14-.13.22-.24.22h-.8c-.07 0-.13-.07-.13-.16V21.5h.72c.11 0 .21.12.21.28v.16h.13V20.9h-.13v.1c0 .15-.1.28-.21.28h-.72v-.95c0-.09.06-.16.13-.16h.77c.07 0 .13.05.16.14l.13.44h.1V20ZM21 25.17V25h-1.56v.17h.3c.18 0 .3.17.23.32l-1.42 2.93-1.14-2.94c-.05-.15.07-.3.23-.3H18V25h-2v.17h.16c.18 0 .34.11.4.27L17.9 29h.77l1.87-3.6a.43.43 0 0 1 .4-.23H21Z" fill="#231F20"/><path fill-rule="evenodd" d="M13 19v.17h-.07a.43.43 0 0 0-.39.23l-.66 1.28.67 1.74 1.42-2.93c.07-.15-.05-.32-.23-.32h-.3V19H15v.17h-.07a.43.43 0 0 0-.39.23L12.67 23h-.77l-.52-1.37-.71 1.37H9.9l-1.34-3.56a.43.43 0 0 0-.4-.27H8V19h5Zm-1.34 1.13.3-.64c.08-.15-.04-.32-.22-.32h-.1c-.16 0-.28.16-.23.3l.25.66Zm-.47.98-.64 1.3-1.14-2.93c-.05-.15.07-.3.23-.3h.52c.18 0 .34.1.4.26l.63 1.67Z" fill="#231F20"/><path d="M12 34.13V34h-1.25v.13h.24c.14 0 .24.12.19.24l-1.13 2.21-.88-2.22c-.04-.11.05-.23.18-.23h.3V34H8v.13h.13c.14 0 .27.08.32.2L9.52 37h.62l1.5-2.7c.05-.1.17-.17.3-.17H12Zm35.8-.03v.64h-.14c-.05-.37-.31-.6-.55-.6-.24 0-.52.18-.52.44 0 .77 1.41.58 1.41 1.44 0 .93-.77.98-1.18.98-.33 0-.68-.04-.82-.05l.05-.88h.14c.03.48.3.8.6.8.32 0 .71-.27.71-.61 0-.74-1.4-.63-1.4-1.46 0-.61.48-.8.96-.8.39 0 .66.07.75.1Z" fill="#231F20"/></svg>