<!-- by TradingView --><svg width="56" height="56" fill="none" xmlns="http://www.w3.org/2000/svg"><path fill="#FBC02D" d="M0 0h56v56H0z"/><path fill-rule="evenodd" clip-rule="evenodd" d="M13.898 16a1 1 0 0 1 .963.73l6.04 21.54a1 1 0 0 0 .963.73H35.5a1.5 1.5 0 0 0 0-3H24.138a1 1 0 0 1-.963-.73l-.651-2.325h14.722a1 1 0 0 0 .962-.724l3.426-11.945A1 1 0 0 0 40.673 19h-22.06l-1.477-5.27a1 1 0 0 0-.963-.73H11.5a1.5 1.5 0 0 0 0 3h2.398ZM27 43.51a2.5 2.5 0 1 1-5 0 2.5 2.5 0 0 1 5 0Zm6.5 2.5a2.5 2.5 0 1 0 0-5 2.5 2.5 0 0 0 0 5Z" fill="#fff"/></svg>