<!-- by TradingView --><svg width="56" height="56" fill="none" xmlns="http://www.w3.org/2000/svg"><path fill="#DE5340" d="M0 0h56v56H0z"/><path d="m36.236 21.572 1.176-.932-1.175-1.482-1.176 1.482 1.175.932Zm0 0 1.176-.932.002.003.005.006.018.023.069.088.254.328a78.614 78.614 0 0 1 3.619 5.125c.988 1.532 1.998 3.238 2.765 4.87.745 1.584 1.356 3.29 1.356 4.761 0 5.244-4.096 9.656-9.264 9.656-5.167 0-9.263-4.412-9.263-9.656 0-1.47.611-3.177 1.355-4.76.768-1.633 1.778-3.34 2.766-4.871a78.62 78.62 0 0 1 3.873-5.453l.069-.088.018-.023.005-.006.002-.002 1.175.931Z" fill="#fff" stroke="#DE5340" stroke-width="3"/><path d="M26 35v2a2 2 0 0 1-2 2h-4a2 2 0 0 1-2-2v-2h8ZM26.247 33c0-2.208 1.348-4.146 2.74-5.86a9.254 9.254 0 0 0 2.07-5.855c0-5.082-4.054-9.202-9.055-9.202-5.002 0-9.056 4.12-9.056 9.202 0 2.225.777 4.265 2.07 5.856 1.392 1.713 2.74 3.65 2.74 5.859h8.491Z" fill="#fff"/><path d="M15.965 22.435c.707 0 1.294-.587 1.294-1.294a4.742 4.742 0 0 1 4.744-4.745c.708 0 1.294-.586 1.294-1.294 0-.707-.586-1.293-1.294-1.293-4.037 0-7.332 3.295-7.332 7.332 0 .707.587 1.294 1.294 1.294Z" fill="#DE5340"/></svg>