<!-- by TradingView --><svg xmlns="http://www.w3.org/2000/svg" width="56" height="56" viewBox="0 0 56 56"><path fill="url(#aktetureu)" d="M0 0h56v56H0z"/><path d="M38.75 17.57 29.4 8.23a.75.75 0 0 0-.53-.23.76.76 0 0 0-.42.13.72.72 0 0 0-.27.9l3.45 8.54c.02.06.04.13.04.19a.4.4 0 0 1-.04.17l-3.45 8.58c-.15.33-.04.7.27.9.13.09.28.13.42.13a.7.7 0 0 0 .5-.23l9.36-9.34.2-.21-.18-.2ZM27.76 46.95l-3.45-8.56c-.03-.06-.05-.1-.05-.19a.4.4 0 0 1 .05-.17l3.45-8.56c.17-.42-.04-.73-.28-.9a.76.76 0 0 0-.42-.13.75.75 0 0 0-.52.23l-9.35 9.34-.21.21.2.21 9.36 9.34c.14.15.33.23.52.23a.76.76 0 0 0 .7-1.05Z" fill="#82BC00"/><path d="m16.16 37 2.76-2.75A10.97 10.97 0 0 1 17 28.06a11.08 11.08 0 0 1 12.93-10.9L28.24 13h-.23a15.06 15.06 0 0 0-11.96 24.1l.1-.1ZM39.88 18.9l-.1.1L37 21.75a11 11 0 0 1 2 6.3 11 11 0 0 1-12.95 10.8l1.7 4.15h.26a14.95 14.95 0 0 0 11.87-24.1Z" fill="#fff"/><defs><linearGradient id="aktetureu" x1="10.42" y1="9.71" x2="68.15" y2="76.02" gradientUnits="userSpaceOnUse"><stop stop-color="#1A1E21"/><stop offset="1" stop-color="#06060A"/></linearGradient></defs></svg>