<!-- by TradingView --><svg width="18" height="18" viewBox="0 0 18 18" xmlns="http://www.w3.org/2000/svg"><path fill="#F0F3FA" d="M0 0h18v18H0z"/><path fill-rule="evenodd" d="M6.65 13.41a5 5 0 1 1 4.7 0V9.74a.83.83 0 0 0-.23-.58L9 7 6.88 9.16a.83.83 0 0 0-.23.58v3.67ZM13 9c0 1.01-.38 1.94-1 2.65v-2.5c0-.2-.08-.39-.23-.53L9 6 6.23 8.62a.74.74 0 0 0-.23.54v2.49A4 4 0 1 1 13 9Z" fill="url(#a0rslj5hn)"/><path d="M7 10.33v3.26c.18.08.38.15.57.2V9.1c-.31 0-.57.8-.57 1.24Z" fill="#CFA44A"/><path d="M8 9.22v4.68c.23.05.47.09.71.1V8C8.24 8 8 8.78 8 9.22Z" fill="url(#b0rslj5hn)"/><path d="M9.29 8v6c.24-.01.48-.04.71-.09v-4.7C10 8.79 9.76 8 9.29 8Z" fill="url(#c0rslj5hn)"/><path d="M10.43 9.09v4.7c.2-.05.39-.12.57-.2v-3.26c0-.44-.26-1.24-.57-1.24Z" fill="#CFA44A"/><defs><linearGradient id="a0rslj5hn" x1="9" y1="4" x2="9" y2="13.42" gradientUnits="userSpaceOnUse"><stop offset=".55" stop-color="#DFB75D"/><stop offset=".56" stop-color="#CFA44A"/></linearGradient><linearGradient id="b0rslj5hn" x1="9" y1="4" x2="9" y2="13.42" gradientUnits="userSpaceOnUse"><stop offset=".55" stop-color="#DFB75D"/><stop offset=".56" stop-color="#CFA44A"/></linearGradient><linearGradient id="c0rslj5hn" x1="9" y1="4" x2="9" y2="13.42" gradientUnits="userSpaceOnUse"><stop offset=".55" stop-color="#DFB75D"/><stop offset=".56" stop-color="#CFA44A"/></linearGradient></defs></svg>