<!-- by TradingView --><svg width="18" height="18" viewBox="0 0 18 18" xmlns="http://www.w3.org/2000/svg"><path fill="#F0F3FA" d="M0 0h18v18H0z"/><path d="m3 13 .12-.47c.13 0 .45-.08.63-.44l1.91-6.14c.04-.18 0-.52-.44-.5L5.3 5h1.42l2.23 6.77c.09.26.36.76.74.76l-.16.47H7.4l.16-.47c.24-.03.68-.2.49-.76L7.47 10h-2.5l-.53 1.77c-.08.26-.1.76.4.76L4.7 13H3Zm2.15-3.56h2.14l-1.1-3.39-1.04 3.4ZM10.6 5H8.48l-.13.48c.37 0 .66.44.75.66L11.36 13h.61l2.28-7.06c.09-.42.45-.48.63-.46L15 5h-1.67l-.15.48c.44 0 .48.44.44.66l-1.77 5.5-1.82-5.36c-.19-.62.24-.79.47-.8l.1-.48Z" fill="#B64B1E"/></svg>