<!-- by TradingView --><svg width="18" height="18" viewBox="0 0 18 18" xmlns="http://www.w3.org/2000/svg"><path fill="#F0F3FA" d="M0 0h18v18H0z"/><path d="M9.34 8.51a1.36 1.36 0 0 1-.86-.65.08.08 0 0 1 .07-.11h.37a2.23 2.23 0 0 1-.88-1.79A2.17 2.17 0 0 1 9.42 4 3.28 3.28 0 0 0 6.4 6.78h-.23a3.17 3.17 0 0 0-1.43 5.98 2.07 2.07 0 0 1 2.12-1.94l1.25.03a1.25 1.25 0 0 0 1.24-1.12l.1-1.06a.15.15 0 0 0-.1-.16Zm3.56-1.5a3.27 3.27 0 0 0-1.67-2.6 1.97 1.97 0 0 0-2.52.73c-.15.25-.23.53-.25.82 0 .3.08.6.22.86v-.06a1.41 1.41 0 0 1 1.42-1.42h.17l-.17.43a1 1 0 0 0-.74 1.68 1 1 0 0 0 .7.3h1.25a.2.2 0 0 1 .13.33l-.45.4a.68.68 0 0 0-.21.65c.1.43.23 1.11.29 1.43.14.75-.02 1.52-.43 2.16a3.09 3.09 0 0 0 3.33-5.1c-.3-.27-.67-.49-1.07-.62Z" fill="url(#ayn3eeior)"/><defs><linearGradient id="ayn3eeior" x1="3" y1="9.22" x2="15" y2="9.4" gradientUnits="userSpaceOnUse"><stop stop-color="#3CD2AC"/><stop offset="1" stop-color="#50EA85"/></linearGradient></defs></svg>