<!-- by TradingView --><svg width="18" height="18" xmlns="http://www.w3.org/2000/svg"><path fill="#F0F3FA" d="M0 0h18v18H0z"/><path d="M5.275 12.274c-1.382-1.41-1.367-3.423-1.193-4.25 1.16 2.142 2.489 2.6 3.989 2.85 1.2.2 2.114-.502 2.429-.864.174 1.953-3.498 4.025-5.225 2.264z" fill="url(#paint0_linear)"/><path d="M13.005 11.877L10.501 10c-.019.289-.115.93-.588 1.435-1.234 1.32-3.134 1.077-4.745.703.436.6 1.895 1.9 3.929 1.861 2.034-.04 3.453-1.431 3.908-2.122z" fill="url(#paint1_linear)"/><path d="M8.098 10.644c-.864-.4-2.203-1.65-1.27-3.799 1.208-2.78 4.08-2.34 6.176-.845l-2.472 1.87c-.304-.401-1.181-1.083-2.256-.602-1.075.481-1.168 1.594-1.08 2.09.068.324.342 1.012.902 1.286z" fill="url(#paint2_linear)"/><path d="M10.028 4.07c1.374.202 2.55 1.373 2.971 1.934-1.106-.808-2.51-1.165-3.099-1.182-.798-.023-2.56.428-3.22 2.415-.658 1.987.735 3.126 1.515 3.448-2.86-.85-3.434-3.243-3.363-4.334.805-1.225 1.92-1.867 2.376-2.036.367-.166 1.445-.447 2.82-.245z" fill="#009EDF"/><defs><linearGradient id="paint0_linear" x1="4.172" y1="8.164" x2="11.902" y2="9.007" gradientUnits="userSpaceOnUse"><stop offset=".223" stop-color="#00466F"/><stop offset="1" stop-color="#001A35"/></linearGradient><linearGradient id="paint1_linear" x1="12.251" y1="11.292" x2="5.237" y2="12.217" gradientUnits="userSpaceOnUse"><stop stop-color="#00466E"/><stop offset="1" stop-color="#00476F"/></linearGradient><linearGradient id="paint2_linear" x1="12.814" y1="5.92" x2="7.615" y2="10.311" gradientUnits="userSpaceOnUse"><stop stop-color="#009EDF"/><stop offset="1" stop-color="#0175B0"/></linearGradient></defs></svg>