<!-- by TradingView --><svg width="18" height="18" viewBox="0 0 18 18" xmlns="http://www.w3.org/2000/svg"><path fill="#F0F3FA" d="M0 0h18v18H0z"/><path d="M12.84 4H5.16A1.17 1.17 0 0 0 4 5.16v7.68A1.17 1.17 0 0 0 5.16 14h7.68A1.17 1.17 0 0 0 14 12.84V5.16A1.17 1.17 0 0 0 12.84 4Z" fill="#023985"/><path d="M6.04 8.13h.76l-.05.32s-.81-.02-.71.25c0 0-.03.34.46.33l-.53 1.04s-.15.54.21.24l.8-1.4.18.12-.7 1.48s-.18.4.18.23l.64-1.04s.23 1.32.88 1.3c0 0 .54-.12.75-.49 0 0-1.15-.34-1.24-1.21l.5-.65s-.04-.43-.24-.28l-.5.48-.27-.72H8.5s.12-.39-.17-.44h-.29s-.05-.63-.28-.6a.69.69 0 0 0-.16.23.87.87 0 0 0-.07.3h-.48s-.1-.66-.38-.62c0 0-.19.48-.1.65l-.53.04v.44Zm-.84 2.38s.63.18.75-1.39c0 0 .1-1.1-.21-1.54 0 0-.28-.13-.22.16 0 0 .45 1.13-.24 1.8 0 0-.57.71-.08.97Zm5.21-2.43c.2-.01.4.02.59.1 0 0 .77-.36 0-.73H9.87s-.7.28-.5.6c0 0 .04.2.5.1l.3-.06v.37c-.12.02-.9.12-.92.28 0 0-.1.54.23.47.24-.06.47-.15.7-.28v.1h-.01s-.56.84-1 .54c0 0-.24.52.34.58 0 0 .45-.21.67-.62V11h.19V9.46l.04.02c.2.08.5.19.59.11 0 0 .19-.3-.22-.42 0 0-.18-.06-.37-.1l-.04-.01v-.22l.04-.02c.16-.05.37-.09.53.02 0 0 .35-.29 0-.38a3.1 3.1 0 0 0-.57-.02v-.36h.04Zm2.38.05h-1.53c-.3.19.08.37.08.37v.8c0 .13-.3.5-.3.5-.25.16 0 .35 0 .35.2 0 .3-.24.3-.24l1.42.07c.28-.2-.08-.39-.08-.39l.01-.94h.19c.31-.26-.09-.52-.09-.52Zm-.43 1.18-.62.09v-.75h.68l-.06.66Z" fill="#F0F3FA"/></svg>