<!-- by TradingView --><svg width="18" height="18" viewBox="0 0 18 18" xmlns="http://www.w3.org/2000/svg"><path fill="#F0F3FA" d="M0 0h18v18H0z"/><path fill-rule="evenodd" d="M13.5 9a1.5 1.5 0 1 0 0-3 1.5 1.5 0 0 0 0 3Zm0-.5a1 1 0 1 0 0-2 1 1 0 0 0 0 2Z" fill="#F9ED32"/><path d="M3 13h.74l1.68-3.33h1.95L7.73 9H5.75l1.68-3.32.94 1.92.36-.74L7.79 5h-.74L3 13Zm3.78 0h-.73l4.05-8h.73l4.04 8h-.79l-3.6-7.32L8.8 9h2.83l.31.67H8.46L6.78 13Z" fill="url(#astrpbuu5)"/><defs><linearGradient id="astrpbuu5" x1="8.94" y1="5" x2="8.94" y2="13" gradientUnits="userSpaceOnUse"><stop stop-color="#8BC642"/><stop offset="1" stop-color="#07AFE7"/></linearGradient></defs></svg>