<!-- by TradingView --><svg width="18" height="18" viewBox="0 0 18 18" xmlns="http://www.w3.org/2000/svg"><path fill="url(#ajzqe2h40)" d="M0 0h18v18H0z"/><path d="m6.69 9.56-1-1.19H8.4v-.82H5.01l-.87-1.02h9.59l-1.02.95H9.7V10h3.24l-1.25 1h-1.32L8.4 12.54V9.56H6.69Z" fill="#fff"/><path d="m14.28 6.3-1.45 1.48H10v2h3.6l-1.8 1.55h-1.33L8 13.3V10H6.55l-1.5-2H8.1v-.22H4.87L3.62 6.3h10.66ZM15 6H3l.32.37 3.13 3.92H7.7V14l2.86-2.37h1.34l1.92-1.74.39-.39h-3.92V8h2.63l1.69-1.61L15 6Z" fill="#ED0335"/><defs><linearGradient id="ajzqe2h40" x1="3.35" y1="3.12" x2="21.9" y2="24.43" gradientUnits="userSpaceOnUse"><stop stop-color="#1A1E21"/><stop offset="1" stop-color="#06060A"/></linearGradient></defs></svg>