<!-- by TradingView --><svg xmlns="http://www.w3.org/2000/svg" width="18" height="18"><path fill="url(#ai1nedoqa)" d="M0 0h18v18H0z"/><path d="M8.16 4.07l-.76 1.8a4.99 4.99 0 00-2.67 5.73 5 5 0 013.43-7.53zm.43-.05L6.16 9.54l.37.44c.23.08.67.17.87.2l.96-2.27c.96-.44 2.34-.18 2.91 0A4.59 4.59 0 008.9 6.66l.63-1.33c1.2-.32 2.43-.1 2.93.06A4.98 4.98 0 008.6 4.02zm4.75 2.49a5.05 5.05 0 01-2.73 5.68l-.73 1.73a5 5 0 003.46-7.41zm-3.88 7.47l2.43-5.46-.37-.41a5.22 5.22 0 00-.9-.2l-.98 2.27c-.91.38-2.3.16-2.88 0 .48.62 1.76 1.1 2.34 1.26l-.57 1.28a6.3 6.3 0 01-2.89-.01 4.98 4.98 0 003.82 1.27z" fill="url(#bi1nedoqa)"/><defs><linearGradient id="ai1nedoqa" x1="3.35" y1="3.12" x2="21.9" y2="24.43" gradientUnits="userSpaceOnUse"><stop stop-color="#1A1E21"/><stop offset="1" stop-color="#06060A"/></linearGradient><linearGradient id="bi1nedoqa" x1="7.67" y1="4.17" x2="10.35" y2="13.77" gradientUnits="userSpaceOnUse"><stop stop-color="#EABB0C"/><stop offset=".51" stop-color="#FEDE07"/><stop offset="1" stop-color="#EABB0C"/></linearGradient></defs></svg>