<!-- by TradingView --><svg width="18" height="18" viewBox="0 0 18 18" xmlns="http://www.w3.org/2000/svg"><path fill="#F0F3FA" d="M0 0h18v18H0z"/><path d="M11.47 9.2H13V7.69L11.46 9.2m.3-1.6c.16-.2.3-.4.43-.61H14v5h-1.03c.03-.2.03-.4.03-.59V10h-2.12l-1 1.25c-.2.23-.37.49-.52.75H8.1l3.65-4.4Z"/><path d="M3.48 11.15c-.31-1.1-.11-3.83 3.15-6 .06-.06 2.75-1.77 5.34-1.9.08-.03.22-.12.25-.25.07.13.14.4-.2.45h-.07c-.6.1-3.17.45-5.2 1.95-2.12 1.56-3.52 3.05-3.27 5.75Zm4.55 1.28a2.36 2.36 0 0 1-1.7-1.87A2.3 2.3 0 0 0 8 12.14c.08.02.11-.06.12-.1l.03.28c0 .08-.08.1-.12.1Zm-3.3-1.47c.11.68.79 2.2 2.69 2.71.06 0 .21-.07.21-.2s-.02-.19-.03-.2c-.01.06-.06.18-.18.16a3.76 3.76 0 0 1-2.7-2.47ZM3 11.45c.16.9 1.16 2.87 3.84 3.55.09 0 .26-.04.26-.21 0-.17-.03-.25-.05-.27-.01.08-.08.24-.25.2A5.25 5.25 0 0 1 3 11.46Zm4.3-5.43c-2.43 1.72-2.54 3.8-2.28 4.63-.24-2.05.95-3.17 2.54-4.4 1.5-1.17 3.25-1.46 3.71-1.54h.07c.26-.05.24-.35.18-.45-.01.1-.12.17-.18.19a9.58 9.58 0 0 0-4.03 1.57Zm-.72 4.19c-.19-.63-.11-2.22 1.75-3.53a5.12 5.12 0 0 1 2.7-1.17c.04-.02.12-.07.13-.15.05.08.07.3-.13.34H11c-.27.05-1.3.23-2.5 1.15-1.2.94-2.1 1.8-1.93 3.36Z" fill="#014459"/></svg>