<!-- by TradingView --><svg width="18" height="18" viewBox="0 0 18 18" xmlns="http://www.w3.org/2000/svg"><path fill="#F0F3FA" d="M0 0h18v18H0z"/><path d="M14.32 6.96a.26.26 0 0 0-.23-.1.27.27 0 0 0-.22.1.4.4 0 0 0-.07.2l-.02.24-.2-.11a.48.48 0 0 0-.27-.08c-.05 0-.1.03-.13.06a.57.57 0 0 0-.14.33l-.31-.04a.9.9 0 0 1 .24-.53c.08-.07.2-.13.32-.14.08 0 .16 0 .25.04a.7.7 0 0 1 .08-.16c.1-.13.25-.23.47-.24.22 0 .37.1.47.23.1.12.14.27.15.37l-.3.04a.45.45 0 0 0-.09-.21Zm-9.6 1.86h.47v.32h-.47c-.09 0-.16.06-.21.14a.68.68 0 0 0-.1.25.57.57 0 0 1-.5.46.47.47 0 0 0-.24.1.26.26 0 0 0-.05.05v1.6H3.3V10.1c0-.06.03-.11.06-.15a.57.57 0 0 1 .11-.12c.1-.07.22-.13.38-.15.2-.03.24-.16.25-.2a1 1 0 0 1 .14-.38.58.58 0 0 1 .46-.28Zm4.31 1.28-.3-.28V9.5l.48.33h.01c.03.03.09.07.14.09.06.02.08.01.08.01.13-.09.28-.1.41-.07.14.03.27.1.38.19.05.04.15.07.27.06l.15-.02.04-.02a.75.75 0 0 1 .21-.17l.2-.1.12.3-.17.09a.48.48 0 0 0-.12.08.38.38 0 0 1-.2.12.88.88 0 0 1-.22.04.7.7 0 0 1-.47-.13.54.54 0 0 0-.25-.12c-.08-.02-.14 0-.18.02-.12.09-.26.06-.35.02a.83.83 0 0 1-.23-.13Zm4.68.65c.78-.21 1.15.27 1.27.56l-.28.14c-.07-.18-.31-.55-.91-.4l-.08-.3Z" fill="#3F75A3"/><path fill-rule="evenodd" d="M11.46 5.89c.43 0 .77-.36.77-.79a.78.78 0 0 0-.77-.79.78.78 0 0 0-.77.8c0 .42.35.78.77.78Zm0 .31c.6 0 1.08-.5 1.08-1.1 0-.6-.48-1.1-1.08-1.1-.6 0-1.08.5-1.08 1.1 0 .6.49 1.1 1.08 1.1Z"/><path d="M6.16 5H8v2l.4.55.6.5v2.64l.84 1.99h.54v-2.2h.31v.27l.31-.34V9h.46V8h1.08l.62 1h.52l.28 2.46.68 1.22H15V13H9.66l-.98-2.23v-2.6l-.23-.1v.36h-.3v-.7L8 7.46v2.32h-.32v-4.5h-.99v2.25h-.68l-.24 3.06-1.08.6-.35 1.8H3v-.32h1.09l.49-2.5.42-.15V6.95l.74-.3L6.16 5Zm-1.39 5.79.7-.4.26-3.18h.65V5.35L6 6.89l-.7.27v3.1l-.46.17-.07.36Zm9.52 1.89-.63-1.11-.25-2.1h-.44l-.07-.14.14.43.48.67-.12 1.43.66.82h.23Zm-.63 0-.58-.72.12-1.44-.44-.61-.54-1.54h-.45V9.4h-.46v1.13l-.62.68v1.46h.52l.45-.9-.16-1.13.47-1.29.29.12-.44 1.2.16 1.16-.43.84h2.11Zm-7.58-2.04v-2.2h.3v2.2h-.3Z"/></svg>