<!-- by TradingView --><svg width="18" height="18" viewBox="0 0 18 18" xmlns="http://www.w3.org/2000/svg"><path fill="#F0F3FA" d="M0 0h18v18H0z"/><path d="M14.02 6.45c-.07.08-.24.33-.31.68l-.93 4.07c-.03.27-.26.8-1.03.8-.76 0-1.36-.4-1.56-.6l1.03-4.82c.08-.2.42-.58 1.16-.58h1.71l-.07.45Zm-10.16 5.1c.07-.08.23-.33.31-.68L5.1 6.8c.02-.27.26-.8 1.03-.8.76 0 1.36.4 1.56.6l-1.03 4.82c-.08.2-.42.58-1.16.58H3.79l.07-.45Z" fill="url(#abe0uz5v1)"/><path d="M13.38 7.2H16c-.09-.4-.4-1.2-.91-1.2H12.5c.4 0 .79.8.88 1.2Zm-8.65 4.2H2c.09.2.4.6.91.6H5.5c-.4 0-.68-.4-.77-.6ZM6.23 6c.16 0 .51.1.65.48.13.37.89 3.4 1.25 4.87.08.21.37.65.93.65h2.53a.87.87 0 0 1-.72-.58c-.17-.45-.85-3.32-1.17-4.7-.06-.24-.3-.72-.87-.72h-2.6Z" fill="#EC1848"/><defs><linearGradient id="abe0uz5v1" x1="8.94" y1="6" x2="8.94" y2="12" gradientUnits="userSpaceOnUse"><stop stop-color="#001B47"/><stop offset=".52" stop-color="#004A79"/><stop offset="1" stop-color="#000D36"/></linearGradient></defs></svg>