<!-- by TradingView --><svg width="18" height="18" viewBox="0 0 18 18" xmlns="http://www.w3.org/2000/svg"><path fill="#F0F3FA" d="M0 0h18v18H0z"/><path d="M6 14.96c1.67.2 5.13-.34 5.66-4.18A4.79 4.79 0 0 0 6 14.96Z" fill="#BEDEA9"/><path d="M7.2 3c-.63 1.98-.62 6.29 4.46 7.68C13.16 5.82 9.31 3.54 7.2 3Z" fill="#9777B5"/><path d="M10.58 4.98a4.2 4.2 0 0 0-1.02 2.5c0 1.11.47 2.11.92 2.79.36.16.75.3 1.18.41.8-2.58.08-4.44-1.08-5.7Z" fill="#393473"/><path d="M7.25 12.23c.4.26.97.52 1.62.52.91 0 1.85-.32 2.55-.9.1-.33.19-.68.24-1.06-2.13-.25-3.53.47-4.4 1.44Z" fill="#66AE45"/></svg>