<!-- by TradingView --><svg width="18" height="18" viewBox="0 0 18 18" xmlns="http://www.w3.org/2000/svg"><path fill="url(#aczfhijaf)" d="M0 0h18v18H0z"/><path d="M7.5 9.5a.5.5 0 1 0 0-1 .5.5 0 0 0 0 1Zm0-1.5a.5.5 0 1 0 0-1 .5.5 0 0 0 0 1Zm2 2a.5.5 0 1 1 0 1 .5.5 0 0 1 0-1Z" fill="#fff"/><path d="M9.5 9.5a.5.5 0 1 0 0-1 .5.5 0 0 0 0 1Z" fill="#5D87A1"/><path d="m13 9.92-.02.07c-.16.67-.47 1.01-.95 1.01h-.44c-.5 0-.81-.37-.97-1.08L10 7h.67l.6 2.78c.06.33.2.5.41.5h.26c.2 0 .36-.17.43-.5 0 0 .15-.58.63-.58 0 0 .46-.06.62.56v.02" fill="#fff"/><path d="M13.63 9.78c.06.32.22.5.43.5h.25c.21 0 .36-.17.43-.5l.6-2.78H16l-.63 2.92c-.15.71-.47 1.08-.97 1.08h-.43c-.5 0-.82-.37-.98-1.09l.64-.13Zm-7.9.92c-.2.2-.42.3-.69.3H2V7h3.04c.5 0 .96.48.96 1.08v1.84c0 .31-.09.58-.27.78Zm-.3-2.62c0-.2-.22-.43-.39-.43H2.57v2.67h2.48c.22 0 .38-.16.38-.4V8.08Z" fill="#fff"/><defs><linearGradient id="aczfhijaf" x1="3.35" y1="3.12" x2="21.9" y2="24.43" gradientUnits="userSpaceOnUse"><stop stop-color="#1A1E21"/><stop offset="1" stop-color="#06060A"/></linearGradient></defs></svg>