<!-- by TradingView --><svg width="18" height="18" viewBox="0 0 18 18" xmlns="http://www.w3.org/2000/svg"><path fill="#F0F3FA" d="M0 0h18v18H0z"/><path d="M9 13.5A4.58 4.58 0 0 0 13.53 9H14c0 2.69-2.29 5-5 5-2.68 0-5-2.3-5-5 0-2.72 2.26-5 5.11-5a5 5 0 0 1 3.42 1.47l-.34.37a4.53 4.53 0 0 0-6.94.55c.6-.48 1.16-.86 2.1-.86 2.18 0 3.62 1.7 3.65 3.47.03 1.85-1.45 3.47-3.65 3.47a3.5 3.5 0 0 1-2.1-.86A4.44 4.44 0 0 0 9 13.5ZM4.47 9c0 .87.68 1.54 1.56 1.54.36 0 .8-.08 1.08-.3l.27.33c-.36.29-.89.44-1.35.44-.35 0-.68-.05-.98-.23A3 3 0 0 0 7.35 12c1.72 0 3.15-1.41 3.15-3 0-1.53-1.48-3-3.17-3-.89 0-1.8.57-2.33 1.26.3-.17.68-.26 1.03-.26C7.15 7 8 7.89 8 9h-.43c0-1.02-.73-1.54-1.54-1.53-.8.01-1.56.55-1.56 1.53ZM13 5.31l.44-.31A3.88 3.88 0 0 1 15 8h-.56c0-1-.51-1.95-1.44-2.69Z" fill="url(#aiprj0j01)"/><defs><linearGradient id="aiprj0j01" x1="3.74" y1="9.01" x2="14.01" y2="9.01" gradientUnits="userSpaceOnUse"><stop stop-color="#F15D63"/><stop offset="1" stop-color="#25328D"/></linearGradient></defs></svg>