<!-- by TradingView --><svg width="18" height="18" viewBox="0 0 18 18" xmlns="http://www.w3.org/2000/svg"><path fill="#F0F3FA" d="M0 0h18v18H0z"/><path d="M12.59 7.17V7h-1.3v.17h.25c.15 0 .24.17.19.32l-1.19 2.93-.95-2.94c-.04-.15.06-.3.2-.3h.3V7H8.4v.17h.13c.15 0 .29.11.34.27L10 11h.64l1.57-3.6a.36.36 0 0 1 .32-.23h.06ZM6.29 7v.17h-.06a.37.37 0 0 0-.33.23l-.58 1.28.58 1.74 1.22-2.93c.05-.15-.05-.32-.2-.32h-.26V7H8v.17h-.06a.37.37 0 0 0-.33.23L6.01 11h-.67L4.9 9.63 4.3 11h-.66L2.48 7.44a.37.37 0 0 0-.35-.27H2V7h1.71v.17h-.3c-.15 0-.25.16-.2.3l.98 2.95.54-1.31-.53-1.67a.37.37 0 0 0-.35-.27H3.7V7h2.6ZM5.14 8.12l.26-.63c.06-.15-.04-.32-.2-.32h-.08c-.14 0-.24.16-.2.3l.22.65ZM16 8.13V8h-.94v.13h.19c.1 0 .17.12.13.24l-.85 2.21-.65-2.22c-.04-.11.03-.23.14-.23h.21V8H13v.13h.1c.1 0 .2.08.24.2l.8 2.67h.46l1.13-2.7c.04-.1.13-.17.23-.17H16Z" fill="#231F20"/></svg>